%TF.GenerationSoftware,KiCad,Pcbnew,9.0.4*%
%TF.CreationDate,2025-10-23T14:08:18-04:00*%
%TF.ProjectId,BMS,424d532e-6b69-4636-9164-5f7063625858,rev?*%
%TF.SameCoordinates,Original*%
%TF.FileFunction,Copper,L1,Top*%
%TF.FilePolarity,Positive*%
%FSLAX46Y46*%
G04 Gerber Fmt 4.6, Leading zero omitted, Abs format (unit mm)*
G04 Created by KiCad (PCBNEW 9.0.4) date 2025-10-23 14:08:18*
%MOMM*%
%LPD*%
G01*
G04 APERTURE LIST*
G04 Aperture macros list*
%AMRoundRect*
0 Rectangle with rounded corners*
0 $1 Rounding radius*
0 $2 $3 $4 $5 $6 $7 $8 $9 X,Y pos of 4 corners*
0 Add a 4 corners polygon primitive as box body*
4,1,4,$2,$3,$4,$5,$6,$7,$8,$9,$2,$3,0*
0 Add four circle primitives for the rounded corners*
1,1,$1+$1,$2,$3*
1,1,$1+$1,$4,$5*
1,1,$1+$1,$6,$7*
1,1,$1+$1,$8,$9*
0 Add four rect primitives between the rounded corners*
20,1,$1+$1,$2,$3,$4,$5,0*
20,1,$1+$1,$4,$5,$6,$7,0*
20,1,$1+$1,$6,$7,$8,$9,0*
20,1,$1+$1,$8,$9,$2,$3,0*%
G04 Aperture macros list end*
%TA.AperFunction,SMDPad,CuDef*%
%ADD10RoundRect,0.150000X-0.150000X0.587500X-0.150000X-0.587500X0.150000X-0.587500X0.150000X0.587500X0*%
%TD*%
%TA.AperFunction,SMDPad,CuDef*%
%ADD11RoundRect,0.150000X-0.150000X0.512500X-0.150000X-0.512500X0.150000X-0.512500X0.150000X0.512500X0*%
%TD*%
%TA.AperFunction,SMDPad,CuDef*%
%ADD12RoundRect,0.237500X-0.300000X-0.237500X0.300000X-0.237500X0.300000X0.237500X-0.300000X0.237500X0*%
%TD*%
%TA.AperFunction,SMDPad,CuDef*%
%ADD13RoundRect,0.249999X-1.425001X0.450001X-1.425001X-0.450001X1.425001X-0.450001X1.425001X0.450001X0*%
%TD*%
%TA.AperFunction,SMDPad,CuDef*%
%ADD14RoundRect,0.250000X0.350000X-0.850000X0.350000X0.850000X-0.350000X0.850000X-0.350000X-0.850000X0*%
%TD*%
%TA.AperFunction,SMDPad,CuDef*%
%ADD15RoundRect,0.249997X2.650003X-2.950003X2.650003X2.950003X-2.650003X2.950003X-2.650003X-2.950003X0*%
%TD*%
%TA.AperFunction,SMDPad,CuDef*%
%ADD16RoundRect,0.237500X-0.250000X-0.237500X0.250000X-0.237500X0.250000X0.237500X-0.250000X0.237500X0*%
%TD*%
%TA.AperFunction,ComponentPad*%
%ADD17RoundRect,0.250000X-0.600000X-0.750000X0.600000X-0.750000X0.600000X0.750000X-0.600000X0.750000X0*%
%TD*%
%TA.AperFunction,ComponentPad*%
%ADD18O,1.700000X2.000000*%
%TD*%
%TA.AperFunction,ComponentPad*%
%ADD19RoundRect,0.250000X-0.600000X-0.725000X0.600000X-0.725000X0.600000X0.725000X-0.600000X0.725000X0*%
%TD*%
%TA.AperFunction,ComponentPad*%
%ADD20O,1.700000X1.950000*%
%TD*%
%TA.AperFunction,SMDPad,CuDef*%
%ADD21RoundRect,0.250000X-0.350000X0.850000X-0.350000X-0.850000X0.350000X-0.850000X0.350000X0.850000X0*%
%TD*%
%TA.AperFunction,SMDPad,CuDef*%
%ADD22RoundRect,0.249997X-2.650003X2.950003X-2.650003X-2.950003X2.650003X-2.950003X2.650003X2.950003X0*%
%TD*%
%TA.AperFunction,ViaPad*%
%ADD23C,0.600000*%
%TD*%
%TA.AperFunction,Conductor*%
%ADD24C,0.200000*%
%TD*%
G04 APERTURE END LIST*
D10*
%TO.P,Q4,1,D*%
%TO.N,Net-(Q4-D)*%
X145000000Y-96000000D03*
%TO.P,Q4,2,G*%
%TO.N,Net-(J1-Pin_2)*%
X143100000Y-96000000D03*
%TO.P,Q4,3,S*%
%TO.N,Net-(Q4-S)*%
X144050000Y-97875000D03*
%TD*%
%TO.P,Q3,1,D*%
%TO.N,Net-(Q3-D)*%
X139900000Y-96000000D03*
%TO.P,Q3,2,G*%
%TO.N,Net-(J1-Pin_3)*%
X138000000Y-96000000D03*
%TO.P,Q3,3,S*%
%TO.N,Net-(Q3-S)*%
X138950000Y-97875000D03*
%TD*%
D11*
%TO.P,U1,1,1A*%
%TO.N,unconnected-(U1-1A-Pad1)*%
X139950000Y-89862500D03*
%TO.P,U1,2,GND*%
%TO.N,Net-(U1-GND)*%
X139000000Y-89862500D03*
%TO.P,U1,3,2A*%
%TO.N,Net-(J1-Pin_3)*%
X138050000Y-89862500D03*
%TO.P,U1,4,2Y*%
%TO.N,unconnected-(U1-2Y-Pad4)*%
X138050000Y-92137500D03*
%TO.P,U1,5,V_{CC}*%
%TO.N,unconnected-(U1-V_{CC}-Pad5)*%
X139000000Y-92137500D03*
%TO.P,U1,6,1Y*%
%TO.N,Net-(Q3-D)*%
X139950000Y-92137500D03*
%TD*%
D12*
%TO.P,C1,1*%
%TO.N,Net-(U3-IO3)*%
X138575000Y-73000000D03*
%TO.P,C1,2*%
%TO.N,Net-(J1-Pin_3)*%
X140300000Y-73000000D03*
%TD*%
D13*
%TO.P,R5,1*%
%TO.N,Net-(Q3-S)*%
X139000000Y-101000000D03*
%TO.P,R5,2*%
%TO.N,Net-(J1-Pin_2)*%
X139000000Y-107100000D03*
%TD*%
D14*
%TO.P,Q2,1,D*%
%TO.N,Net-(Q2-D)*%
X150440000Y-104000000D03*
D15*
%TO.P,Q2,2,G*%
%TO.N,Net-(Q1-G)*%
X152720000Y-97700000D03*
D14*
%TO.P,Q2,3,S*%
%TO.N,Net-(J1-Pin_3)*%
X155000000Y-104000000D03*
%TD*%
D16*
%TO.P,R7,1*%
%TO.N,Net-(U3-IO2)*%
X144000000Y-69000000D03*
%TO.P,R7,2*%
%TO.N,GND*%
X145825000Y-69000000D03*
%TD*%
D12*
%TO.P,C4,1*%
%TO.N,Net-(J1-Pin_2)*%
X143137500Y-85000000D03*
%TO.P,C4,2*%
%TO.N,Net-(U2-GND)*%
X144862500Y-85000000D03*
%TD*%
%TO.P,C2,1*%
%TO.N,Net-(U3-VP)*%
X144137500Y-73000000D03*
%TO.P,C2,2*%
%TO.N,Net-(J1-Pin_3)*%
X145862500Y-73000000D03*
%TD*%
D16*
%TO.P,R2,1*%
%TO.N,Net-(U3-VP)*%
X143675000Y-77000000D03*
%TO.P,R2,2*%
%TO.N,Net-(J1-Pin_1)*%
X145500000Y-77000000D03*
%TD*%
%TO.P,R1,1*%
%TO.N,Net-(J1-Pin_2)*%
X138087500Y-77000000D03*
%TO.P,R1,2*%
%TO.N,Net-(U3-IO3)*%
X139912500Y-77000000D03*
%TD*%
D13*
%TO.P,R6,1*%
%TO.N,Net-(Q4-S)*%
X144000000Y-101000000D03*
%TO.P,R6,2*%
%TO.N,Net-(J1-Pin_1)*%
X144000000Y-107100000D03*
%TD*%
D17*
%TO.P,J2,1,Pin_1*%
%TO.N,GND*%
X151000000Y-69000000D03*
D18*
%TO.P,J2,2,Pin_2*%
%TO.N,Net-(J1-Pin_1)*%
X153500000Y-69000000D03*
%TD*%
D12*
%TO.P,C3,1*%
%TO.N,Net-(J1-Pin_3)*%
X138137500Y-85000000D03*
%TO.P,C3,2*%
%TO.N,Net-(U1-GND)*%
X139862500Y-85000000D03*
%TD*%
D11*
%TO.P,U3,1,IO1*%
%TO.N,Net-(Q2-D)*%
X139950000Y-65862500D03*
%TO.P,U3,2,VN*%
%TO.N,Net-(Q1-D)*%
X139000000Y-65862500D03*
%TO.P,U3,3,IO2*%
%TO.N,Net-(U3-IO2)*%
X138050000Y-65862500D03*
%TO.P,U3,4,IO3*%
%TO.N,Net-(U3-IO3)*%
X138050000Y-68137500D03*
%TO.P,U3,5,VP*%
%TO.N,Net-(U3-VP)*%
X139000000Y-68137500D03*
%TO.P,U3,6,IO4*%
%TO.N,Net-(J1-Pin_3)*%
X139950000Y-68137500D03*
%TD*%
D19*
%TO.P,J1,1,Pin_1*%
%TO.N,Net-(J1-Pin_1)*%
X139675000Y-113000000D03*
D20*
%TO.P,J1,2,Pin_2*%
%TO.N,Net-(J1-Pin_2)*%
X142175000Y-113000000D03*
%TO.P,J1,3,Pin_3*%
%TO.N,Net-(J1-Pin_3)*%
X144675000Y-113000000D03*
%TD*%
D16*
%TO.P,R3,1*%
%TO.N,Net-(U1-GND)*%
X138175000Y-80500000D03*
%TO.P,R3,2*%
%TO.N,Net-(J1-Pin_2)*%
X140000000Y-80500000D03*
%TD*%
D21*
%TO.P,Q1,1,D*%
%TO.N,Net-(Q1-D)*%
X154560000Y-82000000D03*
D22*
%TO.P,Q1,2,G*%
%TO.N,Net-(Q1-G)*%
X152280000Y-88300000D03*
D21*
%TO.P,Q1,3,S*%
%TO.N,GND*%
X150000000Y-82000000D03*
%TD*%
D16*
%TO.P,R4,1*%
%TO.N,Net-(U2-GND)*%
X143675000Y-80500000D03*
%TO.P,R4,2*%
%TO.N,Net-(J1-Pin_1)*%
X145500000Y-80500000D03*
%TD*%
D11*
%TO.P,U2,1,1A*%
%TO.N,unconnected-(U2-1A-Pad1)*%
X144950000Y-90000000D03*
%TO.P,U2,2,GND*%
%TO.N,Net-(U2-GND)*%
X144000000Y-90000000D03*
%TO.P,U2,3,2A*%
%TO.N,Net-(J1-Pin_2)*%
X143050000Y-90000000D03*
%TO.P,U2,4,2Y*%
%TO.N,unconnected-(U2-2Y-Pad4)*%
X143050000Y-92275000D03*
%TO.P,U2,5,V_{CC}*%
%TO.N,unconnected-(U2-V_{CC}-Pad5)*%
X144000000Y-92275000D03*
%TO.P,U2,6,1Y*%
%TO.N,Net-(Q4-D)*%
X144950000Y-92275000D03*
%TD*%
D23*
%TO.N,Net-(J1-Pin_1)*%
X145368800Y-75807200D03*
%TO.N,GND*%
X157226000Y-78130400D03*
X134467600Y-76149200D03*
X138938000Y-94030800D03*
X134366000Y-69342000D03*
X155041600Y-75285600D03*
X153060400Y-76962000D03*
X134823200Y-108864400D03*
X134467600Y-84226400D03*
X142087600Y-78282800D03*
X140360400Y-87528400D03*
X152146000Y-115316000D03*
X151231600Y-63550800D03*
X147320000Y-80314800D03*
X150114000Y-93116400D03*
X150215600Y-108508800D03*
X147472400Y-86918800D03*
X145542000Y-64363600D03*
X158394400Y-83058000D03*
X157784800Y-109169200D03*
X141478000Y-83312000D03*
X150012400Y-79400400D03*
X157327600Y-113893600D03*
X142595600Y-73812400D03*
X142189200Y-80873600D03*
X147320000Y-69392800D03*
X140817600Y-62890400D03*
X134315200Y-91186000D03*
X147421600Y-91490800D03*
X157784800Y-92659200D03*
X148183600Y-106273600D03*
X147878800Y-71983600D03*
X134315200Y-99110800D03*
%TO.N,Net-(Q1-D)*%
X142228200Y-70776300D03*
X150254800Y-70844400D03*
%TD*%
D24*
%TO.N,Net-(J1-Pin_1)*%
X143328300Y-113633000D02*
X143328300Y-107771700D01*
X143328300Y-107771700D02*
X144000000Y-107100000D01*
X145500000Y-77000000D02*
X145500000Y-80500000D01*
X145500000Y-80500000D02*
X146010200Y-81010200D01*
X142663500Y-114297800D02*
X143328300Y-113633000D01*
X146010200Y-105089800D02*
X144000000Y-107100000D01*
X146010200Y-81010200D02*
X146010200Y-105089800D01*
X139675000Y-113000000D02*
X140972800Y-114297800D01*
X140972800Y-114297800D02*
X142663500Y-114297800D01*
X145500000Y-75938400D02*
X145500000Y-77000000D01*
X145368800Y-75807200D02*
X145500000Y-75938400D01*
%TO.N,Net-(Q1-G)*%
X152720000Y-97700000D02*
X152280000Y-97260000D01*
X152280000Y-97260000D02*
X152280000Y-88300000D01*
%TO.N,Net-(J1-Pin_2)*%
X143050000Y-85089800D02*
X143050000Y-83550000D01*
X142175000Y-113000000D02*
X142175000Y-111723300D01*
X143100000Y-96000000D02*
X141500100Y-97599900D01*
X142424300Y-95324300D02*
X143100000Y-96000000D01*
X141500100Y-111048400D02*
X142175000Y-111723300D01*
X138087500Y-77000000D02*
X140000000Y-78912500D01*
X140000000Y-78912500D02*
X140000000Y-80500000D01*
X143050000Y-85087500D02*
X143137500Y-85000000D01*
X143050000Y-85089800D02*
X143050000Y-85087500D01*
X143050000Y-83550000D02*
X140000000Y-80500000D01*
X141500100Y-107100000D02*
X139000000Y-107100000D01*
X141500100Y-97599900D02*
X141500100Y-107100000D01*
X143050000Y-90000000D02*
X143050000Y-85089800D01*
X143050000Y-90000000D02*
X142424300Y-90625700D01*
X142424300Y-90625700D02*
X142424300Y-95324300D01*
X141500100Y-107100000D02*
X141500100Y-111048400D01*
%TO.N,Net-(Q3-S)*%
X138950000Y-97875000D02*
X139000000Y-97925000D01*
X139000000Y-97925000D02*
X139000000Y-101000000D01*
%TO.N,Net-(U3-IO3)*%
X138575000Y-75662500D02*
X139912500Y-77000000D01*
X138575000Y-73000000D02*
X138575000Y-75662500D01*
X138050000Y-72475000D02*
X138050000Y-68137500D01*
X138575000Y-73000000D02*
X138050000Y-72475000D01*
%TO.N,Net-(Q4-S)*%
X144050000Y-100950000D02*
X144050000Y-97875000D01*
X144000000Y-101000000D02*
X144050000Y-100950000D01*
%TO.N,Net-(U3-IO2)*%
X144000000Y-68582300D02*
X140309400Y-64891700D01*
X144000000Y-69000000D02*
X144000000Y-68582300D01*
X138654900Y-64891700D02*
X138050000Y-65496600D01*
X140309400Y-64891700D02*
X138654900Y-64891700D01*
X138050000Y-65496600D02*
X138050000Y-65862500D01*
%TO.N,Net-(U3-VP)*%
X144137500Y-76537500D02*
X143675000Y-77000000D01*
X143675000Y-77000000D02*
X142981200Y-77000000D01*
X139000000Y-71874700D02*
X139000000Y-68137500D01*
X139437500Y-72312200D02*
X139000000Y-71874700D01*
X144137500Y-73000000D02*
X144137500Y-76537500D01*
X139437500Y-73456300D02*
X139437500Y-72312200D01*
X142981200Y-77000000D02*
X139437500Y-73456300D01*
%TO.N,Net-(U1-GND)*%
X138175000Y-80500000D02*
X139862500Y-82187500D01*
X139000000Y-85862500D02*
X139862500Y-85000000D01*
X139000000Y-89862500D02*
X139000000Y-85862500D01*
X139862500Y-82187500D02*
X139862500Y-85000000D01*
%TO.N,Net-(U2-GND)*%
X144000000Y-85254000D02*
X144254000Y-85000000D01*
X144254000Y-81079000D02*
X143675000Y-80500000D01*
X144000000Y-90000000D02*
X144000000Y-85254000D01*
X144254000Y-85000000D02*
X144862500Y-85000000D01*
X144254000Y-85000000D02*
X144254000Y-81079000D01*
%TO.N,Net-(J1-Pin_3)*%
X139950000Y-68137500D02*
X140300000Y-68487500D01*
X137710400Y-67123500D02*
X137275900Y-67558000D01*
X138050000Y-86673800D02*
X138050000Y-87433700D01*
X138050000Y-85439800D02*
X138050000Y-85481100D01*
X147003400Y-111816600D02*
X146560000Y-112260000D01*
X138050000Y-85481100D02*
X138050000Y-85781500D01*
X139950000Y-67742700D02*
X139330800Y-67123500D01*
X153425000Y-111816600D02*
X147003400Y-111816600D01*
X138050000Y-85781500D02*
X138050000Y-86673800D01*
X138050000Y-87475000D02*
X138050000Y-89862500D01*
X145067400Y-72204900D02*
X145862500Y-73000000D01*
X137275900Y-67558000D02*
X137275900Y-84138400D01*
X145826700Y-113000000D02*
X146436200Y-112390500D01*
X138050000Y-85087500D02*
X138050000Y-85439800D01*
X155000000Y-110241600D02*
X153425000Y-111816600D01*
X155000000Y-104000000D02*
X155000000Y-110241600D01*
X144675000Y-113000000D02*
X145826700Y-113000000D01*
X138050000Y-87433700D02*
X138050000Y-87475000D01*
X146436200Y-73573700D02*
X145862500Y-73000000D01*
X140300000Y-72204900D02*
X140300000Y-73000000D01*
X139950000Y-68137500D02*
X139950000Y-67742700D01*
X138000000Y-96000000D02*
X137394100Y-95394100D01*
X140300000Y-68487500D02*
X140300000Y-72204900D01*
X146436200Y-112390500D02*
X146436200Y-73573700D01*
X139330800Y-67123500D02*
X137710400Y-67123500D01*
X137394100Y-95394100D02*
X137394100Y-90518400D01*
X140300000Y-72204900D02*
X145067400Y-72204900D01*
X138137500Y-85000000D02*
X138050000Y-85087500D01*
X137275900Y-84138400D02*
X138137500Y-85000000D01*
X137394100Y-90518400D02*
X138050000Y-89862500D01*
%TO.N,Net-(Q1-D)*%
X142228200Y-70776300D02*
X142228200Y-69113500D01*
X139000000Y-66219700D02*
X139000000Y-65862500D01*
X139921900Y-67141600D02*
X139000000Y-66219700D01*
X140256300Y-67141600D02*
X139921900Y-67141600D01*
X142228200Y-69113500D02*
X140256300Y-67141600D01*
X154560000Y-82000000D02*
X150254800Y-77694800D01*
X150254800Y-77694800D02*
X150254800Y-70844400D01*
%TO.N,Net-(Q2-D)*%
X139950000Y-66227000D02*
X145368400Y-71645400D01*
X145860200Y-71645400D02*
X148475000Y-74260200D01*
X148475000Y-74260200D02*
X148475000Y-102035000D01*
X145368400Y-71645400D02*
X145860200Y-71645400D01*
X148475000Y-102035000D02*
X150440000Y-104000000D01*
X139950000Y-65862500D02*
X139950000Y-66227000D01*
%TO.N,Net-(Q3-D)*%
X139950000Y-95950000D02*
X139950000Y-92137500D01*
X139900000Y-96000000D02*
X139950000Y-95950000D01*
%TO.N,Net-(Q4-D)*%
X144950000Y-95950000D02*
X144950000Y-92275000D01*
X145000000Y-96000000D02*
X144950000Y-95950000D01*
%TD*%
%TA.AperFunction,Conductor*%
%TO.N,GND*%
G36*
X147241903Y-73876784D02*
G01*
X147248381Y-73882816D01*
X147838181Y-74472616D01*
X147871666Y-74533939D01*
X147874500Y-74560297D01*
X147874500Y-84567027D01*
X147574000Y-109016800D01*
X147036700Y-108998847D01*
X147036700Y-73970497D01*
X147056385Y-73903458D01*
X147109189Y-73857703D01*
X147178347Y-73847759D01*
X147241903Y-73876784D01*
G37*
%TD.AperFunction*%
%TA.AperFunction,Conductor*%
G36*
X133819190Y-64067046D02*
G01*
X133894177Y-64346905D01*
X134005052Y-64614580D01*
X134005057Y-64614591D01*
X134034718Y-64665964D01*
X134149920Y-64865499D01*
X134149922Y-64865502D01*
X134149923Y-64865503D01*
X134326295Y-65095357D01*
X134326301Y-65095364D01*
X134531163Y-65300226D01*
X134531169Y-65300231D01*
X134761029Y-65476608D01*
X134919700Y-65568217D01*
X135011936Y-65621470D01*
X135011941Y-65621472D01*
X135011944Y-65621474D01*
X135279621Y-65732350D01*
X135559481Y-65807338D01*
X135846734Y-65845156D01*
X135846741Y-65845156D01*
X136136459Y-65845156D01*
X136136466Y-65845156D01*
X136423719Y-65807338D01*
X136703579Y-65732350D01*
X136971256Y-65621474D01*
X137063500Y-65568217D01*
X137131400Y-65551744D01*
X137197427Y-65574596D01*
X137240617Y-65629517D01*
X137249500Y-65675604D01*
X137249500Y-66440701D01*
X137252401Y-66477567D01*
X137252402Y-66477573D01*
X137289279Y-66604502D01*
X137289080Y-66674372D01*
X137257884Y-66726778D01*
X136900117Y-67084546D01*
X136900114Y-67084548D01*
X136900115Y-67084549D01*
X136795378Y-67189285D01*
X136762933Y-67245483D01*
X136753294Y-67262180D01*
X136734808Y-67294197D01*
X136716323Y-67326214D01*
X136716323Y-67326215D01*
X136675399Y-67478943D01*
X136675399Y-67478945D01*
X136675399Y-67647046D01*
X136675400Y-67647059D01*
X136675400Y-84051730D01*
X136675399Y-84051748D01*
X136675399Y-84217454D01*
X136675398Y-84217454D01*
X136678732Y-84229897D01*
X136716323Y-84370185D01*
X136716324Y-84370187D01*
X136716323Y-84370187D01*
X136733245Y-84399495D01*
X136733247Y-84399497D01*
X136733248Y-84399499D01*
X136774669Y-84471243D01*
X136795379Y-84507115D01*
X136914249Y-84625985D01*
X136914255Y-84625990D01*
X137063181Y-84774916D01*
X137096666Y-84836239D01*
X137099500Y-84862597D01*
X137099500Y-85286669D01*
X137099501Y-85286687D01*
X137109825Y-85387752D01*
X137146109Y-85497249D01*
X137164092Y-85551516D01*
X137254660Y-85698350D01*
X137376650Y-85820340D01*
X137388920Y-85827908D01*
X137390596Y-85828942D01*
X137437321Y-85880890D01*
X137449500Y-85934481D01*
X137449500Y-88829191D01*
X137429815Y-88896230D01*
X137413181Y-88916872D01*
X137381923Y-88948129D01*
X137381917Y-88948137D01*
X137298255Y-89089603D01*
X137298254Y-89089606D01*
X137252402Y-89247426D01*
X137252401Y-89247432D01*
X137249500Y-89284298D01*
X137249500Y-89762402D01*
X137229815Y-89829441D01*
X137213181Y-89850083D01*
X136913581Y-90149682D01*
X136913577Y-90149687D01*
X136866508Y-90231215D01*
X136866508Y-90231216D01*
X136834523Y-90286614D01*
X136834523Y-90286615D01*
X136793599Y-90439343D01*
X136793599Y-90439345D01*
X136793599Y-90607446D01*
X136793600Y-90607459D01*
X136793600Y-95307430D01*
X136793599Y-95307448D01*
X136793599Y-95473154D01*
X136793598Y-95473154D01*
X136834523Y-95625885D01*
X136863458Y-95676000D01*
X136863459Y-95676004D01*
X136863460Y-95676004D01*
X136913579Y-95762814D01*
X136913581Y-95762817D01*
X137032449Y-95881685D01*
X137032455Y-95881690D01*
X137163181Y-96012416D01*
X137196666Y-96073739D01*
X137199500Y-96100097D01*
X137199500Y-96653201D01*
X137202401Y-96690067D01*
X137202402Y-96690073D01*
X137248254Y-96847893D01*
X137248255Y-96847896D01*
X137331917Y-96989362D01*
X137331923Y-96989370D01*
X137448129Y-97105576D01*
X137448133Y-97105579D01*
X137448135Y-97105581D01*
X137589602Y-97189244D01*
X137631224Y-97201336D01*
X137747426Y-97235097D01*
X137747429Y-97235097D01*
X137747431Y-97235098D01*
X137784306Y-97238000D01*
X138025500Y-97238000D01*
X138092539Y-97257685D01*
X138138294Y-97310489D01*
X138149500Y-97362000D01*
X138149500Y-98528201D01*
X138152401Y-98565067D01*
X138152402Y-98565073D01*
X138198254Y-98722893D01*
X138198255Y-98722896D01*
X138281917Y-98864362D01*
X138281923Y-98864370D01*
X138363181Y-98945628D01*
X138396666Y-99006951D01*
X138399500Y-99033309D01*
X138399500Y-99675500D01*
X138379815Y-99742539D01*
X138327011Y-99788294D01*
X138275500Y-99799500D01*
X137524982Y-99799500D01*
X137422203Y-99810000D01*
X137422202Y-99810001D01*
X137364188Y-99829225D01*
X137255667Y-99865185D01*
X137255662Y-99865187D01*
X137106342Y-99957289D01*
X136982289Y-100081342D01*
X136890187Y-100230662D01*
X136890186Y-100230665D01*
X136835001Y-100397202D01*
X136835001Y-100397203D01*
X136835000Y-100397203D01*
X136824500Y-100499982D01*
X136824500Y-101500017D01*
X136835000Y-101602796D01*
X136835001Y-101602798D01*
X136890186Y-101769335D01*
X136982288Y-101918656D01*
X137106344Y-102042712D01*
X137255665Y-102134814D01*
X137422202Y-102189999D01*
X137524990Y-102200500D01*
X137524995Y-102200500D01*
X140475005Y-102200500D01*
X140475010Y-102200500D01*
X140577798Y-102189999D01*
X140736601Y-102137376D01*
X140806424Y-102134975D01*
X140866466Y-102170706D01*
X140897659Y-102233227D01*
X140899600Y-102255083D01*
X140899600Y-105844916D01*
X140879915Y-105911955D01*
X140827111Y-105957710D01*
X140757953Y-105967654D01*
X140736600Y-105962623D01*
X140577798Y-105910001D01*
X140577796Y-105910000D01*
X140475017Y-105899500D01*
X140475010Y-105899500D01*
X137524990Y-105899500D01*
X137524982Y-105899500D01*
X137422203Y-105910000D01*
X137422202Y-105910001D01*
X137364188Y-105929225D01*
X137255667Y-105965185D01*
X137255662Y-105965187D01*
X137106342Y-106057289D01*
X136982289Y-106181342D01*
X136890187Y-106330662D01*
X136890186Y-106330665D01*
X136835001Y-106497202D01*
X136835001Y-106497203D01*
X136835000Y-106497203D01*
X136824500Y-106599982D01*
X136824500Y-107600017D01*
X136835000Y-107702796D01*
X136835001Y-107702798D01*
X136890186Y-107869335D01*
X136982288Y-108018656D01*
X137106344Y-108142712D01*
X137255665Y-108234814D01*
X137422202Y-108289999D01*
X137524990Y-108300500D01*
X137524995Y-108300500D01*
X140475005Y-108300500D01*
X140475010Y-108300500D01*
X140577798Y-108289999D01*
X140736601Y-108237376D01*
X140806424Y-108234975D01*
X140866466Y-108270706D01*
X140897659Y-108333227D01*
X140899600Y-108355083D01*
X140899600Y-108793788D01*
X133250500Y-108538210D01*
X133250500Y-63803654D01*
X133783320Y-63794601D01*
X133819190Y-64067046D01*
G37*
%TD.AperFunction*%
%TA.AperFunction,Conductor*%
G36*
X140668203Y-82017884D02*
G01*
X140674681Y-82023916D01*
X142413181Y-83762416D01*
X142427884Y-83789343D01*
X142444477Y-83815162D01*
X142445368Y-83821362D01*
X142446666Y-83823739D01*
X142449500Y-83850097D01*
X142449500Y-84065518D01*
X142429815Y-84132557D01*
X142390600Y-84171055D01*
X142376650Y-84179660D01*
X142376649Y-84179660D01*
X142254661Y-84301648D01*
X142164093Y-84448481D01*
X142164092Y-84448484D01*
X142109826Y-84612247D01*
X142109826Y-84612248D01*
X142109825Y-84612248D01*
X142099500Y-84713315D01*
X142099500Y-85286669D01*
X142099501Y-85286687D01*
X142109825Y-85387752D01*
X142146109Y-85497249D01*
X142164092Y-85551516D01*
X142254660Y-85698350D01*
X142376650Y-85820340D01*
X142388920Y-85827908D01*
X142390596Y-85828942D01*
X142437321Y-85880890D01*
X142449500Y-85934481D01*
X142449500Y-88966691D01*
X142429815Y-89033730D01*
X142413181Y-89054372D01*
X142381923Y-89085629D01*
X142381917Y-89085637D01*
X142298255Y-89227103D01*
X142298254Y-89227106D01*
X142252402Y-89384926D01*
X142252401Y-89384932D01*
X142249500Y-89421798D01*
X142249500Y-89899902D01*
X142229815Y-89966941D01*
X142213181Y-89987583D01*
X141943781Y-90256982D01*
X141943780Y-90256984D01*
X141894108Y-90343020D01*
X141864723Y-90393915D01*
X141823799Y-90546643D01*
X141823799Y-90546645D01*
X141823799Y-90714746D01*
X141823800Y-90714759D01*
X141823800Y-95237630D01*
X141823799Y-95237648D01*
X141823799Y-95403354D01*
X141823798Y-95403354D01*
X141823799Y-95403357D01*
X141864723Y-95556085D01*
X141864724Y-95556086D01*
X141879271Y-95581284D01*
X141879272Y-95581285D01*
X141943775Y-95693009D01*
X141943781Y-95693017D01*
X142062649Y-95811885D01*
X142062655Y-95811890D01*
X142163083Y-95912318D01*
X142196568Y-95973641D01*
X142191584Y-96043333D01*
X142163083Y-96087680D01*
X141131386Y-97119378D01*
X141019581Y-97231182D01*
X141019579Y-97231184D01*
X141009175Y-97249206D01*
X140994572Y-97274500D01*
X140982759Y-97294961D01*
X140944054Y-97362000D01*
X140940523Y-97368115D01*
X140899599Y-97520843D01*
X140899599Y-97520845D01*
X140899599Y-97688946D01*
X140899600Y-97688959D01*
X140899600Y-99744916D01*
X140879915Y-99811955D01*
X140827111Y-99857710D01*
X140757953Y-99867654D01*
X140736600Y-99862623D01*
X140577798Y-99810001D01*
X140577796Y-99810000D01*
X140475017Y-99799500D01*
X140475010Y-99799500D01*
X139724500Y-99799500D01*
X139657461Y-99779815D01*
X139611706Y-99727011D01*
X139600500Y-99675500D01*
X139600500Y-98928015D01*
X139617768Y-98864894D01*
X139618083Y-98864362D01*
X139701744Y-98722898D01*
X139747598Y-98565069D01*
X139750500Y-98528194D01*
X139750500Y-97362000D01*
X139770185Y-97294961D01*
X139822989Y-97249206D01*
X139874500Y-97238000D01*
X140115686Y-97238000D01*
X140115694Y-97238000D01*
X140152569Y-97235098D01*
X140152571Y-97235097D01*
X140152573Y-97235097D01*
X140194191Y-97223005D01*
X140310398Y-97189244D01*
X140451865Y-97105581D01*
X140568081Y-96989365D01*
X140651744Y-96847898D01*
X140697598Y-96690069D01*
X140700500Y-96653194D01*
X140700500Y-95346806D01*
X140697598Y-95309931D01*
X140696871Y-95307430D01*
X140651745Y-95152106D01*
X140651744Y-95152103D01*
X140651744Y-95152102D01*
X140603583Y-95070667D01*
X140567768Y-95010105D01*
X140550500Y-94946984D01*
X140550500Y-93170808D01*
X140570185Y-93103769D01*
X140586820Y-93083126D01*
X140618076Y-93051870D01*
X140618081Y-93051865D01*
X140701744Y-92910398D01*
X140747598Y-92752569D01*
X140750500Y-92715694D01*
X140750500Y-91559306D01*
X140747598Y-91522431D01*
X140701744Y-91364602D01*
X140618081Y-91223135D01*
X140618079Y-91223133D01*
X140618076Y-91223129D01*
X140501870Y-91106923D01*
X140501867Y-91106921D01*
X140501865Y-91106919D01*
X140501549Y-91106732D01*
X140501353Y-91106522D01*
X140495702Y-91102139D01*
X140496409Y-91101227D01*
X140453866Y-91055664D01*
X140441362Y-90986923D01*
X140468006Y-90922333D01*
X140495921Y-90898144D01*
X140495702Y-90897861D01*
X140500911Y-90893820D01*
X140501550Y-90893267D01*
X140501865Y-90893081D01*
X140618081Y-90776865D01*
X140701744Y-90635398D01*
X140747598Y-90477569D01*
X140750500Y-90440694D01*
X140750500Y-89284306D01*
X140747598Y-89247431D01*
X140701744Y-89089602D01*
X140618081Y-88948135D01*
X140618079Y-88948133D01*
X140618076Y-88948129D01*
X140501870Y-88831923D01*
X140501862Y-88831917D01*
X140360396Y-88748255D01*
X140360393Y-88748254D01*
X140202573Y-88702402D01*
X140202567Y-88702401D01*
X140165701Y-88699500D01*
X140165694Y-88699500D01*
X139734306Y-88699500D01*
X139734300Y-88699500D01*
X139734282Y-88699501D01*
X139734222Y-88699506D01*
X139734212Y-88699503D01*
X139731868Y-88699596D01*
X139731844Y-88699006D01*
X139665845Y-88685138D01*
X139616091Y-88636084D01*
X139600500Y-88575888D01*
X139600500Y-86162597D01*
X139609144Y-86133156D01*
X139615668Y-86103170D01*
X139619422Y-86098154D01*
X139620185Y-86095558D01*
X139636819Y-86074916D01*
X139699917Y-86011818D01*
X139761240Y-85978333D01*
X139787598Y-85975499D01*
X140211670Y-85975499D01*
X140211676Y-85975499D01*
X140312753Y-85965174D01*
X140476516Y-85910908D01*
X140623350Y-85820340D01*
X140745340Y-85698350D01*
X140835908Y-85551516D01*
X140890174Y-85387753D01*
X140900500Y-85286677D01*
X140900499Y-84713324D01*
X140890174Y-84612247D01*
X140835908Y-84448484D01*
X140745340Y-84301650D01*
X140623350Y-84179660D01*
X140623346Y-84179657D01*
X140521903Y-84117086D01*
X140475178Y-84065138D01*
X140463000Y-84011548D01*
X140463000Y-82111597D01*
X140482685Y-82044558D01*
X140535489Y-81998803D01*
X140604647Y-81988859D01*
X140668203Y-82017884D01*
G37*
%TD.AperFunction*%
%TA.AperFunction,Conductor*%
G36*
X138543762Y-93237844D02*
G01*
X138555500Y-93237409D01*
X138588125Y-93250870D01*
X138589602Y-93251744D01*
X138631224Y-93263836D01*
X138747426Y-93297597D01*
X138747429Y-93297597D01*
X138747431Y-93297598D01*
X138784306Y-93300500D01*
X138784314Y-93300500D01*
X139215686Y-93300500D01*
X139215694Y-93300500D01*
X139215729Y-93300497D01*
X139215734Y-93300498D01*
X139218132Y-93300404D01*
X139218155Y-93301005D01*
X139284111Y-93314837D01*
X139333885Y-93363872D01*
X139349500Y-93424111D01*
X139349500Y-94841691D01*
X139329815Y-94908730D01*
X139313181Y-94929372D01*
X139231923Y-95010629D01*
X139231917Y-95010637D01*
X139148255Y-95152103D01*
X139148254Y-95152106D01*
X139102402Y-95309926D01*
X139102401Y-95309932D01*
X139099500Y-95346798D01*
X139099500Y-96513000D01*
X139096949Y-96521685D01*
X139098238Y-96530647D01*
X139087259Y-96554687D01*
X139079815Y-96580039D01*
X139072974Y-96585966D01*
X139069213Y-96594203D01*
X139046978Y-96608492D01*
X139027011Y-96625794D01*
X139016496Y-96628081D01*
X139010435Y-96631977D01*
X138975500Y-96637000D01*
X138924500Y-96637000D01*
X138857461Y-96617315D01*
X138811706Y-96564511D01*
X138800500Y-96513000D01*
X138800500Y-95346813D01*
X138800499Y-95346798D01*
X138797598Y-95309932D01*
X138797597Y-95309926D01*
X138751745Y-95152106D01*
X138751744Y-95152103D01*
X138751744Y-95152102D01*
X138668081Y-95010635D01*
X138668079Y-95010633D01*
X138668076Y-95010629D01*
X138551870Y-94894423D01*
X138551862Y-94894417D01*
X138410396Y-94810755D01*
X138410393Y-94810754D01*
X138252573Y-94764902D01*
X138252567Y-94764901D01*
X138215701Y-94762000D01*
X138215694Y-94762000D01*
X138118600Y-94762000D01*
X138051561Y-94742315D01*
X138005806Y-94689511D01*
X137994600Y-94638000D01*
X137994600Y-93424500D01*
X138014285Y-93357461D01*
X138067089Y-93311706D01*
X138118600Y-93300500D01*
X138265686Y-93300500D01*
X138265694Y-93300500D01*
X138302569Y-93297598D01*
X138302571Y-93297597D01*
X138302573Y-93297597D01*
X138399502Y-93269436D01*
X138460398Y-93251744D01*
X138461874Y-93250870D01*
X138463183Y-93250538D01*
X138467557Y-93248646D01*
X138467862Y-93249351D01*
X138474764Y-93247599D01*
X138485678Y-93240000D01*
X138507972Y-93239172D01*
X138529597Y-93233685D01*
X138543762Y-93237844D01*
G37*
%TD.AperFunction*%
%TA.AperFunction,Conductor*%
G36*
X139380703Y-74249184D02*
G01*
X139387180Y-74255215D01*
X142612484Y-77480520D01*
X142733410Y-77550336D01*
X142776948Y-77592626D01*
X142842157Y-77698346D01*
X142842160Y-77698350D01*
X142964150Y-77820340D01*
X143110984Y-77910908D01*
X143274747Y-77965174D01*
X143375823Y-77975500D01*
X143974176Y-77975499D01*
X143974184Y-77975498D01*
X143974187Y-77975498D01*
X144029530Y-77969844D01*
X144075253Y-77965174D01*
X144239016Y-77910908D01*
X144385850Y-77820340D01*
X144499819Y-77706371D01*
X144503938Y-77704121D01*
X144506484Y-77700178D01*
X144534316Y-77687533D01*
X144561142Y-77672886D01*
X144565822Y-77673220D01*
X144570097Y-77671279D01*
X144600346Y-77675689D01*
X144630834Y-77677870D01*
X144635879Y-77680870D01*
X144639235Y-77681360D01*
X144654130Y-77691724D01*
X144668889Y-77700501D01*
X144672134Y-77703324D01*
X144789150Y-77820340D01*
X144849236Y-77857401D01*
X144856889Y-77864059D01*
X144870467Y-77885280D01*
X144887321Y-77904017D01*
X144890000Y-77915807D01*
X144894546Y-77922912D01*
X144894520Y-77935698D01*
X144899500Y-77957610D01*
X144899500Y-79542388D01*
X144879815Y-79609427D01*
X144840598Y-79647926D01*
X144789150Y-79679659D01*
X144789149Y-79679660D01*
X144675181Y-79793629D01*
X144613858Y-79827114D01*
X144544166Y-79822130D01*
X144499819Y-79793629D01*
X144385851Y-79679661D01*
X144385850Y-79679660D01*
X144239016Y-79589092D01*
X144075253Y-79534826D01*
X144075251Y-79534825D01*
X143974178Y-79524500D01*
X143375830Y-79524500D01*
X143375812Y-79524501D01*
X143274747Y-79534825D01*
X143110984Y-79589092D01*
X143110981Y-79589093D01*
X142964148Y-79679661D01*
X142842161Y-79801648D01*
X142751593Y-79948481D01*
X142751592Y-79948484D01*
X142697326Y-80112247D01*
X142697326Y-80112248D01*
X142697325Y-80112248D01*
X142687000Y-80213315D01*
X142687000Y-80786669D01*
X142687001Y-80786687D01*
X142697325Y-80887752D01*
X142733609Y-80997249D01*
X142751592Y-81051516D01*
X142842160Y-81198350D01*
X142964150Y-81320340D01*
X143110984Y-81410908D01*
X143274747Y-81465174D01*
X143375823Y-81475500D01*
X143529500Y-81475499D01*
X143596539Y-81495183D01*
X143642294Y-81547987D01*
X143653500Y-81599499D01*
X143653500Y-83004901D01*
X143647261Y-83026146D01*
X143645683Y-83048230D01*
X143637610Y-83059014D01*
X143633815Y-83071940D01*
X143617082Y-83086438D01*
X143603814Y-83104165D01*
X143591191Y-83108873D01*
X143581011Y-83117695D01*
X143559097Y-83120845D01*
X143538351Y-83128585D01*
X143525186Y-83125721D01*
X143511853Y-83127639D01*
X143491711Y-83118440D01*
X143470077Y-83113735D01*
X143452349Y-83100464D01*
X143448297Y-83098614D01*
X143441822Y-83092585D01*
X143428099Y-83078863D01*
X143418716Y-83069480D01*
X143418713Y-83069478D01*
X141024318Y-80675083D01*
X140990833Y-80613760D01*
X140987999Y-80587402D01*
X140987999Y-80213330D01*
X140987998Y-80213313D01*
X140977674Y-80112247D01*
X140923408Y-79948484D01*
X140832840Y-79801650D01*
X140710850Y-79679660D01*
X140710849Y-79679659D01*
X140659402Y-79647926D01*
X140612678Y-79595978D01*
X140600500Y-79542388D01*
X140600500Y-78833445D01*
X140600500Y-78833443D01*
X140559577Y-78680716D01*
X140559573Y-78680709D01*
X140480524Y-78543790D01*
X140480521Y-78543786D01*
X140480520Y-78543784D01*
X140368716Y-78431980D01*
X140368715Y-78431979D01*
X140364385Y-78427649D01*
X140364374Y-78427639D01*
X140123915Y-78187180D01*
X140090430Y-78125857D01*
X140095414Y-78056165D01*
X140137286Y-78000232D01*
X140202750Y-77975815D01*
X140211596Y-77975499D01*
X140211670Y-77975499D01*
X140211676Y-77975499D01*
X140312753Y-77965174D01*
X140476516Y-77910908D01*
X140623350Y-77820340D01*
X140745340Y-77698350D01*
X140835908Y-77551516D01*
X140890174Y-77387753D01*
X140900500Y-77286677D01*
X140900499Y-76713324D01*
X140890174Y-76612247D01*
X140835908Y-76448484D01*
X140745340Y-76301650D01*
X140623350Y-76179660D01*
X140476516Y-76089092D01*
X140312753Y-76034826D01*
X140312751Y-76034825D01*
X140211684Y-76024500D01*
X140211677Y-76024500D01*
X139837598Y-76024500D01*
X139770559Y-76004815D01*
X139749917Y-75988181D01*
X139211819Y-75450083D01*
X139178334Y-75388760D01*
X139175500Y-75362402D01*
X139175500Y-74342897D01*
X139195185Y-74275858D01*
X139247989Y-74230103D01*
X139317147Y-74220159D01*
X139380703Y-74249184D01*
G37*
%TD.AperFunction*%
%TA.AperFunction,Conductor*%
G36*
X143042539Y-72825085D02*
G01*
X143088294Y-72877889D01*
X143099500Y-72929400D01*
X143099500Y-73286669D01*
X143099501Y-73286687D01*
X143109825Y-73387752D01*
X143146109Y-73497249D01*
X143164092Y-73551516D01*
X143254660Y-73698350D01*
X143376650Y-73820340D01*
X143478096Y-73882912D01*
X143524821Y-73934860D01*
X143537000Y-73988451D01*
X143537000Y-75900500D01*
X143517315Y-75967539D01*
X143464511Y-76013294D01*
X143413003Y-76024500D01*
X143375832Y-76024500D01*
X143375812Y-76024501D01*
X143274747Y-76034825D01*
X143110981Y-76089093D01*
X143076013Y-76110661D01*
X143008620Y-76129100D01*
X142941957Y-76108176D01*
X142923238Y-76092802D01*
X141928238Y-75097802D01*
X140918107Y-74087672D01*
X140884623Y-74026350D01*
X140889607Y-73956658D01*
X140931479Y-73900725D01*
X140940685Y-73894458D01*
X141060850Y-73820340D01*
X141182840Y-73698350D01*
X141273408Y-73551516D01*
X141327674Y-73387753D01*
X141338000Y-73286677D01*
X141337999Y-72929399D01*
X141357683Y-72862361D01*
X141410487Y-72816606D01*
X141461999Y-72805400D01*
X142975500Y-72805400D01*
X143042539Y-72825085D01*
G37*
%TD.AperFunction*%
%TA.AperFunction,Conductor*%
G36*
X148017239Y-72953203D02*
G01*
X146347789Y-71283754D01*
X146347788Y-71283752D01*
X146228917Y-71164881D01*
X146228916Y-71164880D01*
X146142104Y-71114760D01*
X146142104Y-71114759D01*
X146142100Y-71114758D01*
X146091985Y-71085823D01*
X145939257Y-71044899D01*
X145781143Y-71044899D01*
X145773547Y-71044899D01*
X145773531Y-71044900D01*
X145668498Y-71044900D01*
X145601459Y-71025215D01*
X145580817Y-71008581D01*
X144624887Y-70052651D01*
X144591402Y-69991328D01*
X144596386Y-69921636D01*
X144638258Y-69865703D01*
X144647458Y-69859440D01*
X144710850Y-69820340D01*
X144825175Y-69706014D01*
X144886494Y-69672532D01*
X144956186Y-69677516D01*
X145000534Y-69706017D01*
X145114461Y-69819944D01*
X145114465Y-69819947D01*
X145261188Y-69910448D01*
X145261199Y-69910453D01*
X145424847Y-69964680D01*
X145525851Y-69974999D01*
X146075000Y-69974999D01*
X146124140Y-69974999D01*
X146124154Y-69974998D01*
X146225152Y-69964680D01*
X146388800Y-69910453D01*
X146388811Y-69910448D01*
X146535534Y-69819947D01*
X146535538Y-69819944D01*
X146657444Y-69698038D01*
X146657447Y-69698034D01*
X146747948Y-69551311D01*
X146747953Y-69551300D01*
X146802180Y-69387652D01*
X146812499Y-69286654D01*
X146812500Y-69286641D01*
X146812500Y-69250000D01*
X146075000Y-69250000D01*
X146075000Y-69974999D01*
X145525851Y-69974999D01*
X145574999Y-69974998D01*
X145575000Y-69974998D01*
X145575000Y-68750000D01*
X146075000Y-68750000D01*
X146812499Y-68750000D01*
X146812499Y-68713360D01*
X146812498Y-68713345D01*
X146802180Y-68612347D01*
X146747953Y-68448699D01*
X146747948Y-68448688D01*
X146657447Y-68301965D01*
X146657444Y-68301961D01*
X146535538Y-68180055D01*
X146535534Y-68180052D01*
X146388811Y-68089551D01*
X146388800Y-68089546D01*
X146225152Y-68035319D01*
X146124154Y-68025000D01*
X146075000Y-68025000D01*
X146075000Y-68750000D01*
X145575000Y-68750000D01*
X145575000Y-68025000D01*
X145574999Y-68024999D01*
X145525861Y-68025000D01*
X145525843Y-68025001D01*
X145424847Y-68035319D01*
X145261199Y-68089546D01*
X145261188Y-68089551D01*
X145114465Y-68180052D01*
X145000534Y-68293983D01*
X144939211Y-68327467D01*
X144869519Y-68322483D01*
X144825172Y-68293982D01*
X144710851Y-68179661D01*
X144710850Y-68179660D01*
X144619629Y-68123395D01*
X144564018Y-68089093D01*
X144564013Y-68089091D01*
X144562569Y-68088612D01*
X144400253Y-68034826D01*
X144400250Y-68034825D01*
X144334438Y-68028102D01*
X144269746Y-68001706D01*
X144259360Y-67992425D01*
X140796990Y-64530055D01*
X140796988Y-64530052D01*
X140678117Y-64411181D01*
X140678116Y-64411180D01*
X140566792Y-64346907D01*
X140566792Y-64346906D01*
X140566789Y-64346906D01*
X140541185Y-64332123D01*
X140388457Y-64291199D01*
X140230343Y-64291199D01*
X140222747Y-64291199D01*
X140222731Y-64291200D01*
X138741570Y-64291200D01*
X138741554Y-64291199D01*
X138733958Y-64291199D01*
X138575843Y-64291199D01*
X138435636Y-64328767D01*
X138423111Y-64332124D01*
X138291820Y-64407926D01*
X138223920Y-64424399D01*
X138157893Y-64401547D01*
X138114702Y-64346625D01*
X138108061Y-64277072D01*
X138110040Y-64268464D01*
X138164010Y-64067047D01*
X138201828Y-63779794D01*
X138201828Y-63719530D01*
X148132800Y-63550800D01*
X148017239Y-72953203D01*
G37*
%TD.AperFunction*%
%TD*%
%TA.AperFunction,Conductor*%
%TO.N,GND*%
G36*
X156376164Y-61020185D02*
G01*
X156421919Y-61072989D01*
X156431863Y-61142147D01*
X156402838Y-61205703D01*
X156344060Y-61243477D01*
X156325312Y-61247438D01*
X156235081Y-61259318D01*
X155955222Y-61334305D01*
X155687547Y-61445180D01*
X155687536Y-61445185D01*
X155436624Y-61590051D01*
X155206770Y-61766423D01*
X155206763Y-61766429D01*
X155001901Y-61971291D01*
X155001895Y-61971298D01*
X154825523Y-62201152D01*
X154680657Y-62452064D01*
X154680652Y-62452075D01*
X154569777Y-62719750D01*
X154494790Y-62999609D01*
X154456972Y-63286854D01*
X154456972Y-63576601D01*
X154483723Y-63779787D01*
X154494790Y-63863847D01*
X154522237Y-63966281D01*
X154569777Y-64143705D01*
X154680652Y-64411380D01*
X154680657Y-64411391D01*
X154749167Y-64530052D01*
X154825520Y-64662299D01*
X154825522Y-64662302D01*
X154825523Y-64662303D01*
X155001895Y-64892157D01*
X155001901Y-64892164D01*
X155206763Y-65097026D01*
X155206769Y-65097031D01*
X155436629Y-65273408D01*
X155597893Y-65366514D01*
X155687536Y-65418270D01*
X155687541Y-65418272D01*
X155687544Y-65418274D01*
X155955221Y-65529150D01*
X156235081Y-65604138D01*
X156522334Y-65641956D01*
X156522341Y-65641956D01*
X156812059Y-65641956D01*
X156812066Y-65641956D01*
X157099319Y-65604138D01*
X157379179Y-65529150D01*
X157646856Y-65418274D01*
X157897771Y-65273408D01*
X158127631Y-65097031D01*
X158332503Y-64892159D01*
X158508880Y-64662299D01*
X158653746Y-64411384D01*
X158764622Y-64143707D01*
X158839610Y-63863847D01*
X158877428Y-63576594D01*
X158877428Y-63286862D01*
X158839610Y-62999609D01*
X158764622Y-62719749D01*
X158653746Y-62452072D01*
X158653744Y-62452069D01*
X158653742Y-62452064D01*
X158601986Y-62362421D01*
X158508880Y-62201157D01*
X158332503Y-61971297D01*
X158332498Y-61971291D01*
X158127636Y-61766429D01*
X158127629Y-61766423D01*
X157897775Y-61590051D01*
X157897774Y-61590050D01*
X157897771Y-61590048D01*
X157797732Y-61532290D01*
X157646863Y-61445185D01*
X157646852Y-61445180D01*
X157379177Y-61334305D01*
X157201753Y-61286765D01*
X157099319Y-61259318D01*
X157009088Y-61247438D01*
X156945193Y-61219172D01*
X156906722Y-61160848D01*
X156905891Y-61090983D01*
X156942963Y-61031760D01*
X157006169Y-61001981D01*
X157025275Y-61000500D01*
X159625500Y-61000500D01*
X159692539Y-61020185D01*
X159738294Y-61072989D01*
X159749500Y-61124500D01*
X159749500Y-121375500D01*
X159729815Y-121442539D01*
X159677011Y-121488294D01*
X159625500Y-121499500D01*
X133374500Y-121499500D01*
X133307461Y-121479815D01*
X133261706Y-121427011D01*
X133250500Y-121375500D01*
X133250500Y-118855126D01*
X133789772Y-118855126D01*
X133789772Y-119144873D01*
X133827590Y-119432118D01*
X133902577Y-119711977D01*
X134013452Y-119979652D01*
X134013457Y-119979663D01*
X134043118Y-120031036D01*
X134158320Y-120230571D01*
X134158322Y-120230574D01*
X134158323Y-120230575D01*
X134334695Y-120460429D01*
X134334701Y-120460436D01*
X134539563Y-120665298D01*
X134539569Y-120665303D01*
X134769429Y-120841680D01*
X134930693Y-120934786D01*
X135020336Y-120986542D01*
X135020341Y-120986544D01*
X135020344Y-120986546D01*
X135288021Y-121097422D01*
X135567881Y-121172410D01*
X135855134Y-121210228D01*
X135855141Y-121210228D01*
X136144859Y-121210228D01*
X136144866Y-121210228D01*
X136432119Y-121172410D01*
X136711979Y-121097422D01*
X136979656Y-120986546D01*
X137230571Y-120841680D01*
X137460431Y-120665303D01*
X137665303Y-120460431D01*
X137841680Y-120230571D01*
X137986546Y-119979656D01*
X138097422Y-119711979D01*
X138172410Y-119432119D01*
X138210228Y-119144866D01*
X138210228Y-118855134D01*
X138210227Y-118855126D01*
X154456972Y-118855126D01*
X154456972Y-119144873D01*
X154494790Y-119432118D01*
X154569777Y-119711977D01*
X154680652Y-119979652D01*
X154680657Y-119979663D01*
X154710318Y-120031036D01*
X154825520Y-120230571D01*
X154825522Y-120230574D01*
X154825523Y-120230575D01*
X155001895Y-120460429D01*
X155001901Y-120460436D01*
X155206763Y-120665298D01*
X155206769Y-120665303D01*
X155436629Y-120841680D01*
X155597893Y-120934786D01*
X155687536Y-120986542D01*
X155687541Y-120986544D01*
X155687544Y-120986546D01*
X155955221Y-121097422D01*
X156235081Y-121172410D01*
X156522334Y-121210228D01*
X156522341Y-121210228D01*
X156812059Y-121210228D01*
X156812066Y-121210228D01*
X157099319Y-121172410D01*
X157379179Y-121097422D01*
X157646856Y-120986546D01*
X157897771Y-120841680D01*
X158127631Y-120665303D01*
X158332503Y-120460431D01*
X158508880Y-120230571D01*
X158653746Y-119979656D01*
X158764622Y-119711979D01*
X158839610Y-119432119D01*
X158877428Y-119144866D01*
X158877428Y-118855134D01*
X158839610Y-118567881D01*
X158764622Y-118288021D01*
X158653746Y-118020344D01*
X158653744Y-118020341D01*
X158653742Y-118020336D01*
X158601986Y-117930693D01*
X158508880Y-117769429D01*
X158332503Y-117539569D01*
X158332498Y-117539563D01*
X158127636Y-117334701D01*
X158127629Y-117334695D01*
X157897775Y-117158323D01*
X157897774Y-117158322D01*
X157897771Y-117158320D01*
X157797732Y-117100562D01*
X157646863Y-117013457D01*
X157646852Y-117013452D01*
X157379177Y-116902577D01*
X157201753Y-116855037D01*
X157099319Y-116827590D01*
X157063412Y-116822862D01*
X156812073Y-116789772D01*
X156812066Y-116789772D01*
X156522334Y-116789772D01*
X156522326Y-116789772D01*
X156235081Y-116827590D01*
X155955222Y-116902577D01*
X155687547Y-117013452D01*
X155687536Y-117013457D01*
X155436624Y-117158323D01*
X155206770Y-117334695D01*
X155206763Y-117334701D01*
X155001901Y-117539563D01*
X155001895Y-117539570D01*
X154825523Y-117769424D01*
X154680657Y-118020336D01*
X154680652Y-118020347D01*
X154569777Y-118288022D01*
X154494790Y-118567881D01*
X154456972Y-118855126D01*
X138210227Y-118855126D01*
X138172410Y-118567881D01*
X138097422Y-118288021D01*
X137986546Y-118020344D01*
X137986544Y-118020341D01*
X137986542Y-118020336D01*
X137934786Y-117930693D01*
X137841680Y-117769429D01*
X137665303Y-117539569D01*
X137665298Y-117539563D01*
X137460436Y-117334701D01*
X137460429Y-117334695D01*
X137230575Y-117158323D01*
X137230574Y-117158322D01*
X137230571Y-117158320D01*
X137130532Y-117100562D01*
X136979663Y-117013457D01*
X136979652Y-117013452D01*
X136711977Y-116902577D01*
X136534553Y-116855037D01*
X136432119Y-116827590D01*
X136396212Y-116822862D01*
X136144873Y-116789772D01*
X136144866Y-116789772D01*
X135855134Y-116789772D01*
X135855126Y-116789772D01*
X135567881Y-116827590D01*
X135288022Y-116902577D01*
X135020347Y-117013452D01*
X135020336Y-117013457D01*
X134769424Y-117158323D01*
X134539570Y-117334695D01*
X134539563Y-117334701D01*
X134334701Y-117539563D01*
X134334695Y-117539570D01*
X134158323Y-117769424D01*
X134013457Y-118020336D01*
X134013452Y-118020347D01*
X133902577Y-118288022D01*
X133827590Y-118567881D01*
X133789772Y-118855126D01*
X133250500Y-118855126D01*
X133250500Y-108538210D01*
X140899600Y-108793789D01*
X140899600Y-110961730D01*
X140899599Y-110961748D01*
X140899599Y-111127454D01*
X140899598Y-111127454D01*
X140940523Y-111280185D01*
X140969458Y-111330300D01*
X140969459Y-111330304D01*
X140969460Y-111330304D01*
X141019579Y-111417114D01*
X141019581Y-111417117D01*
X141138449Y-111535985D01*
X141138454Y-111535989D01*
X141283603Y-111681139D01*
X141317088Y-111742461D01*
X141312104Y-111812153D01*
X141283603Y-111856500D01*
X141156398Y-111983705D01*
X141095075Y-112017190D01*
X141025383Y-112012206D01*
X140969450Y-111970334D01*
X140963178Y-111961120D01*
X140867712Y-111806344D01*
X140743657Y-111682289D01*
X140743656Y-111682288D01*
X140594334Y-111590186D01*
X140427797Y-111535001D01*
X140427795Y-111535000D01*
X140325010Y-111524500D01*
X139024998Y-111524500D01*
X139024981Y-111524501D01*
X138922203Y-111535000D01*
X138922200Y-111535001D01*
X138755668Y-111590185D01*
X138755663Y-111590187D01*
X138606342Y-111682289D01*
X138482289Y-111806342D01*
X138390187Y-111955663D01*
X138390185Y-111955668D01*
X138385325Y-111970334D01*
X138335001Y-112122203D01*
X138335001Y-112122204D01*
X138335000Y-112122204D01*
X138324500Y-112224983D01*
X138324500Y-113775001D01*
X138324501Y-113775018D01*
X138335000Y-113877796D01*
X138335001Y-113877799D01*
X138377081Y-114004786D01*
X138390186Y-114044334D01*
X138482288Y-114193656D01*
X138606344Y-114317712D01*
X138755666Y-114409814D01*
X138922203Y-114464999D01*
X139024991Y-114475500D01*
X140249902Y-114475499D01*
X140279342Y-114484143D01*
X140309329Y-114490667D01*
X140314344Y-114494421D01*
X140316941Y-114495184D01*
X140337583Y-114511818D01*
X140487939Y-114662174D01*
X140487949Y-114662185D01*
X140492279Y-114666515D01*
X140492280Y-114666516D01*
X140604084Y-114778320D01*
X140604086Y-114778321D01*
X140604090Y-114778324D01*
X140741009Y-114857373D01*
X140741016Y-114857377D01*
X140852819Y-114887334D01*
X140893742Y-114898300D01*
X140893743Y-114898300D01*
X142576831Y-114898300D01*
X142576847Y-114898301D01*
X142584443Y-114898301D01*
X142742554Y-114898301D01*
X142742557Y-114898301D01*
X142895285Y-114857377D01*
X142945404Y-114828439D01*
X143032216Y-114778320D01*
X143144020Y-114666516D01*
X143144020Y-114666514D01*
X143154228Y-114656307D01*
X143154230Y-114656304D01*
X143639364Y-114171169D01*
X143700685Y-114137686D01*
X143770377Y-114142670D01*
X143799928Y-114158534D01*
X143948431Y-114266426D01*
X143967184Y-114280051D01*
X144156588Y-114376557D01*
X144358757Y-114442246D01*
X144568713Y-114475500D01*
X144568714Y-114475500D01*
X144781286Y-114475500D01*
X144781287Y-114475500D01*
X144991243Y-114442246D01*
X145193412Y-114376557D01*
X145382816Y-114280051D01*
X145404789Y-114264086D01*
X145554786Y-114155109D01*
X145554788Y-114155106D01*
X145554792Y-114155104D01*
X145705104Y-114004792D01*
X145705106Y-114004788D01*
X145705109Y-114004786D01*
X145830048Y-113832820D01*
X145830047Y-113832820D01*
X145830051Y-113832816D01*
X145926557Y-113643412D01*
X145926557Y-113643409D01*
X145928769Y-113639070D01*
X145930230Y-113639814D01*
X145944789Y-113621737D01*
X145961982Y-113596690D01*
X145967053Y-113594096D01*
X145969561Y-113590983D01*
X145992238Y-113578517D01*
X146000032Y-113575238D01*
X146058485Y-113559577D01*
X146108604Y-113530639D01*
X146195416Y-113480520D01*
X146307220Y-113368716D01*
X146307220Y-113368714D01*
X146317428Y-113358507D01*
X146317430Y-113358504D01*
X146804913Y-112871021D01*
X146804916Y-112871020D01*
X146916720Y-112759216D01*
X146925150Y-112744611D01*
X146935430Y-112733850D01*
X146936195Y-112733408D01*
X146937413Y-112731821D01*
X147215816Y-112453419D01*
X147277139Y-112419934D01*
X147303497Y-112417100D01*
X153338331Y-112417100D01*
X153338347Y-112417101D01*
X153345943Y-112417101D01*
X153504054Y-112417101D01*
X153504057Y-112417101D01*
X153656785Y-112376177D01*
X153721078Y-112339057D01*
X153793716Y-112297120D01*
X153905520Y-112185316D01*
X153905520Y-112185314D01*
X153915724Y-112175111D01*
X153915728Y-112175106D01*
X155358506Y-110732328D01*
X155358511Y-110732324D01*
X155368714Y-110722120D01*
X155368716Y-110722120D01*
X155480520Y-110610316D01*
X155559577Y-110473384D01*
X155600500Y-110320657D01*
X155600500Y-105645908D01*
X155620185Y-105578869D01*
X155664271Y-105540363D01*
X155663187Y-105538605D01*
X155669332Y-105534814D01*
X155669334Y-105534814D01*
X155818656Y-105442712D01*
X155942712Y-105318656D01*
X156034814Y-105169334D01*
X156089999Y-105002797D01*
X156100500Y-104900009D01*
X156100499Y-103099992D01*
X156089999Y-102997203D01*
X156034814Y-102830666D01*
X155942712Y-102681344D01*
X155818656Y-102557288D01*
X155669334Y-102465186D01*
X155502797Y-102410001D01*
X155502795Y-102410000D01*
X155400010Y-102399500D01*
X154599998Y-102399500D01*
X154599980Y-102399501D01*
X154497203Y-102410000D01*
X154497200Y-102410001D01*
X154330668Y-102465185D01*
X154330663Y-102465187D01*
X154181342Y-102557289D01*
X154057289Y-102681342D01*
X153965187Y-102830663D01*
X153965186Y-102830666D01*
X153910001Y-102997203D01*
X153910001Y-102997204D01*
X153910000Y-102997204D01*
X153899500Y-103099983D01*
X153899500Y-104900001D01*
X153899501Y-104900018D01*
X153910000Y-105002796D01*
X153910001Y-105002799D01*
X153965185Y-105169331D01*
X153965186Y-105169334D01*
X154057288Y-105318656D01*
X154181344Y-105442712D01*
X154330666Y-105534814D01*
X154330667Y-105534814D01*
X154336813Y-105538605D01*
X154335706Y-105540399D01*
X154380337Y-105579687D01*
X154399500Y-105645908D01*
X154399500Y-109941503D01*
X154379815Y-110008542D01*
X154363181Y-110029184D01*
X153212584Y-111179781D01*
X153151261Y-111213266D01*
X153124903Y-111216100D01*
X147160700Y-111216100D01*
X147093661Y-111196415D01*
X147047906Y-111143611D01*
X147036700Y-111092100D01*
X147036700Y-108998847D01*
X147574000Y-109016800D01*
X147874500Y-84567027D01*
X147874500Y-101948330D01*
X147874499Y-101948348D01*
X147874499Y-102114054D01*
X147874498Y-102114054D01*
X147915423Y-102266785D01*
X147944358Y-102316900D01*
X147944359Y-102316904D01*
X147944360Y-102316904D01*
X147994479Y-102403714D01*
X147994481Y-102403717D01*
X148113349Y-102522585D01*
X148113355Y-102522590D01*
X149303181Y-103712417D01*
X149336666Y-103773740D01*
X149339500Y-103800098D01*
X149339500Y-104900001D01*
X149339501Y-104900018D01*
X149350000Y-105002796D01*
X149350001Y-105002799D01*
X149405185Y-105169331D01*
X149405186Y-105169334D01*
X149497288Y-105318656D01*
X149621344Y-105442712D01*
X149770666Y-105534814D01*
X149937203Y-105589999D01*
X150039991Y-105600500D01*
X150840008Y-105600499D01*
X150840016Y-105600498D01*
X150840019Y-105600498D01*
X150896302Y-105594748D01*
X150942797Y-105589999D01*
X151109334Y-105534814D01*
X151258656Y-105442712D01*
X151382712Y-105318656D01*
X151474814Y-105169334D01*
X151529999Y-105002797D01*
X151540500Y-104900009D01*
X151540499Y-103099992D01*
X151529999Y-102997203D01*
X151474814Y-102830666D01*
X151382712Y-102681344D01*
X151258656Y-102557288D01*
X151109334Y-102465186D01*
X150942797Y-102410001D01*
X150942795Y-102410000D01*
X150840010Y-102399500D01*
X150039998Y-102399500D01*
X150039980Y-102399501D01*
X149937203Y-102410000D01*
X149937200Y-102410001D01*
X149831066Y-102445171D01*
X149761237Y-102447573D01*
X149704381Y-102415146D01*
X149111819Y-101822583D01*
X149078334Y-101761260D01*
X149075500Y-101734902D01*
X149075500Y-100745485D01*
X149095185Y-100678446D01*
X149147989Y-100632691D01*
X149217147Y-100622747D01*
X149280703Y-100651772D01*
X149318477Y-100710550D01*
X149322858Y-100732882D01*
X149330001Y-100802801D01*
X149385184Y-100969333D01*
X149385189Y-100969344D01*
X149477285Y-101118653D01*
X149477288Y-101118657D01*
X149601342Y-101242711D01*
X149601346Y-101242714D01*
X149750655Y-101334810D01*
X149750658Y-101334811D01*
X149750664Y-101334815D01*
X149917200Y-101389999D01*
X150019988Y-101400500D01*
X150019993Y-101400500D01*
X155420007Y-101400500D01*
X155420012Y-101400500D01*
X155522800Y-101389999D01*
X155689336Y-101334815D01*
X155838657Y-101242712D01*
X155962712Y-101118657D01*
X156054815Y-100969336D01*
X156109999Y-100802800D01*
X156120500Y-100700012D01*
X156120500Y-94699988D01*
X156109999Y-94597200D01*
X156054815Y-94430664D01*
X156054811Y-94430658D01*
X156054810Y-94430655D01*
X155962714Y-94281346D01*
X155962711Y-94281342D01*
X155838657Y-94157288D01*
X155838653Y-94157285D01*
X155689344Y-94065189D01*
X155689338Y-94065186D01*
X155689336Y-94065185D01*
X155689333Y-94065184D01*
X155522801Y-94010001D01*
X155420019Y-93999500D01*
X155420012Y-93999500D01*
X153004500Y-93999500D01*
X152937461Y-93979815D01*
X152891706Y-93927011D01*
X152880500Y-93875500D01*
X152880500Y-92124500D01*
X152900185Y-92057461D01*
X152952989Y-92011706D01*
X153004500Y-92000500D01*
X154980007Y-92000500D01*
X154980012Y-92000500D01*
X155082800Y-91989999D01*
X155249336Y-91934815D01*
X155398657Y-91842712D01*
X155522712Y-91718657D01*
X155614815Y-91569336D01*
X155669999Y-91402800D01*
X155680500Y-91300012D01*
X155680500Y-85299988D01*
X155669999Y-85197200D01*
X155614815Y-85030664D01*
X155614811Y-85030658D01*
X155614810Y-85030655D01*
X155522714Y-84881346D01*
X155522711Y-84881342D01*
X155398657Y-84757288D01*
X155398653Y-84757285D01*
X155249344Y-84665189D01*
X155249338Y-84665186D01*
X155249336Y-84665185D01*
X155165715Y-84637476D01*
X155082801Y-84610001D01*
X154980019Y-84599500D01*
X154980012Y-84599500D01*
X149579988Y-84599500D01*
X149579980Y-84599500D01*
X149477198Y-84610001D01*
X149310666Y-84665184D01*
X149310661Y-84665186D01*
X149277100Y-84685887D01*
X149264596Y-84693600D01*
X149197205Y-84712040D01*
X149130541Y-84691118D01*
X149085771Y-84637476D01*
X149075500Y-84588061D01*
X149075500Y-83599013D01*
X149095185Y-83531974D01*
X149147989Y-83486219D01*
X149217147Y-83476275D01*
X149264598Y-83493475D01*
X149330873Y-83534355D01*
X149330880Y-83534358D01*
X149497302Y-83589505D01*
X149497309Y-83589506D01*
X149600019Y-83599999D01*
X149749999Y-83599999D01*
X150250000Y-83599999D01*
X150399972Y-83599999D01*
X150399986Y-83599998D01*
X150502697Y-83589505D01*
X150669119Y-83534358D01*
X150669124Y-83534356D01*
X150818345Y-83442315D01*
X150942315Y-83318345D01*
X151034356Y-83169124D01*
X151034358Y-83169119D01*
X151089505Y-83002697D01*
X151089506Y-83002690D01*
X151099999Y-82899986D01*
X151100000Y-82899973D01*
X151100000Y-82250000D01*
X150250000Y-82250000D01*
X150250000Y-83599999D01*
X149749999Y-83599999D01*
X149750000Y-83599998D01*
X149750000Y-81750000D01*
X150250000Y-81750000D01*
X151099999Y-81750000D01*
X151099999Y-81100028D01*
X151099998Y-81100013D01*
X151089505Y-80997302D01*
X151034358Y-80830880D01*
X151034356Y-80830875D01*
X150942315Y-80681654D01*
X150818345Y-80557684D01*
X150669124Y-80465643D01*
X150669119Y-80465641D01*
X150502697Y-80410494D01*
X150502690Y-80410493D01*
X150399986Y-80400000D01*
X150250000Y-80400000D01*
X150250000Y-81750000D01*
X149750000Y-81750000D01*
X149750000Y-80400000D01*
X149600027Y-80400000D01*
X149600012Y-80400001D01*
X149497302Y-80410494D01*
X149330880Y-80465641D01*
X149330875Y-80465643D01*
X149264597Y-80506525D01*
X149197204Y-80524965D01*
X149130541Y-80504042D01*
X149085771Y-80450401D01*
X149075500Y-80400986D01*
X149075500Y-74349260D01*
X149075501Y-74349247D01*
X149075501Y-74181144D01*
X149034576Y-74028414D01*
X149034573Y-74028409D01*
X148955524Y-73891490D01*
X148955518Y-73891482D01*
X148017239Y-72953204D01*
X148044126Y-70765553D01*
X149454300Y-70765553D01*
X149454300Y-70923246D01*
X149485061Y-71077889D01*
X149485064Y-71077901D01*
X149545402Y-71223572D01*
X149545409Y-71223585D01*
X149633402Y-71355274D01*
X149654280Y-71421951D01*
X149654300Y-71424165D01*
X149654300Y-77608130D01*
X149654299Y-77608148D01*
X149654299Y-77773854D01*
X149654298Y-77773854D01*
X149695223Y-77926585D01*
X149717501Y-77965170D01*
X149717502Y-77965174D01*
X149774275Y-78063509D01*
X149774281Y-78063517D01*
X149893149Y-78182385D01*
X149893155Y-78182390D01*
X153423181Y-81712416D01*
X153456666Y-81773739D01*
X153459500Y-81800097D01*
X153459500Y-82900001D01*
X153459501Y-82900018D01*
X153470000Y-83002796D01*
X153470001Y-83002799D01*
X153511683Y-83128585D01*
X153525186Y-83169334D01*
X153617288Y-83318656D01*
X153741344Y-83442712D01*
X153890666Y-83534814D01*
X154057203Y-83589999D01*
X154159991Y-83600500D01*
X154960008Y-83600499D01*
X154960016Y-83600498D01*
X154960019Y-83600498D01*
X155016302Y-83594748D01*
X155062797Y-83589999D01*
X155229334Y-83534814D01*
X155378656Y-83442712D01*
X155502712Y-83318656D01*
X155594814Y-83169334D01*
X155649999Y-83002797D01*
X155660500Y-82900009D01*
X155660499Y-81099992D01*
X155649999Y-80997203D01*
X155594814Y-80830666D01*
X155502712Y-80681344D01*
X155378656Y-80557288D01*
X155229334Y-80465186D01*
X155062797Y-80410001D01*
X155062795Y-80410000D01*
X154960010Y-80399500D01*
X154159998Y-80399500D01*
X154159980Y-80399501D01*
X154057203Y-80410000D01*
X154057200Y-80410001D01*
X153951066Y-80445171D01*
X153881237Y-80447573D01*
X153824381Y-80415146D01*
X150891619Y-77482384D01*
X150858134Y-77421061D01*
X150855300Y-77394703D01*
X150855300Y-71424165D01*
X150874985Y-71357126D01*
X150876198Y-71355274D01*
X150964190Y-71223585D01*
X150964190Y-71223584D01*
X150964194Y-71223579D01*
X151024537Y-71077897D01*
X151055300Y-70923242D01*
X151055300Y-70765558D01*
X151055300Y-70765555D01*
X151031954Y-70648191D01*
X151038181Y-70578599D01*
X151081044Y-70523422D01*
X151146933Y-70500177D01*
X151153571Y-70499999D01*
X151649972Y-70499999D01*
X151649986Y-70499998D01*
X151752697Y-70489505D01*
X151919119Y-70434358D01*
X151919124Y-70434356D01*
X152068345Y-70342315D01*
X152192317Y-70218343D01*
X152287815Y-70063516D01*
X152339763Y-70016791D01*
X152408725Y-70005568D01*
X152472808Y-70033412D01*
X152481035Y-70040931D01*
X152620213Y-70180109D01*
X152792179Y-70305048D01*
X152792181Y-70305049D01*
X152792184Y-70305051D01*
X152981588Y-70401557D01*
X153183757Y-70467246D01*
X153393713Y-70500500D01*
X153393714Y-70500500D01*
X153606286Y-70500500D01*
X153606287Y-70500500D01*
X153816243Y-70467246D01*
X154018412Y-70401557D01*
X154207816Y-70305051D01*
X154257493Y-70268959D01*
X154379786Y-70180109D01*
X154379788Y-70180106D01*
X154379792Y-70180104D01*
X154530104Y-70029792D01*
X154530106Y-70029788D01*
X154530109Y-70029786D01*
X154655048Y-69857820D01*
X154655047Y-69857820D01*
X154655051Y-69857816D01*
X154751557Y-69668412D01*
X154817246Y-69466243D01*
X154850500Y-69256287D01*
X154850500Y-68743713D01*
X154817246Y-68533757D01*
X154751557Y-68331588D01*
X154655051Y-68142184D01*
X154655049Y-68142181D01*
X154655048Y-68142179D01*
X154530109Y-67970213D01*
X154379786Y-67819890D01*
X154207820Y-67694951D01*
X154018414Y-67598444D01*
X154018413Y-67598443D01*
X154018412Y-67598443D01*
X153816243Y-67532754D01*
X153816241Y-67532753D01*
X153816240Y-67532753D01*
X153654957Y-67507208D01*
X153606287Y-67499500D01*
X153393713Y-67499500D01*
X153345042Y-67507208D01*
X153183760Y-67532753D01*
X152981585Y-67598444D01*
X152792179Y-67694951D01*
X152620215Y-67819889D01*
X152481035Y-67959069D01*
X152419712Y-67992553D01*
X152350020Y-67987569D01*
X152294087Y-67945697D01*
X152287815Y-67936484D01*
X152192315Y-67781654D01*
X152068345Y-67657684D01*
X151919124Y-67565643D01*
X151919119Y-67565641D01*
X151752697Y-67510494D01*
X151752690Y-67510493D01*
X151649986Y-67500000D01*
X151250000Y-67500000D01*
X151250000Y-68566988D01*
X151192993Y-68534075D01*
X151065826Y-68500000D01*
X150934174Y-68500000D01*
X150807007Y-68534075D01*
X150750000Y-68566988D01*
X150750000Y-67500000D01*
X150350028Y-67500000D01*
X150350012Y-67500001D01*
X150247302Y-67510494D01*
X150080880Y-67565641D01*
X150080875Y-67565643D01*
X149931654Y-67657684D01*
X149807684Y-67781654D01*
X149715643Y-67930875D01*
X149715641Y-67930880D01*
X149660494Y-68097302D01*
X149660493Y-68097309D01*
X149650000Y-68200013D01*
X149650000Y-68750000D01*
X150566988Y-68750000D01*
X150534075Y-68807007D01*
X150500000Y-68934174D01*
X150500000Y-69065826D01*
X150534075Y-69192993D01*
X150566988Y-69250000D01*
X149650001Y-69250000D01*
X149650001Y-69799986D01*
X149660494Y-69902697D01*
X149715641Y-70069119D01*
X149715646Y-70069128D01*
X149733739Y-70098463D01*
X149752179Y-70165856D01*
X149731256Y-70232519D01*
X149715881Y-70251240D01*
X149633013Y-70334107D01*
X149633010Y-70334111D01*
X149545409Y-70465214D01*
X149545402Y-70465227D01*
X149485064Y-70610898D01*
X149485061Y-70610910D01*
X149454300Y-70765553D01*
X148044126Y-70765553D01*
X148132800Y-63550800D01*
X138201828Y-63719530D01*
X138201828Y-63490062D01*
X138164010Y-63202809D01*
X138089022Y-62922949D01*
X137978146Y-62655272D01*
X137978144Y-62655269D01*
X137978142Y-62655264D01*
X137926386Y-62565621D01*
X137833280Y-62404357D01*
X137719374Y-62255911D01*
X137656904Y-62174498D01*
X137656898Y-62174491D01*
X137452036Y-61969629D01*
X137452029Y-61969623D01*
X137222175Y-61793251D01*
X137222174Y-61793250D01*
X137222171Y-61793248D01*
X137122132Y-61735490D01*
X136971263Y-61648385D01*
X136971252Y-61648380D01*
X136703577Y-61537505D01*
X136526153Y-61489965D01*
X136423719Y-61462518D01*
X136387812Y-61457790D01*
X136136473Y-61424700D01*
X136136466Y-61424700D01*
X135846734Y-61424700D01*
X135846726Y-61424700D01*
X135559481Y-61462518D01*
X135279622Y-61537505D01*
X135011947Y-61648380D01*
X135011936Y-61648385D01*
X134761024Y-61793251D01*
X134531170Y-61969623D01*
X134531163Y-61969629D01*
X134326301Y-62174491D01*
X134326295Y-62174498D01*
X134149923Y-62404352D01*
X134005057Y-62655264D01*
X134005052Y-62655275D01*
X133894177Y-62922950D01*
X133819190Y-63202809D01*
X133781372Y-63490054D01*
X133781372Y-63779801D01*
X133783320Y-63794601D01*
X133250500Y-63803654D01*
X133250500Y-61124500D01*
X133270185Y-61057461D01*
X133322989Y-61011706D01*
X133374500Y-61000500D01*
X156309125Y-61000500D01*
X156376164Y-61020185D01*
G37*
%TD.AperFunction*%
%TA.AperFunction,Conductor*%
G36*
X149226108Y-91892448D02*
G01*
X149232228Y-91892335D01*
X149264592Y-91906397D01*
X149310664Y-91934815D01*
X149477200Y-91989999D01*
X149579988Y-92000500D01*
X151555500Y-92000500D01*
X151622539Y-92020185D01*
X151668294Y-92072989D01*
X151679500Y-92124500D01*
X151679500Y-93875500D01*
X151659815Y-93942539D01*
X151607011Y-93988294D01*
X151555500Y-93999500D01*
X150019980Y-93999500D01*
X149917198Y-94010001D01*
X149750666Y-94065184D01*
X149750655Y-94065189D01*
X149601346Y-94157285D01*
X149601342Y-94157288D01*
X149477288Y-94281342D01*
X149477285Y-94281346D01*
X149385189Y-94430655D01*
X149385184Y-94430666D01*
X149330001Y-94597198D01*
X149322858Y-94667117D01*
X149296462Y-94731808D01*
X149239281Y-94771960D01*
X149169470Y-94774823D01*
X149109193Y-94739489D01*
X149077588Y-94677176D01*
X149075500Y-94654514D01*
X149075500Y-92011938D01*
X149077725Y-92004359D01*
X149076457Y-91996564D01*
X149087429Y-91971312D01*
X149095185Y-91944899D01*
X149101153Y-91939727D01*
X149104301Y-91932483D01*
X149127186Y-91917169D01*
X149147989Y-91899144D01*
X149155804Y-91898020D01*
X149162370Y-91893627D01*
X149189899Y-91893117D01*
X149217147Y-91889200D01*
X149226108Y-91892448D01*
G37*
%TD.AperFunction*%
%TD*%
M02*
