M48
; DRILL file {KiCad 9.0.4} date 2025-10-23T14:08:30-0400
; FORMAT={-:-/ absolute / metric / decimal}
; #@! TF.CreationDate,2025-10-23T14:08:30-04:00
; #@! TF.GenerationSoftware,Kicad,Pcbnew,9.0.4
; #@! TF.FileFunction,Plated,1,2,PTH
FMAT,2
METRIC
; #@! TA.AperFunction,Plated,PTH,ViaDrill
T1C0.300
; #@! TA.AperFunction,Plated,PTH,ComponentDrill
T2C0.950
; #@! TA.AperFunction,Plated,PTH,ComponentDrill
T3C1.000
%
G90
G05
T1
X134.315Y-91.186
X134.315Y-99.111
X134.366Y-69.342
X134.468Y-76.149
X134.468Y-84.226
X134.823Y-108.864
X138.938Y-94.031
X140.36Y-87.528
X140.818Y-62.89
X141.478Y-83.312
X142.088Y-78.283
X142.189Y-80.874
X142.228Y-70.776
X142.596Y-73.812
X145.369Y-75.807
X145.542Y-64.364
X147.32Y-69.393
X147.32Y-80.315
X147.422Y-91.491
X147.472Y-86.919
X147.879Y-71.984
X148.184Y-106.274
X150.012Y-79.4
X150.114Y-93.116
X150.216Y-108.509
X150.255Y-70.844
X151.232Y-63.551
X152.146Y-115.316
X153.06Y-76.962
X155.042Y-75.286
X157.226Y-78.13
X157.328Y-113.894
X157.785Y-92.659
X157.785Y-109.169
X158.394Y-83.058
T2
X139.675Y-113.0
X142.175Y-113.0
X144.675Y-113.0
T3
X151.0Y-69.0
X153.5Y-69.0
M30
