%TF.GenerationSoftware,KiCad,Pcbnew,9.0.4*%
%TF.CreationDate,2025-10-23T14:08:19-04:00*%
%TF.ProjectId,BMS,424d532e-6b69-4636-9164-5f7063625858,rev?*%
%TF.SameCoordinates,Original*%
%TF.FileFunction,Legend,Bot*%
%TF.FilePolarity,Positive*%
%FSLAX46Y46*%
G04 Gerber Fmt 4.6, Leading zero omitted, Abs format (unit mm)*
G04 Created by KiCad (PCBNEW 9.0.4) date 2025-10-23 14:08:19*
%MOMM*%
%LPD*%
G01*
G04 APERTURE LIST*
%ADD10C,0.100000*%
%ADD11C,0.150000*%
%ADD12C,0.300000*%
%ADD13C,0.000000*%
G04 APERTURE END LIST*
D10*
X154807276Y-99522377D02*
X154664419Y-99569996D01*
X154664419Y-99569996D02*
X154616800Y-99617615D01*
X154616800Y-99617615D02*
X154569181Y-99712853D01*
X154569181Y-99712853D02*
X154569181Y-99855710D01*
X154569181Y-99855710D02*
X154616800Y-99950948D01*
X154616800Y-99950948D02*
X154664419Y-99998568D01*
X154664419Y-99998568D02*
X154759657Y-100046187D01*
X154759657Y-100046187D02*
X155140609Y-100046187D01*
X155140609Y-100046187D02*
X155140609Y-99046187D01*
X155140609Y-99046187D02*
X154807276Y-99046187D01*
X154807276Y-99046187D02*
X154712038Y-99093806D01*
X154712038Y-99093806D02*
X154664419Y-99141425D01*
X154664419Y-99141425D02*
X154616800Y-99236663D01*
X154616800Y-99236663D02*
X154616800Y-99331901D01*
X154616800Y-99331901D02*
X154664419Y-99427139D01*
X154664419Y-99427139D02*
X154712038Y-99474758D01*
X154712038Y-99474758D02*
X154807276Y-99522377D01*
X154807276Y-99522377D02*
X155140609Y-99522377D01*
X154140609Y-100046187D02*
X154140609Y-99046187D01*
X154140609Y-99046187D02*
X153807276Y-99760472D01*
X153807276Y-99760472D02*
X153473943Y-99046187D01*
X153473943Y-99046187D02*
X153473943Y-100046187D01*
X153045371Y-99998568D02*
X152902514Y-100046187D01*
X152902514Y-100046187D02*
X152664419Y-100046187D01*
X152664419Y-100046187D02*
X152569181Y-99998568D01*
X152569181Y-99998568D02*
X152521562Y-99950948D01*
X152521562Y-99950948D02*
X152473943Y-99855710D01*
X152473943Y-99855710D02*
X152473943Y-99760472D01*
X152473943Y-99760472D02*
X152521562Y-99665234D01*
X152521562Y-99665234D02*
X152569181Y-99617615D01*
X152569181Y-99617615D02*
X152664419Y-99569996D01*
X152664419Y-99569996D02*
X152854895Y-99522377D01*
X152854895Y-99522377D02*
X152950133Y-99474758D01*
X152950133Y-99474758D02*
X152997752Y-99427139D01*
X152997752Y-99427139D02*
X153045371Y-99331901D01*
X153045371Y-99331901D02*
X153045371Y-99236663D01*
X153045371Y-99236663D02*
X152997752Y-99141425D01*
X152997752Y-99141425D02*
X152950133Y-99093806D01*
X152950133Y-99093806D02*
X152854895Y-99046187D01*
X152854895Y-99046187D02*
X152616800Y-99046187D01*
X152616800Y-99046187D02*
X152473943Y-99093806D01*
X151331085Y-99141425D02*
X151283466Y-99093806D01*
X151283466Y-99093806D02*
X151188228Y-99046187D01*
X151188228Y-99046187D02*
X150950133Y-99046187D01*
X150950133Y-99046187D02*
X150854895Y-99093806D01*
X150854895Y-99093806D02*
X150807276Y-99141425D01*
X150807276Y-99141425D02*
X150759657Y-99236663D01*
X150759657Y-99236663D02*
X150759657Y-99331901D01*
X150759657Y-99331901D02*
X150807276Y-99474758D01*
X150807276Y-99474758D02*
X151378704Y-100046187D01*
X151378704Y-100046187D02*
X150759657Y-100046187D01*
X150378704Y-99998568D02*
X150235847Y-100046187D01*
X150235847Y-100046187D02*
X149997752Y-100046187D01*
X149997752Y-100046187D02*
X149902514Y-99998568D01*
X149902514Y-99998568D02*
X149854895Y-99950948D01*
X149854895Y-99950948D02*
X149807276Y-99855710D01*
X149807276Y-99855710D02*
X149807276Y-99760472D01*
X149807276Y-99760472D02*
X149854895Y-99665234D01*
X149854895Y-99665234D02*
X149902514Y-99617615D01*
X149902514Y-99617615D02*
X149997752Y-99569996D01*
X149997752Y-99569996D02*
X150188228Y-99522377D01*
X150188228Y-99522377D02*
X150283466Y-99474758D01*
X150283466Y-99474758D02*
X150331085Y-99427139D01*
X150331085Y-99427139D02*
X150378704Y-99331901D01*
X150378704Y-99331901D02*
X150378704Y-99236663D01*
X150378704Y-99236663D02*
X150331085Y-99141425D01*
X150331085Y-99141425D02*
X150283466Y-99093806D01*
X150283466Y-99093806D02*
X150188228Y-99046187D01*
X150188228Y-99046187D02*
X149950133Y-99046187D01*
X149950133Y-99046187D02*
X149807276Y-99093806D01*
X148616799Y-100046187D02*
X148616799Y-99046187D01*
X148616799Y-99046187D02*
X148283466Y-99760472D01*
X148283466Y-99760472D02*
X147950133Y-99046187D01*
X147950133Y-99046187D02*
X147950133Y-100046187D01*
X147331085Y-100046187D02*
X147426323Y-99998568D01*
X147426323Y-99998568D02*
X147473942Y-99950948D01*
X147473942Y-99950948D02*
X147521561Y-99855710D01*
X147521561Y-99855710D02*
X147521561Y-99569996D01*
X147521561Y-99569996D02*
X147473942Y-99474758D01*
X147473942Y-99474758D02*
X147426323Y-99427139D01*
X147426323Y-99427139D02*
X147331085Y-99379520D01*
X147331085Y-99379520D02*
X147188228Y-99379520D01*
X147188228Y-99379520D02*
X147092990Y-99427139D01*
X147092990Y-99427139D02*
X147045371Y-99474758D01*
X147045371Y-99474758D02*
X146997752Y-99569996D01*
X146997752Y-99569996D02*
X146997752Y-99855710D01*
X146997752Y-99855710D02*
X147045371Y-99950948D01*
X147045371Y-99950948D02*
X147092990Y-99998568D01*
X147092990Y-99998568D02*
X147188228Y-100046187D01*
X147188228Y-100046187D02*
X147331085Y-100046187D01*
X146140609Y-100046187D02*
X146140609Y-99046187D01*
X146140609Y-99998568D02*
X146235847Y-100046187D01*
X146235847Y-100046187D02*
X146426323Y-100046187D01*
X146426323Y-100046187D02*
X146521561Y-99998568D01*
X146521561Y-99998568D02*
X146569180Y-99950948D01*
X146569180Y-99950948D02*
X146616799Y-99855710D01*
X146616799Y-99855710D02*
X146616799Y-99569996D01*
X146616799Y-99569996D02*
X146569180Y-99474758D01*
X146569180Y-99474758D02*
X146521561Y-99427139D01*
X146521561Y-99427139D02*
X146426323Y-99379520D01*
X146426323Y-99379520D02*
X146235847Y-99379520D01*
X146235847Y-99379520D02*
X146140609Y-99427139D01*
X145235847Y-99379520D02*
X145235847Y-100046187D01*
X145664418Y-99379520D02*
X145664418Y-99903329D01*
X145664418Y-99903329D02*
X145616799Y-99998568D01*
X145616799Y-99998568D02*
X145521561Y-100046187D01*
X145521561Y-100046187D02*
X145378704Y-100046187D01*
X145378704Y-100046187D02*
X145283466Y-99998568D01*
X145283466Y-99998568D02*
X145235847Y-99950948D01*
X144616799Y-100046187D02*
X144712037Y-99998568D01*
X144712037Y-99998568D02*
X144759656Y-99903329D01*
X144759656Y-99903329D02*
X144759656Y-99046187D01*
X143854894Y-99998568D02*
X143950132Y-100046187D01*
X143950132Y-100046187D02*
X144140608Y-100046187D01*
X144140608Y-100046187D02*
X144235846Y-99998568D01*
X144235846Y-99998568D02*
X144283465Y-99903329D01*
X144283465Y-99903329D02*
X144283465Y-99522377D01*
X144283465Y-99522377D02*
X144235846Y-99427139D01*
X144235846Y-99427139D02*
X144140608Y-99379520D01*
X144140608Y-99379520D02*
X143950132Y-99379520D01*
X143950132Y-99379520D02*
X143854894Y-99427139D01*
X143854894Y-99427139D02*
X143807275Y-99522377D01*
X143807275Y-99522377D02*
X143807275Y-99617615D01*
X143807275Y-99617615D02*
X144283465Y-99712853D01*
X142759655Y-99046187D02*
X142426322Y-100046187D01*
X142426322Y-100046187D02*
X142092989Y-99046187D01*
X140807274Y-99046187D02*
X140712036Y-99046187D01*
X140712036Y-99046187D02*
X140616798Y-99093806D01*
X140616798Y-99093806D02*
X140569179Y-99141425D01*
X140569179Y-99141425D02*
X140521560Y-99236663D01*
X140521560Y-99236663D02*
X140473941Y-99427139D01*
X140473941Y-99427139D02*
X140473941Y-99665234D01*
X140473941Y-99665234D02*
X140521560Y-99855710D01*
X140521560Y-99855710D02*
X140569179Y-99950948D01*
X140569179Y-99950948D02*
X140616798Y-99998568D01*
X140616798Y-99998568D02*
X140712036Y-100046187D01*
X140712036Y-100046187D02*
X140807274Y-100046187D01*
X140807274Y-100046187D02*
X140902512Y-99998568D01*
X140902512Y-99998568D02*
X140950131Y-99950948D01*
X140950131Y-99950948D02*
X140997750Y-99855710D01*
X140997750Y-99855710D02*
X141045369Y-99665234D01*
X141045369Y-99665234D02*
X141045369Y-99427139D01*
X141045369Y-99427139D02*
X140997750Y-99236663D01*
X140997750Y-99236663D02*
X140950131Y-99141425D01*
X140950131Y-99141425D02*
X140902512Y-99093806D01*
X140902512Y-99093806D02*
X140807274Y-99046187D01*
X140045369Y-99950948D02*
X139997750Y-99998568D01*
X139997750Y-99998568D02*
X140045369Y-100046187D01*
X140045369Y-100046187D02*
X140092988Y-99998568D01*
X140092988Y-99998568D02*
X140045369Y-99950948D01*
X140045369Y-99950948D02*
X140045369Y-100046187D01*
X139045370Y-100046187D02*
X139616798Y-100046187D01*
X139331084Y-100046187D02*
X139331084Y-99046187D01*
X139331084Y-99046187D02*
X139426322Y-99189044D01*
X139426322Y-99189044D02*
X139521560Y-99284282D01*
X139521560Y-99284282D02*
X139616798Y-99331901D01*
X152807275Y-101656131D02*
X152807275Y-100656131D01*
X152807275Y-100656131D02*
X152473942Y-101370416D01*
X152473942Y-101370416D02*
X152140609Y-100656131D01*
X152140609Y-100656131D02*
X152140609Y-101656131D01*
X151664418Y-101560892D02*
X151616799Y-101608512D01*
X151616799Y-101608512D02*
X151664418Y-101656131D01*
X151664418Y-101656131D02*
X151712037Y-101608512D01*
X151712037Y-101608512D02*
X151664418Y-101560892D01*
X151664418Y-101560892D02*
X151664418Y-101656131D01*
X150426323Y-100656131D02*
X150426323Y-101465654D01*
X150426323Y-101465654D02*
X150378704Y-101560892D01*
X150378704Y-101560892D02*
X150331085Y-101608512D01*
X150331085Y-101608512D02*
X150235847Y-101656131D01*
X150235847Y-101656131D02*
X150045371Y-101656131D01*
X150045371Y-101656131D02*
X149950133Y-101608512D01*
X149950133Y-101608512D02*
X149902514Y-101560892D01*
X149902514Y-101560892D02*
X149854895Y-101465654D01*
X149854895Y-101465654D02*
X149854895Y-100656131D01*
X149426323Y-101608512D02*
X149331085Y-101656131D01*
X149331085Y-101656131D02*
X149140609Y-101656131D01*
X149140609Y-101656131D02*
X149045371Y-101608512D01*
X149045371Y-101608512D02*
X148997752Y-101513273D01*
X148997752Y-101513273D02*
X148997752Y-101465654D01*
X148997752Y-101465654D02*
X149045371Y-101370416D01*
X149045371Y-101370416D02*
X149140609Y-101322797D01*
X149140609Y-101322797D02*
X149283466Y-101322797D01*
X149283466Y-101322797D02*
X149378704Y-101275178D01*
X149378704Y-101275178D02*
X149426323Y-101179940D01*
X149426323Y-101179940D02*
X149426323Y-101132321D01*
X149426323Y-101132321D02*
X149378704Y-101037083D01*
X149378704Y-101037083D02*
X149283466Y-100989464D01*
X149283466Y-100989464D02*
X149140609Y-100989464D01*
X149140609Y-100989464D02*
X149045371Y-101037083D01*
X148569180Y-101656131D02*
X148569180Y-100989464D01*
X148569180Y-101084702D02*
X148521561Y-101037083D01*
X148521561Y-101037083D02*
X148426323Y-100989464D01*
X148426323Y-100989464D02*
X148283466Y-100989464D01*
X148283466Y-100989464D02*
X148188228Y-101037083D01*
X148188228Y-101037083D02*
X148140609Y-101132321D01*
X148140609Y-101132321D02*
X148140609Y-101656131D01*
X148140609Y-101132321D02*
X148092990Y-101037083D01*
X148092990Y-101037083D02*
X147997752Y-100989464D01*
X147997752Y-100989464D02*
X147854895Y-100989464D01*
X147854895Y-100989464D02*
X147759656Y-101037083D01*
X147759656Y-101037083D02*
X147712037Y-101132321D01*
X147712037Y-101132321D02*
X147712037Y-101656131D01*
X146807276Y-101656131D02*
X146807276Y-101132321D01*
X146807276Y-101132321D02*
X146854895Y-101037083D01*
X146854895Y-101037083D02*
X146950133Y-100989464D01*
X146950133Y-100989464D02*
X147140609Y-100989464D01*
X147140609Y-100989464D02*
X147235847Y-101037083D01*
X146807276Y-101608512D02*
X146902514Y-101656131D01*
X146902514Y-101656131D02*
X147140609Y-101656131D01*
X147140609Y-101656131D02*
X147235847Y-101608512D01*
X147235847Y-101608512D02*
X147283466Y-101513273D01*
X147283466Y-101513273D02*
X147283466Y-101418035D01*
X147283466Y-101418035D02*
X147235847Y-101322797D01*
X147235847Y-101322797D02*
X147140609Y-101275178D01*
X147140609Y-101275178D02*
X146902514Y-101275178D01*
X146902514Y-101275178D02*
X146807276Y-101227559D01*
X146331085Y-100989464D02*
X146331085Y-101656131D01*
X146331085Y-101084702D02*
X146283466Y-101037083D01*
X146283466Y-101037083D02*
X146188228Y-100989464D01*
X146188228Y-100989464D02*
X146045371Y-100989464D01*
X146045371Y-100989464D02*
X145950133Y-101037083D01*
X145950133Y-101037083D02*
X145902514Y-101132321D01*
X145902514Y-101132321D02*
X145902514Y-101656131D01*
X144664418Y-101656131D02*
X144664418Y-100656131D01*
X144092990Y-101656131D02*
X144521561Y-101084702D01*
X144092990Y-100656131D02*
X144664418Y-101227559D01*
X143664418Y-101656131D02*
X143664418Y-100656131D01*
X143235847Y-101656131D02*
X143235847Y-101132321D01*
X143235847Y-101132321D02*
X143283466Y-101037083D01*
X143283466Y-101037083D02*
X143378704Y-100989464D01*
X143378704Y-100989464D02*
X143521561Y-100989464D01*
X143521561Y-100989464D02*
X143616799Y-101037083D01*
X143616799Y-101037083D02*
X143664418Y-101084702D01*
X142331085Y-101656131D02*
X142331085Y-101132321D01*
X142331085Y-101132321D02*
X142378704Y-101037083D01*
X142378704Y-101037083D02*
X142473942Y-100989464D01*
X142473942Y-100989464D02*
X142664418Y-100989464D01*
X142664418Y-100989464D02*
X142759656Y-101037083D01*
X142331085Y-101608512D02*
X142426323Y-101656131D01*
X142426323Y-101656131D02*
X142664418Y-101656131D01*
X142664418Y-101656131D02*
X142759656Y-101608512D01*
X142759656Y-101608512D02*
X142807275Y-101513273D01*
X142807275Y-101513273D02*
X142807275Y-101418035D01*
X142807275Y-101418035D02*
X142759656Y-101322797D01*
X142759656Y-101322797D02*
X142664418Y-101275178D01*
X142664418Y-101275178D02*
X142426323Y-101275178D01*
X142426323Y-101275178D02*
X142331085Y-101227559D01*
X141854894Y-100989464D02*
X141854894Y-101656131D01*
X141854894Y-101084702D02*
X141807275Y-101037083D01*
X141807275Y-101037083D02*
X141712037Y-100989464D01*
X141712037Y-100989464D02*
X141569180Y-100989464D01*
X141569180Y-100989464D02*
X141473942Y-101037083D01*
X141473942Y-101037083D02*
X141426323Y-101132321D01*
X141426323Y-101132321D02*
X141426323Y-101656131D01*
X151878704Y-103266075D02*
X151878704Y-102266075D01*
X151878704Y-102266075D02*
X151545371Y-102980360D01*
X151545371Y-102980360D02*
X151212038Y-102266075D01*
X151212038Y-102266075D02*
X151212038Y-103266075D01*
X150307276Y-103266075D02*
X150307276Y-102266075D01*
X150307276Y-103218456D02*
X150402514Y-103266075D01*
X150402514Y-103266075D02*
X150592990Y-103266075D01*
X150592990Y-103266075D02*
X150688228Y-103218456D01*
X150688228Y-103218456D02*
X150735847Y-103170836D01*
X150735847Y-103170836D02*
X150783466Y-103075598D01*
X150783466Y-103075598D02*
X150783466Y-102789884D01*
X150783466Y-102789884D02*
X150735847Y-102694646D01*
X150735847Y-102694646D02*
X150688228Y-102647027D01*
X150688228Y-102647027D02*
X150592990Y-102599408D01*
X150592990Y-102599408D02*
X150402514Y-102599408D01*
X150402514Y-102599408D02*
X150307276Y-102647027D01*
X149116799Y-102980360D02*
X148640609Y-102980360D01*
X149212037Y-103266075D02*
X148878704Y-102266075D01*
X148878704Y-102266075D02*
X148545371Y-103266075D01*
X148259656Y-103218456D02*
X148164418Y-103266075D01*
X148164418Y-103266075D02*
X147973942Y-103266075D01*
X147973942Y-103266075D02*
X147878704Y-103218456D01*
X147878704Y-103218456D02*
X147831085Y-103123217D01*
X147831085Y-103123217D02*
X147831085Y-103075598D01*
X147831085Y-103075598D02*
X147878704Y-102980360D01*
X147878704Y-102980360D02*
X147973942Y-102932741D01*
X147973942Y-102932741D02*
X148116799Y-102932741D01*
X148116799Y-102932741D02*
X148212037Y-102885122D01*
X148212037Y-102885122D02*
X148259656Y-102789884D01*
X148259656Y-102789884D02*
X148259656Y-102742265D01*
X148259656Y-102742265D02*
X148212037Y-102647027D01*
X148212037Y-102647027D02*
X148116799Y-102599408D01*
X148116799Y-102599408D02*
X147973942Y-102599408D01*
X147973942Y-102599408D02*
X147878704Y-102647027D01*
X147402513Y-103266075D02*
X147402513Y-102599408D01*
X147402513Y-102266075D02*
X147450132Y-102313694D01*
X147450132Y-102313694D02*
X147402513Y-102361313D01*
X147402513Y-102361313D02*
X147354894Y-102313694D01*
X147354894Y-102313694D02*
X147402513Y-102266075D01*
X147402513Y-102266075D02*
X147402513Y-102361313D01*
X147069180Y-102599408D02*
X146688228Y-102599408D01*
X146926323Y-103266075D02*
X146926323Y-102408932D01*
X146926323Y-102408932D02*
X146878704Y-102313694D01*
X146878704Y-102313694D02*
X146783466Y-102266075D01*
X146783466Y-102266075D02*
X146688228Y-102266075D01*
X145592989Y-103266075D02*
X145592989Y-102266075D01*
X145021561Y-103266075D02*
X145450132Y-102694646D01*
X145021561Y-102266075D02*
X145592989Y-102837503D01*
X144592989Y-103266075D02*
X144592989Y-102266075D01*
X144164418Y-103266075D02*
X144164418Y-102742265D01*
X144164418Y-102742265D02*
X144212037Y-102647027D01*
X144212037Y-102647027D02*
X144307275Y-102599408D01*
X144307275Y-102599408D02*
X144450132Y-102599408D01*
X144450132Y-102599408D02*
X144545370Y-102647027D01*
X144545370Y-102647027D02*
X144592989Y-102694646D01*
X143259656Y-103266075D02*
X143259656Y-102742265D01*
X143259656Y-102742265D02*
X143307275Y-102647027D01*
X143307275Y-102647027D02*
X143402513Y-102599408D01*
X143402513Y-102599408D02*
X143592989Y-102599408D01*
X143592989Y-102599408D02*
X143688227Y-102647027D01*
X143259656Y-103218456D02*
X143354894Y-103266075D01*
X143354894Y-103266075D02*
X143592989Y-103266075D01*
X143592989Y-103266075D02*
X143688227Y-103218456D01*
X143688227Y-103218456D02*
X143735846Y-103123217D01*
X143735846Y-103123217D02*
X143735846Y-103027979D01*
X143735846Y-103027979D02*
X143688227Y-102932741D01*
X143688227Y-102932741D02*
X143592989Y-102885122D01*
X143592989Y-102885122D02*
X143354894Y-102885122D01*
X143354894Y-102885122D02*
X143259656Y-102837503D01*
X142783465Y-102599408D02*
X142783465Y-103266075D01*
X142783465Y-102694646D02*
X142735846Y-102647027D01*
X142735846Y-102647027D02*
X142640608Y-102599408D01*
X142640608Y-102599408D02*
X142497751Y-102599408D01*
X142497751Y-102599408D02*
X142402513Y-102647027D01*
X142402513Y-102647027D02*
X142354894Y-102742265D01*
X142354894Y-102742265D02*
X142354894Y-103266075D01*
X154021561Y-104876019D02*
X154021561Y-103876019D01*
X154021561Y-103876019D02*
X153783466Y-103876019D01*
X153783466Y-103876019D02*
X153640609Y-103923638D01*
X153640609Y-103923638D02*
X153545371Y-104018876D01*
X153545371Y-104018876D02*
X153497752Y-104114114D01*
X153497752Y-104114114D02*
X153450133Y-104304590D01*
X153450133Y-104304590D02*
X153450133Y-104447447D01*
X153450133Y-104447447D02*
X153497752Y-104637923D01*
X153497752Y-104637923D02*
X153545371Y-104733161D01*
X153545371Y-104733161D02*
X153640609Y-104828400D01*
X153640609Y-104828400D02*
X153783466Y-104876019D01*
X153783466Y-104876019D02*
X154021561Y-104876019D01*
X152592990Y-104876019D02*
X152592990Y-104352209D01*
X152592990Y-104352209D02*
X152640609Y-104256971D01*
X152640609Y-104256971D02*
X152735847Y-104209352D01*
X152735847Y-104209352D02*
X152926323Y-104209352D01*
X152926323Y-104209352D02*
X153021561Y-104256971D01*
X152592990Y-104828400D02*
X152688228Y-104876019D01*
X152688228Y-104876019D02*
X152926323Y-104876019D01*
X152926323Y-104876019D02*
X153021561Y-104828400D01*
X153021561Y-104828400D02*
X153069180Y-104733161D01*
X153069180Y-104733161D02*
X153069180Y-104637923D01*
X153069180Y-104637923D02*
X153021561Y-104542685D01*
X153021561Y-104542685D02*
X152926323Y-104495066D01*
X152926323Y-104495066D02*
X152688228Y-104495066D01*
X152688228Y-104495066D02*
X152592990Y-104447447D01*
X152259656Y-104209352D02*
X151878704Y-104209352D01*
X152116799Y-103876019D02*
X152116799Y-104733161D01*
X152116799Y-104733161D02*
X152069180Y-104828400D01*
X152069180Y-104828400D02*
X151973942Y-104876019D01*
X151973942Y-104876019D02*
X151878704Y-104876019D01*
X151164418Y-104828400D02*
X151259656Y-104876019D01*
X151259656Y-104876019D02*
X151450132Y-104876019D01*
X151450132Y-104876019D02*
X151545370Y-104828400D01*
X151545370Y-104828400D02*
X151592989Y-104733161D01*
X151592989Y-104733161D02*
X151592989Y-104352209D01*
X151592989Y-104352209D02*
X151545370Y-104256971D01*
X151545370Y-104256971D02*
X151450132Y-104209352D01*
X151450132Y-104209352D02*
X151259656Y-104209352D01*
X151259656Y-104209352D02*
X151164418Y-104256971D01*
X151164418Y-104256971D02*
X151116799Y-104352209D01*
X151116799Y-104352209D02*
X151116799Y-104447447D01*
X151116799Y-104447447D02*
X151592989Y-104542685D01*
X150688227Y-104780780D02*
X150640608Y-104828400D01*
X150640608Y-104828400D02*
X150688227Y-104876019D01*
X150688227Y-104876019D02*
X150735846Y-104828400D01*
X150735846Y-104828400D02*
X150688227Y-104780780D01*
X150688227Y-104780780D02*
X150688227Y-104876019D01*
X150688227Y-104256971D02*
X150640608Y-104304590D01*
X150640608Y-104304590D02*
X150688227Y-104352209D01*
X150688227Y-104352209D02*
X150735846Y-104304590D01*
X150735846Y-104304590D02*
X150688227Y-104256971D01*
X150688227Y-104256971D02*
X150688227Y-104352209D01*
X148926323Y-104876019D02*
X149497751Y-104876019D01*
X149212037Y-104876019D02*
X149212037Y-103876019D01*
X149212037Y-103876019D02*
X149307275Y-104018876D01*
X149307275Y-104018876D02*
X149402513Y-104114114D01*
X149402513Y-104114114D02*
X149497751Y-104161733D01*
X148307275Y-103876019D02*
X148212037Y-103876019D01*
X148212037Y-103876019D02*
X148116799Y-103923638D01*
X148116799Y-103923638D02*
X148069180Y-103971257D01*
X148069180Y-103971257D02*
X148021561Y-104066495D01*
X148021561Y-104066495D02*
X147973942Y-104256971D01*
X147973942Y-104256971D02*
X147973942Y-104495066D01*
X147973942Y-104495066D02*
X148021561Y-104685542D01*
X148021561Y-104685542D02*
X148069180Y-104780780D01*
X148069180Y-104780780D02*
X148116799Y-104828400D01*
X148116799Y-104828400D02*
X148212037Y-104876019D01*
X148212037Y-104876019D02*
X148307275Y-104876019D01*
X148307275Y-104876019D02*
X148402513Y-104828400D01*
X148402513Y-104828400D02*
X148450132Y-104780780D01*
X148450132Y-104780780D02*
X148497751Y-104685542D01*
X148497751Y-104685542D02*
X148545370Y-104495066D01*
X148545370Y-104495066D02*
X148545370Y-104256971D01*
X148545370Y-104256971D02*
X148497751Y-104066495D01*
X148497751Y-104066495D02*
X148450132Y-103971257D01*
X148450132Y-103971257D02*
X148402513Y-103923638D01*
X148402513Y-103923638D02*
X148307275Y-103876019D01*
X146831085Y-103828400D02*
X147688227Y-105114114D01*
X146545370Y-103971257D02*
X146497751Y-103923638D01*
X146497751Y-103923638D02*
X146402513Y-103876019D01*
X146402513Y-103876019D02*
X146164418Y-103876019D01*
X146164418Y-103876019D02*
X146069180Y-103923638D01*
X146069180Y-103923638D02*
X146021561Y-103971257D01*
X146021561Y-103971257D02*
X145973942Y-104066495D01*
X145973942Y-104066495D02*
X145973942Y-104161733D01*
X145973942Y-104161733D02*
X146021561Y-104304590D01*
X146021561Y-104304590D02*
X146592989Y-104876019D01*
X146592989Y-104876019D02*
X145973942Y-104876019D01*
X145021561Y-104876019D02*
X145592989Y-104876019D01*
X145307275Y-104876019D02*
X145307275Y-103876019D01*
X145307275Y-103876019D02*
X145402513Y-104018876D01*
X145402513Y-104018876D02*
X145497751Y-104114114D01*
X145497751Y-104114114D02*
X145592989Y-104161733D01*
X143878704Y-103828400D02*
X144735846Y-105114114D01*
X143592989Y-103971257D02*
X143545370Y-103923638D01*
X143545370Y-103923638D02*
X143450132Y-103876019D01*
X143450132Y-103876019D02*
X143212037Y-103876019D01*
X143212037Y-103876019D02*
X143116799Y-103923638D01*
X143116799Y-103923638D02*
X143069180Y-103971257D01*
X143069180Y-103971257D02*
X143021561Y-104066495D01*
X143021561Y-104066495D02*
X143021561Y-104161733D01*
X143021561Y-104161733D02*
X143069180Y-104304590D01*
X143069180Y-104304590D02*
X143640608Y-104876019D01*
X143640608Y-104876019D02*
X143021561Y-104876019D01*
X142402513Y-103876019D02*
X142307275Y-103876019D01*
X142307275Y-103876019D02*
X142212037Y-103923638D01*
X142212037Y-103923638D02*
X142164418Y-103971257D01*
X142164418Y-103971257D02*
X142116799Y-104066495D01*
X142116799Y-104066495D02*
X142069180Y-104256971D01*
X142069180Y-104256971D02*
X142069180Y-104495066D01*
X142069180Y-104495066D02*
X142116799Y-104685542D01*
X142116799Y-104685542D02*
X142164418Y-104780780D01*
X142164418Y-104780780D02*
X142212037Y-104828400D01*
X142212037Y-104828400D02*
X142307275Y-104876019D01*
X142307275Y-104876019D02*
X142402513Y-104876019D01*
X142402513Y-104876019D02*
X142497751Y-104828400D01*
X142497751Y-104828400D02*
X142545370Y-104780780D01*
X142545370Y-104780780D02*
X142592989Y-104685542D01*
X142592989Y-104685542D02*
X142640608Y-104495066D01*
X142640608Y-104495066D02*
X142640608Y-104256971D01*
X142640608Y-104256971D02*
X142592989Y-104066495D01*
X142592989Y-104066495D02*
X142545370Y-103971257D01*
X142545370Y-103971257D02*
X142497751Y-103923638D01*
X142497751Y-103923638D02*
X142402513Y-103876019D01*
X141688227Y-103971257D02*
X141640608Y-103923638D01*
X141640608Y-103923638D02*
X141545370Y-103876019D01*
X141545370Y-103876019D02*
X141307275Y-103876019D01*
X141307275Y-103876019D02*
X141212037Y-103923638D01*
X141212037Y-103923638D02*
X141164418Y-103971257D01*
X141164418Y-103971257D02*
X141116799Y-104066495D01*
X141116799Y-104066495D02*
X141116799Y-104161733D01*
X141116799Y-104161733D02*
X141164418Y-104304590D01*
X141164418Y-104304590D02*
X141735846Y-104876019D01*
X141735846Y-104876019D02*
X141116799Y-104876019D01*
X140212037Y-103876019D02*
X140688227Y-103876019D01*
X140688227Y-103876019D02*
X140735846Y-104352209D01*
X140735846Y-104352209D02*
X140688227Y-104304590D01*
X140688227Y-104304590D02*
X140592989Y-104256971D01*
X140592989Y-104256971D02*
X140354894Y-104256971D01*
X140354894Y-104256971D02*
X140259656Y-104304590D01*
X140259656Y-104304590D02*
X140212037Y-104352209D01*
X140212037Y-104352209D02*
X140164418Y-104447447D01*
X140164418Y-104447447D02*
X140164418Y-104685542D01*
X140164418Y-104685542D02*
X140212037Y-104780780D01*
X140212037Y-104780780D02*
X140259656Y-104828400D01*
X140259656Y-104828400D02*
X140354894Y-104876019D01*
X140354894Y-104876019D02*
X140592989Y-104876019D01*
X140592989Y-104876019D02*
X140688227Y-104828400D01*
X140688227Y-104828400D02*
X140735846Y-104780780D01*
D11*
X149589714Y-83858304D02*
X149113524Y-83858304D01*
X149684952Y-84144019D02*
X149351619Y-83144019D01*
X149351619Y-83144019D02*
X149018286Y-84144019D01*
X148113524Y-84144019D02*
X148446857Y-83667828D01*
X148684952Y-84144019D02*
X148684952Y-83144019D01*
X148684952Y-83144019D02*
X148304000Y-83144019D01*
X148304000Y-83144019D02*
X148208762Y-83191638D01*
X148208762Y-83191638D02*
X148161143Y-83239257D01*
X148161143Y-83239257D02*
X148113524Y-83334495D01*
X148113524Y-83334495D02*
X148113524Y-83477352D01*
X148113524Y-83477352D02*
X148161143Y-83572590D01*
X148161143Y-83572590D02*
X148208762Y-83620209D01*
X148208762Y-83620209D02*
X148304000Y-83667828D01*
X148304000Y-83667828D02*
X148684952Y-83667828D01*
X147827809Y-83144019D02*
X147256381Y-83144019D01*
X147542095Y-84144019D02*
X147542095Y-83144019D01*
X146970666Y-84096400D02*
X146827809Y-84144019D01*
X146827809Y-84144019D02*
X146589714Y-84144019D01*
X146589714Y-84144019D02*
X146494476Y-84096400D01*
X146494476Y-84096400D02*
X146446857Y-84048780D01*
X146446857Y-84048780D02*
X146399238Y-83953542D01*
X146399238Y-83953542D02*
X146399238Y-83858304D01*
X146399238Y-83858304D02*
X146446857Y-83763066D01*
X146446857Y-83763066D02*
X146494476Y-83715447D01*
X146494476Y-83715447D02*
X146589714Y-83667828D01*
X146589714Y-83667828D02*
X146780190Y-83620209D01*
X146780190Y-83620209D02*
X146875428Y-83572590D01*
X146875428Y-83572590D02*
X146923047Y-83524971D01*
X146923047Y-83524971D02*
X146970666Y-83429733D01*
X146970666Y-83429733D02*
X146970666Y-83334495D01*
X146970666Y-83334495D02*
X146923047Y-83239257D01*
X146923047Y-83239257D02*
X146875428Y-83191638D01*
X146875428Y-83191638D02*
X146780190Y-83144019D01*
X146780190Y-83144019D02*
X146542095Y-83144019D01*
X146542095Y-83144019D02*
X146399238Y-83191638D01*
X144732571Y-84144019D02*
X145208761Y-84144019D01*
X145208761Y-84144019D02*
X145208761Y-83144019D01*
X143970666Y-84144019D02*
X143970666Y-83620209D01*
X143970666Y-83620209D02*
X144018285Y-83524971D01*
X144018285Y-83524971D02*
X144113523Y-83477352D01*
X144113523Y-83477352D02*
X144303999Y-83477352D01*
X144303999Y-83477352D02*
X144399237Y-83524971D01*
X143970666Y-84096400D02*
X144065904Y-84144019D01*
X144065904Y-84144019D02*
X144303999Y-84144019D01*
X144303999Y-84144019D02*
X144399237Y-84096400D01*
X144399237Y-84096400D02*
X144446856Y-84001161D01*
X144446856Y-84001161D02*
X144446856Y-83905923D01*
X144446856Y-83905923D02*
X144399237Y-83810685D01*
X144399237Y-83810685D02*
X144303999Y-83763066D01*
X144303999Y-83763066D02*
X144065904Y-83763066D01*
X144065904Y-83763066D02*
X143970666Y-83715447D01*
X143494475Y-84144019D02*
X143494475Y-83144019D01*
X143494475Y-83524971D02*
X143399237Y-83477352D01*
X143399237Y-83477352D02*
X143208761Y-83477352D01*
X143208761Y-83477352D02*
X143113523Y-83524971D01*
X143113523Y-83524971D02*
X143065904Y-83572590D01*
X143065904Y-83572590D02*
X143018285Y-83667828D01*
X143018285Y-83667828D02*
X143018285Y-83953542D01*
X143018285Y-83953542D02*
X143065904Y-84048780D01*
X143065904Y-84048780D02*
X143113523Y-84096400D01*
X143113523Y-84096400D02*
X143208761Y-84144019D01*
X143208761Y-84144019D02*
X143399237Y-84144019D01*
X143399237Y-84144019D02*
X143494475Y-84096400D01*
D12*
X148400057Y-95949928D02*
X148400057Y-97164214D01*
X148400057Y-97164214D02*
X148328628Y-97307071D01*
X148328628Y-97307071D02*
X148257200Y-97378500D01*
X148257200Y-97378500D02*
X148114342Y-97449928D01*
X148114342Y-97449928D02*
X147828628Y-97449928D01*
X147828628Y-97449928D02*
X147685771Y-97378500D01*
X147685771Y-97378500D02*
X147614342Y-97307071D01*
X147614342Y-97307071D02*
X147542914Y-97164214D01*
X147542914Y-97164214D02*
X147542914Y-95949928D01*
X146900056Y-97378500D02*
X146685771Y-97449928D01*
X146685771Y-97449928D02*
X146328628Y-97449928D01*
X146328628Y-97449928D02*
X146185771Y-97378500D01*
X146185771Y-97378500D02*
X146114342Y-97307071D01*
X146114342Y-97307071D02*
X146042913Y-97164214D01*
X146042913Y-97164214D02*
X146042913Y-97021357D01*
X146042913Y-97021357D02*
X146114342Y-96878500D01*
X146114342Y-96878500D02*
X146185771Y-96807071D01*
X146185771Y-96807071D02*
X146328628Y-96735642D01*
X146328628Y-96735642D02*
X146614342Y-96664214D01*
X146614342Y-96664214D02*
X146757199Y-96592785D01*
X146757199Y-96592785D02*
X146828628Y-96521357D01*
X146828628Y-96521357D02*
X146900056Y-96378500D01*
X146900056Y-96378500D02*
X146900056Y-96235642D01*
X146900056Y-96235642D02*
X146828628Y-96092785D01*
X146828628Y-96092785D02*
X146757199Y-96021357D01*
X146757199Y-96021357D02*
X146614342Y-95949928D01*
X146614342Y-95949928D02*
X146257199Y-95949928D01*
X146257199Y-95949928D02*
X146042913Y-96021357D01*
X144542914Y-97307071D02*
X144614342Y-97378500D01*
X144614342Y-97378500D02*
X144828628Y-97449928D01*
X144828628Y-97449928D02*
X144971485Y-97449928D01*
X144971485Y-97449928D02*
X145185771Y-97378500D01*
X145185771Y-97378500D02*
X145328628Y-97235642D01*
X145328628Y-97235642D02*
X145400057Y-97092785D01*
X145400057Y-97092785D02*
X145471485Y-96807071D01*
X145471485Y-96807071D02*
X145471485Y-96592785D01*
X145471485Y-96592785D02*
X145400057Y-96307071D01*
X145400057Y-96307071D02*
X145328628Y-96164214D01*
X145328628Y-96164214D02*
X145185771Y-96021357D01*
X145185771Y-96021357D02*
X144971485Y-95949928D01*
X144971485Y-95949928D02*
X144828628Y-95949928D01*
X144828628Y-95949928D02*
X144614342Y-96021357D01*
X144614342Y-96021357D02*
X144542914Y-96092785D01*
D13*
%TO.C,ARTS Lab*%
G36*
X146065416Y-78305280D02*
G01*
X146126728Y-78351445D01*
X146160404Y-78379729D01*
X146216311Y-78389864D01*
X146250197Y-78386144D01*
X146323377Y-78418267D01*
X146385161Y-78484444D01*
X146411173Y-78563015D01*
X146411354Y-78568426D01*
X146441689Y-78651127D01*
X146509415Y-78733152D01*
X146523095Y-78745316D01*
X146618312Y-78835847D01*
X146712073Y-78932280D01*
X146816490Y-79045381D01*
X146717183Y-79130713D01*
X146663169Y-79171071D01*
X146553422Y-79230160D01*
X146438508Y-79271369D01*
X146335407Y-79290625D01*
X146261095Y-79283854D01*
X146232551Y-79246983D01*
X146234239Y-79237889D01*
X146282568Y-79200631D01*
X146390390Y-79173784D01*
X146489350Y-79154728D01*
X146577976Y-79116941D01*
X146602015Y-79060953D01*
X146563137Y-78979684D01*
X146463015Y-78866051D01*
X146462178Y-78865201D01*
X146366965Y-78776513D01*
X146284341Y-78713301D01*
X146232108Y-78689200D01*
X146193763Y-78682989D01*
X146120084Y-78629573D01*
X146089654Y-78543532D01*
X146081744Y-78505726D01*
X146036067Y-78439130D01*
X146007684Y-78408052D01*
X145982481Y-78345445D01*
X145982596Y-78341362D01*
X146009175Y-78301578D01*
X146065416Y-78305280D01*
G37*
G36*
X146469677Y-77416417D02*
G01*
X146602809Y-77456931D01*
X146690305Y-77494523D01*
X146757945Y-77510297D01*
X146771860Y-77514306D01*
X146834798Y-77555874D01*
X146926072Y-77632947D01*
X147031064Y-77733574D01*
X147189234Y-77915472D01*
X147298897Y-78103789D01*
X147358210Y-78308558D01*
X147375907Y-78550470D01*
X147370077Y-78654719D01*
X147342164Y-78823885D01*
X147296992Y-78986846D01*
X147241021Y-79121865D01*
X147180711Y-79207203D01*
X147144717Y-79245088D01*
X147086937Y-79320999D01*
X147038686Y-79397562D01*
X147018487Y-79447360D01*
X147031266Y-79463291D01*
X147088678Y-79475135D01*
X147145101Y-79496204D01*
X147206096Y-79558923D01*
X147232833Y-79632723D01*
X147206813Y-79663405D01*
X147143343Y-79710746D01*
X147124908Y-79721737D01*
X147035106Y-79741087D01*
X146971309Y-79698589D01*
X146947038Y-79601750D01*
X146938889Y-79531199D01*
X146903811Y-79494055D01*
X146842764Y-79522760D01*
X146766654Y-79570894D01*
X146618217Y-79628628D01*
X146437966Y-79670535D01*
X146391701Y-79679779D01*
X146323313Y-79710749D01*
X146304000Y-79762549D01*
X146316471Y-79808352D01*
X146378426Y-79832379D01*
X146421540Y-79840971D01*
X146438135Y-79877034D01*
X146424300Y-79892284D01*
X146352792Y-79917779D01*
X146238674Y-79932488D01*
X146228713Y-79933052D01*
X146121394Y-79934361D01*
X146068241Y-79920522D01*
X146053930Y-79887832D01*
X146066509Y-79855558D01*
X146125378Y-79832379D01*
X146169667Y-79821721D01*
X146196827Y-79764986D01*
X146185102Y-79724800D01*
X146133897Y-79695066D01*
X146027136Y-79674182D01*
X145787968Y-79609586D01*
X145554825Y-79481676D01*
X145353215Y-79301954D01*
X145197090Y-79080401D01*
X145176729Y-79040868D01*
X145143022Y-78957129D01*
X145122991Y-78863408D01*
X145113189Y-78739240D01*
X145111220Y-78625014D01*
X145323361Y-78625014D01*
X145374022Y-78857073D01*
X145481442Y-79069828D01*
X145644623Y-79249987D01*
X145778748Y-79344923D01*
X146005435Y-79441918D01*
X146240409Y-79475370D01*
X146472835Y-79447126D01*
X146691880Y-79359037D01*
X146886708Y-79212952D01*
X147046487Y-79010719D01*
X147058919Y-78989814D01*
X147103386Y-78902711D01*
X147128996Y-78815612D01*
X147140719Y-78704737D01*
X147143522Y-78546303D01*
X147143349Y-78493590D01*
X147138861Y-78354098D01*
X147124685Y-78256908D01*
X147096029Y-78179599D01*
X147048103Y-78099749D01*
X146966159Y-77983473D01*
X146856213Y-77856973D01*
X146740973Y-77766997D01*
X146601034Y-77696020D01*
X146406596Y-77638092D01*
X146166042Y-77624585D01*
X145931904Y-77668975D01*
X145719646Y-77768007D01*
X145544731Y-77918423D01*
X145521900Y-77945944D01*
X145396303Y-78156157D01*
X145330455Y-78386944D01*
X145323361Y-78625014D01*
X145111220Y-78625014D01*
X145110171Y-78564165D01*
X145110875Y-78413157D01*
X145117336Y-78288531D01*
X145133617Y-78195650D01*
X145163665Y-78113320D01*
X145211424Y-78020347D01*
X145339811Y-77829754D01*
X145546472Y-77632335D01*
X145796913Y-77490668D01*
X145909155Y-77452649D01*
X146099503Y-77415254D01*
X146294126Y-77402851D01*
X146469677Y-77416417D01*
G37*
G36*
X145404171Y-76780932D02*
G01*
X145523561Y-76867259D01*
X145630734Y-76974432D01*
X146232551Y-76974432D01*
X146834369Y-76974432D01*
X146941542Y-76867259D01*
X146990326Y-76823817D01*
X147108171Y-76766239D01*
X147224536Y-76779811D01*
X147342754Y-76864511D01*
X147424258Y-76973772D01*
X147441757Y-77085009D01*
X147391996Y-77204062D01*
X147381120Y-77221259D01*
X147361676Y-77267339D01*
X147365501Y-77319218D01*
X147396637Y-77395651D01*
X147459128Y-77515393D01*
X147473594Y-77542334D01*
X147554445Y-77694650D01*
X147646717Y-77870569D01*
X147733156Y-78037231D01*
X147775244Y-78116939D01*
X147849357Y-78241555D01*
X147906877Y-78310647D01*
X147953593Y-78331957D01*
X147998625Y-78337257D01*
X148101192Y-78374137D01*
X148193957Y-78432081D01*
X148246647Y-78494317D01*
X148260749Y-78541665D01*
X148261938Y-78673093D01*
X148214793Y-78789169D01*
X148129422Y-78871963D01*
X148015935Y-78903546D01*
X147992096Y-78904516D01*
X147954454Y-78914026D01*
X147916727Y-78940181D01*
X147873493Y-78990802D01*
X147819331Y-79073710D01*
X147748818Y-79196726D01*
X147656535Y-79367671D01*
X147537058Y-79594366D01*
X147479508Y-79704734D01*
X147415156Y-79833250D01*
X147378233Y-79919824D01*
X147364730Y-79977189D01*
X147370637Y-80018076D01*
X147391947Y-80055217D01*
X147431012Y-80129436D01*
X147438839Y-80253322D01*
X147375295Y-80378545D01*
X147368715Y-80386661D01*
X147255138Y-80473522D01*
X147121978Y-80497063D01*
X146986318Y-80453972D01*
X146981061Y-80450799D01*
X146904700Y-80388636D01*
X146863617Y-80326321D01*
X146857483Y-80310146D01*
X146837747Y-80290935D01*
X146796624Y-80277485D01*
X146724103Y-80268786D01*
X146610172Y-80263825D01*
X146444820Y-80261591D01*
X146218034Y-80261071D01*
X146063816Y-80261455D01*
X145870519Y-80263946D01*
X145734896Y-80269311D01*
X145648491Y-80278198D01*
X145602848Y-80291252D01*
X145589513Y-80309120D01*
X145588837Y-80318883D01*
X145548732Y-80391152D01*
X145461415Y-80455860D01*
X145347461Y-80497034D01*
X145278577Y-80503990D01*
X145208012Y-80480721D01*
X145126528Y-80410895D01*
X145122175Y-80406505D01*
X145039336Y-80292495D01*
X145023938Y-80179263D01*
X145073842Y-80052237D01*
X145095507Y-80011633D01*
X145106021Y-79965172D01*
X145094401Y-79907424D01*
X145056619Y-79821242D01*
X144988650Y-79689481D01*
X144972238Y-79658314D01*
X144848069Y-79422477D01*
X144752117Y-79241571D01*
X144679517Y-79108337D01*
X144625404Y-79015516D01*
X144584911Y-78955849D01*
X144553173Y-78922078D01*
X144525323Y-78906943D01*
X144496496Y-78903185D01*
X144461827Y-78903546D01*
X144406549Y-78897627D01*
X144360487Y-78875354D01*
X144689873Y-78875354D01*
X144708127Y-78937245D01*
X144748966Y-79030993D01*
X144816141Y-79166955D01*
X144913401Y-79355489D01*
X144957164Y-79439583D01*
X145053019Y-79622655D01*
X145123685Y-79753684D01*
X145174790Y-79840924D01*
X145211959Y-79892631D01*
X145240816Y-79917061D01*
X145266989Y-79922469D01*
X145296101Y-79917111D01*
X145316144Y-79915161D01*
X145397126Y-79935703D01*
X145486845Y-79984007D01*
X145559555Y-80044044D01*
X145589513Y-80099786D01*
X145589588Y-80102029D01*
X145600403Y-80121246D01*
X145636055Y-80135156D01*
X145705864Y-80144568D01*
X145819149Y-80150290D01*
X145985232Y-80153130D01*
X146213432Y-80153898D01*
X146393720Y-80153643D01*
X146571317Y-80151971D01*
X146696030Y-80147744D01*
X146778327Y-80139840D01*
X146828675Y-80127133D01*
X146857541Y-80108501D01*
X146875391Y-80082819D01*
X146927575Y-80021756D01*
X147015634Y-79960582D01*
X147108898Y-79920663D01*
X147179859Y-79916981D01*
X147191339Y-79920888D01*
X147217644Y-79921793D01*
X147245879Y-79903162D01*
X147282191Y-79856195D01*
X147332732Y-79772092D01*
X147403651Y-79642051D01*
X147501098Y-79457273D01*
X147502769Y-79454086D01*
X147586129Y-79298037D01*
X147661572Y-79161972D01*
X147720864Y-79060419D01*
X147755770Y-79007906D01*
X147783311Y-78968300D01*
X147800206Y-78876037D01*
X147750835Y-78796373D01*
X147714217Y-78734849D01*
X147699001Y-78631070D01*
X147711467Y-78521601D01*
X147751552Y-78438337D01*
X147756640Y-78432491D01*
X147774560Y-78399863D01*
X147774074Y-78355505D01*
X147751206Y-78286681D01*
X147701980Y-78180656D01*
X147622420Y-78024695D01*
X147555247Y-77895416D01*
X147456132Y-77706977D01*
X147380812Y-77569638D01*
X147323673Y-77475342D01*
X147279104Y-77416029D01*
X147241493Y-77383640D01*
X147205228Y-77370117D01*
X147164696Y-77367400D01*
X147136916Y-77365415D01*
X147021584Y-77324575D01*
X146918591Y-77246589D01*
X146857431Y-77152122D01*
X146849608Y-77132987D01*
X146829836Y-77112439D01*
X146790433Y-77098237D01*
X146721038Y-77089215D01*
X146611286Y-77084212D01*
X146450815Y-77082063D01*
X146229260Y-77081605D01*
X146217910Y-77081605D01*
X145999932Y-77081927D01*
X145842390Y-77083781D01*
X145734745Y-77088523D01*
X145666459Y-77097507D01*
X145626991Y-77112087D01*
X145605801Y-77133618D01*
X145592351Y-77163453D01*
X145561364Y-77225599D01*
X145464389Y-77316184D01*
X145314470Y-77364402D01*
X145297639Y-77367307D01*
X145242216Y-77382960D01*
X145195898Y-77414474D01*
X145148490Y-77473896D01*
X145089799Y-77573272D01*
X145009631Y-77724649D01*
X144960003Y-77820065D01*
X144876552Y-77980342D01*
X144802620Y-78122141D01*
X144749917Y-78222998D01*
X144728612Y-78264462D01*
X144693319Y-78347839D01*
X144690666Y-78403051D01*
X144717246Y-78454224D01*
X144725017Y-78466165D01*
X144762656Y-78579336D01*
X144758122Y-78701500D01*
X144711936Y-78798949D01*
X144706123Y-78805710D01*
X144690455Y-78834961D01*
X144689873Y-78875354D01*
X144360487Y-78875354D01*
X144294825Y-78843604D01*
X144217802Y-78748420D01*
X144187202Y-78630776D01*
X144214749Y-78509374D01*
X144244795Y-78459528D01*
X144350732Y-78363946D01*
X144488979Y-78331957D01*
X144507517Y-78331847D01*
X144538667Y-78327763D01*
X144567915Y-78311438D01*
X144601111Y-78274369D01*
X144644106Y-78208053D01*
X144702754Y-78103985D01*
X144782904Y-77953661D01*
X144890409Y-77748578D01*
X144907655Y-77715598D01*
X144995458Y-77545703D01*
X145053979Y-77425573D01*
X145087106Y-77343861D01*
X145098726Y-77289223D01*
X145092727Y-77250313D01*
X145072999Y-77215787D01*
X145024530Y-77106540D01*
X145037737Y-76985133D01*
X145122349Y-76864511D01*
X145170543Y-76821733D01*
X145287610Y-76765764D01*
X145404171Y-76780932D01*
G37*
G36*
X148387291Y-74906786D02*
G01*
X148391046Y-74908729D01*
X148554244Y-75027733D01*
X148663945Y-75180715D01*
X148714179Y-75355544D01*
X148698976Y-75540088D01*
X148683782Y-75584538D01*
X148624604Y-75694928D01*
X148545725Y-75797555D01*
X148463319Y-75873215D01*
X148393563Y-75902702D01*
X148362800Y-75918369D01*
X148345304Y-75978295D01*
X148340287Y-76095838D01*
X148340287Y-76288975D01*
X148695554Y-76301253D01*
X148742643Y-76303009D01*
X148911172Y-76314104D01*
X149027976Y-76335930D01*
X149109107Y-76375579D01*
X149170619Y-76440142D01*
X149228563Y-76536711D01*
X149232429Y-76547633D01*
X149241490Y-76609709D01*
X149249160Y-76722747D01*
X149255494Y-76889675D01*
X149260550Y-77113417D01*
X149264384Y-77396899D01*
X149267053Y-77743047D01*
X149268612Y-78154785D01*
X149269120Y-78635039D01*
X149269118Y-78942556D01*
X149268888Y-79343238D01*
X149267961Y-79681865D01*
X149265863Y-79964051D01*
X149262116Y-80195409D01*
X149256245Y-80381553D01*
X149247775Y-80528096D01*
X149236229Y-80640654D01*
X149221132Y-80724840D01*
X149202007Y-80786266D01*
X149178379Y-80830549D01*
X149149773Y-80863300D01*
X149115711Y-80890134D01*
X149075719Y-80916666D01*
X149052909Y-80929695D01*
X148969151Y-80956590D01*
X148844162Y-80971169D01*
X148663063Y-80975557D01*
X148340287Y-80975557D01*
X148340287Y-81167183D01*
X148342135Y-81260005D01*
X148357100Y-81338274D01*
X148398726Y-81394333D01*
X148480507Y-81455980D01*
X148592095Y-81555853D01*
X148686166Y-81713035D01*
X148718602Y-81887114D01*
X148687479Y-82064562D01*
X148590873Y-82231850D01*
X148550499Y-82275786D01*
X148399597Y-82379042D01*
X148229498Y-82423452D01*
X148055748Y-82409459D01*
X147893896Y-82337509D01*
X147759489Y-82208047D01*
X147724513Y-82158207D01*
X147681019Y-82075053D01*
X147665486Y-81986395D01*
X147668148Y-81902609D01*
X147947319Y-81902609D01*
X147947358Y-81910063D01*
X147966256Y-82027454D01*
X148028677Y-82098652D01*
X148147772Y-82139178D01*
X148244868Y-82139145D01*
X148349782Y-82083211D01*
X148353351Y-82080362D01*
X148432394Y-81978529D01*
X148448824Y-81864594D01*
X148404682Y-81756168D01*
X148302008Y-81670860D01*
X148264972Y-81652176D01*
X148185512Y-81623806D01*
X148122150Y-81636361D01*
X148041448Y-81692637D01*
X148020132Y-81710520D01*
X147962985Y-81790319D01*
X147947319Y-81902609D01*
X147668148Y-81902609D01*
X147669512Y-81859698D01*
X147686524Y-81724358D01*
X147721740Y-81629990D01*
X147786201Y-81547521D01*
X147805986Y-81527667D01*
X147887770Y-81458451D01*
X147953609Y-81420115D01*
X147968428Y-81414166D01*
X147999626Y-81380936D01*
X148014790Y-81311147D01*
X148018768Y-81187496D01*
X148018768Y-80975557D01*
X147536489Y-80975557D01*
X147054211Y-80975557D01*
X147054211Y-81184169D01*
X147055531Y-81272461D01*
X147065682Y-81355779D01*
X147092104Y-81402367D01*
X147142070Y-81432812D01*
X147169975Y-81449433D01*
X147249416Y-81521377D01*
X147325263Y-81616901D01*
X147378749Y-81708527D01*
X147406801Y-81807817D01*
X147404031Y-81933358D01*
X147402200Y-81950061D01*
X147348741Y-82133264D01*
X147245248Y-82278735D01*
X147103370Y-82378065D01*
X146934757Y-82422847D01*
X146751059Y-82404672D01*
X146737106Y-82400586D01*
X146569743Y-82317435D01*
X146448882Y-82193327D01*
X146376502Y-82041955D01*
X146355769Y-81885961D01*
X146625519Y-81885961D01*
X146630440Y-81935523D01*
X146680070Y-82040525D01*
X146768100Y-82112129D01*
X146875874Y-82143289D01*
X146984733Y-82126960D01*
X147076020Y-82056095D01*
X147094522Y-82026031D01*
X147122243Y-81915911D01*
X147110338Y-81800624D01*
X147060329Y-81713443D01*
X146958222Y-81658259D01*
X146842087Y-81653872D01*
X146734848Y-81695548D01*
X146656121Y-81775505D01*
X146625519Y-81885961D01*
X146355769Y-81885961D01*
X146354580Y-81877012D01*
X146385096Y-81712191D01*
X146470028Y-81561186D01*
X146611353Y-81437689D01*
X146666372Y-81401172D01*
X146710870Y-81352848D01*
X146729150Y-81283970D01*
X146732692Y-81169127D01*
X146732692Y-80975557D01*
X146232551Y-80975557D01*
X145732411Y-80975557D01*
X145732411Y-81173246D01*
X145734185Y-81269068D01*
X145747344Y-81346030D01*
X145782793Y-81395238D01*
X145851383Y-81441130D01*
X145890663Y-81466625D01*
X146014307Y-81592136D01*
X146083772Y-81743627D01*
X146101269Y-81907332D01*
X146069012Y-82069485D01*
X145989213Y-82216319D01*
X145864085Y-82334068D01*
X145695839Y-82408966D01*
X145666653Y-82416265D01*
X145566250Y-82432137D01*
X145478632Y-82420107D01*
X145366341Y-82376484D01*
X145321694Y-82354928D01*
X145172320Y-82241666D01*
X145083339Y-82090365D01*
X145053782Y-81899542D01*
X145056543Y-81876551D01*
X145339443Y-81876551D01*
X145347427Y-81964101D01*
X145398746Y-82074983D01*
X145496781Y-82132547D01*
X145541500Y-82140396D01*
X145660502Y-82125020D01*
X145751637Y-82063731D01*
X145807884Y-81972461D01*
X145822219Y-81867143D01*
X145787622Y-81763709D01*
X145697070Y-81678091D01*
X145690381Y-81674162D01*
X145619856Y-81635677D01*
X145584001Y-81621416D01*
X145463794Y-81670459D01*
X145372584Y-81760950D01*
X145339443Y-81876551D01*
X145056543Y-81876551D01*
X145075259Y-81720691D01*
X145148859Y-81574016D01*
X145282444Y-81453231D01*
X145342696Y-81409607D01*
X145388611Y-81357229D01*
X145407329Y-81286439D01*
X145410892Y-81170753D01*
X145410892Y-80975557D01*
X144910751Y-80975557D01*
X144410610Y-80975557D01*
X144410610Y-81170784D01*
X144411000Y-81216292D01*
X144419131Y-81315560D01*
X144443368Y-81372137D01*
X144490990Y-81407457D01*
X144560399Y-81448998D01*
X144693183Y-81576331D01*
X144772208Y-81728491D01*
X144798649Y-81892329D01*
X144773682Y-82054695D01*
X144698483Y-82202439D01*
X144574228Y-82322411D01*
X144402093Y-82401463D01*
X144337834Y-82417051D01*
X144226220Y-82423708D01*
X144106954Y-82394049D01*
X143972635Y-82320540D01*
X143849426Y-82198187D01*
X143763883Y-82051366D01*
X143741666Y-81947016D01*
X144018954Y-81947016D01*
X144073310Y-82064337D01*
X144081899Y-82074439D01*
X144167458Y-82122877D01*
X144280301Y-82137797D01*
X144390385Y-82119039D01*
X144467670Y-82066441D01*
X144489988Y-82027306D01*
X144515410Y-81915228D01*
X144503456Y-81801342D01*
X144455266Y-81717668D01*
X144379061Y-81667874D01*
X144264331Y-81645003D01*
X144158492Y-81672792D01*
X144074008Y-81739932D01*
X144023341Y-81835110D01*
X144018954Y-81947016D01*
X143741666Y-81947016D01*
X143731848Y-81900903D01*
X143741472Y-81815728D01*
X143799875Y-81658726D01*
X143897274Y-81518491D01*
X144017448Y-81422212D01*
X144064661Y-81395225D01*
X144104695Y-81353219D01*
X144121439Y-81286253D01*
X144124816Y-81171124D01*
X144124816Y-80975557D01*
X143802040Y-80975557D01*
X143729812Y-80975024D01*
X143570513Y-80967231D01*
X143461997Y-80948486D01*
X143389384Y-80916666D01*
X143361862Y-80898616D01*
X143325899Y-80872496D01*
X143295548Y-80842304D01*
X143270334Y-80802425D01*
X143249781Y-80747244D01*
X143233412Y-80671147D01*
X143220752Y-80568518D01*
X143219237Y-80546865D01*
X143624675Y-80546865D01*
X146232551Y-80546865D01*
X148840428Y-80546865D01*
X148840428Y-78635614D01*
X148840428Y-76724362D01*
X146232551Y-76724362D01*
X143624675Y-76724362D01*
X143624675Y-78635614D01*
X143624675Y-80546865D01*
X143219237Y-80546865D01*
X143211324Y-80433744D01*
X143204653Y-80261209D01*
X143200263Y-80045299D01*
X143197676Y-79780399D01*
X143196418Y-79460895D01*
X143196013Y-79081171D01*
X143195983Y-78635614D01*
X143195735Y-78238814D01*
X143195517Y-77831733D01*
X143196566Y-77486565D01*
X143200137Y-77198151D01*
X143207482Y-76961331D01*
X143219854Y-76770946D01*
X143238506Y-76621835D01*
X143264690Y-76508840D01*
X143299659Y-76426799D01*
X143344667Y-76370554D01*
X143400965Y-76334945D01*
X143469807Y-76314812D01*
X143552445Y-76304994D01*
X143650132Y-76300334D01*
X143764122Y-76295670D01*
X144106954Y-76277808D01*
X144117602Y-76094559D01*
X144120828Y-76024760D01*
X144116321Y-75947303D01*
X144092485Y-75909015D01*
X144041824Y-75889618D01*
X144039190Y-75888928D01*
X143945164Y-75833341D01*
X143853603Y-75730339D01*
X143780315Y-75601965D01*
X143741104Y-75470261D01*
X143739187Y-75446568D01*
X144024648Y-75446568D01*
X144067794Y-75549671D01*
X144157142Y-75624048D01*
X144284941Y-75652632D01*
X144287488Y-75652619D01*
X144401018Y-75621739D01*
X144479915Y-75544447D01*
X144517259Y-75439866D01*
X144506127Y-75327120D01*
X144439598Y-75225331D01*
X144436314Y-75222317D01*
X144323083Y-75161642D01*
X144202996Y-75166111D01*
X144095319Y-75235173D01*
X144035457Y-75331801D01*
X144024648Y-75446568D01*
X143739187Y-75446568D01*
X143736900Y-75418308D01*
X143764971Y-75238038D01*
X143854325Y-75078165D01*
X143997022Y-74954689D01*
X144014032Y-74944772D01*
X144188033Y-74878450D01*
X144359161Y-74881789D01*
X144536789Y-74954789D01*
X144579215Y-74981797D01*
X144713675Y-75113275D01*
X144784421Y-75276161D01*
X144789763Y-75467032D01*
X144760002Y-75584533D01*
X144690506Y-75723098D01*
X144598581Y-75831189D01*
X144498315Y-75888435D01*
X144463887Y-75899264D01*
X144428900Y-75928813D01*
X144413836Y-75990151D01*
X144410610Y-76103059D01*
X144410610Y-76295670D01*
X144910751Y-76295670D01*
X145410892Y-76295670D01*
X145410892Y-76101593D01*
X145410649Y-76065088D01*
X145403592Y-75964001D01*
X145382184Y-75910289D01*
X145340278Y-75885105D01*
X145316111Y-75873534D01*
X145241299Y-75815361D01*
X145161656Y-75731661D01*
X145109266Y-75661185D01*
X145065087Y-75558588D01*
X145053648Y-75428372D01*
X145057327Y-75399050D01*
X145339443Y-75399050D01*
X145339604Y-75411103D01*
X145369962Y-75542306D01*
X145449727Y-75624226D01*
X145574464Y-75652085D01*
X145669529Y-75642774D01*
X145747404Y-75597576D01*
X145800740Y-75500076D01*
X145817785Y-75386701D01*
X145783277Y-75271421D01*
X145700745Y-75190388D01*
X145681398Y-75180777D01*
X145554062Y-75153510D01*
X145444727Y-75186516D01*
X145368238Y-75271221D01*
X145339443Y-75399050D01*
X145057327Y-75399050D01*
X145077442Y-75238740D01*
X145155653Y-75083626D01*
X145294537Y-74957032D01*
X145377849Y-74910929D01*
X145545947Y-74870572D01*
X145712411Y-74888603D01*
X145864340Y-74957918D01*
X145988834Y-75071418D01*
X146072991Y-75221999D01*
X146103910Y-75402561D01*
X146102817Y-75434751D01*
X146063346Y-75603232D01*
X145976628Y-75750317D01*
X145855564Y-75852627D01*
X145799814Y-75884914D01*
X145754331Y-75929208D01*
X145735881Y-75995030D01*
X145732411Y-76107310D01*
X145732411Y-76295670D01*
X146232551Y-76295670D01*
X146732692Y-76295670D01*
X146732692Y-76099186D01*
X146729863Y-76006844D01*
X146714745Y-75927217D01*
X146684586Y-75902702D01*
X146636609Y-75888904D01*
X146552519Y-75825998D01*
X146467997Y-75729813D01*
X146399303Y-75619894D01*
X146362698Y-75515787D01*
X146354816Y-75454660D01*
X146629485Y-75454660D01*
X146674465Y-75553156D01*
X146762876Y-75624891D01*
X146887915Y-75652632D01*
X146901831Y-75652365D01*
X147023533Y-75618620D01*
X147099466Y-75531372D01*
X147125660Y-75394926D01*
X147125380Y-75376988D01*
X147103714Y-75277476D01*
X147037606Y-75210186D01*
X146948950Y-75165952D01*
X146836436Y-75162549D01*
X146719648Y-75226533D01*
X146697041Y-75246309D01*
X146634742Y-75346633D01*
X146629485Y-75454660D01*
X146354816Y-75454660D01*
X146352243Y-75434701D01*
X146354020Y-75355998D01*
X146374984Y-75267903D01*
X146419421Y-75142195D01*
X146425368Y-75128353D01*
X146499311Y-75035772D01*
X146615898Y-74951597D01*
X146750561Y-74890532D01*
X146878728Y-74867284D01*
X146947926Y-74874440D01*
X147103906Y-74930648D01*
X147246198Y-75028887D01*
X147347416Y-75152491D01*
X147378029Y-75225846D01*
X147399870Y-75381570D01*
X147379809Y-75544310D01*
X147323594Y-75695085D01*
X147236970Y-75814919D01*
X147125684Y-75884832D01*
X147111308Y-75890150D01*
X147075418Y-75921087D01*
X147058470Y-75985245D01*
X147054211Y-76101593D01*
X147054211Y-76295670D01*
X147536489Y-76295670D01*
X148018768Y-76295670D01*
X148018768Y-76101593D01*
X148018686Y-76080527D01*
X148012424Y-75971533D01*
X147992238Y-75912885D01*
X147952562Y-75886504D01*
X147888596Y-75855705D01*
X147783915Y-75754726D01*
X147706315Y-75612591D01*
X147668348Y-75448640D01*
X147667089Y-75432776D01*
X147666725Y-75401382D01*
X147947319Y-75401382D01*
X147947521Y-75414726D01*
X147978733Y-75544482D01*
X148060684Y-75624991D01*
X148189880Y-75652632D01*
X148216991Y-75651354D01*
X148331179Y-75612374D01*
X148408841Y-75532327D01*
X148443042Y-75429288D01*
X148426850Y-75321331D01*
X148353331Y-75226533D01*
X148275439Y-75179829D01*
X148155112Y-75157734D01*
X148049994Y-75191739D01*
X147975568Y-75275178D01*
X147947319Y-75401382D01*
X147666725Y-75401382D01*
X147665668Y-75310262D01*
X147689904Y-75216272D01*
X147748744Y-75113520D01*
X147779607Y-75071563D01*
X147911739Y-74953978D01*
X148069380Y-74883332D01*
X148234056Y-74865608D01*
X148387291Y-74906786D01*
G37*
%TO.C,USC*%
G36*
X145849810Y-93564374D02*
G01*
X145890989Y-93582034D01*
X145929288Y-93617873D01*
X145951923Y-93656693D01*
X145946111Y-93683297D01*
X145932721Y-93695014D01*
X145894825Y-93748381D01*
X145856172Y-93822062D01*
X145826119Y-93896900D01*
X145814022Y-93953738D01*
X145812293Y-93984001D01*
X145798738Y-94004620D01*
X145763066Y-93997715D01*
X145695191Y-93964169D01*
X145613495Y-93920607D01*
X145660700Y-93859993D01*
X145677327Y-93836254D01*
X145719467Y-93763798D01*
X145759572Y-93681785D01*
X145781001Y-93638567D01*
X145817071Y-93585084D01*
X145845928Y-93564193D01*
X145849810Y-93564374D01*
G37*
G36*
X148219426Y-90445170D02*
G01*
X148390995Y-90447033D01*
X148535004Y-90450479D01*
X148645965Y-90455305D01*
X148718393Y-90461306D01*
X148746801Y-90468281D01*
X148745242Y-90491470D01*
X148723136Y-90546320D01*
X148684248Y-90616819D01*
X148607241Y-90741971D01*
X148116362Y-90741971D01*
X147625482Y-90741971D01*
X147548475Y-90616819D01*
X147516032Y-90559266D01*
X147490191Y-90500260D01*
X147485922Y-90468281D01*
X147495603Y-90464374D01*
X147548663Y-90457904D01*
X147642756Y-90452518D01*
X147772394Y-90448418D01*
X147932091Y-90445809D01*
X148116362Y-90444895D01*
X148219426Y-90445170D01*
G37*
G36*
X147316952Y-93586072D02*
G01*
X147338817Y-93613706D01*
X147339614Y-93621116D01*
X147354840Y-93675830D01*
X147383119Y-93744923D01*
X147417005Y-93813150D01*
X147449053Y-93865266D01*
X147471817Y-93886025D01*
X147482250Y-93886923D01*
X147497746Y-93904204D01*
X147478396Y-93935641D01*
X147429373Y-93970891D01*
X147366741Y-93999650D01*
X147316198Y-94004889D01*
X147299403Y-93974304D01*
X147291171Y-93938165D01*
X147267484Y-93870282D01*
X147233757Y-93787435D01*
X147221414Y-93758411D01*
X147192501Y-93676534D01*
X147190538Y-93626259D01*
X147217320Y-93598682D01*
X147274646Y-93584900D01*
X147316952Y-93586072D01*
G37*
G36*
X146531577Y-93939930D02*
G01*
X146527812Y-94010942D01*
X146508878Y-94064237D01*
X146466727Y-94107035D01*
X146389508Y-94144780D01*
X146288967Y-94156500D01*
X146186224Y-94140514D01*
X146097137Y-94099450D01*
X146037563Y-94035934D01*
X146011849Y-93964219D01*
X146187122Y-93964219D01*
X146200394Y-94044917D01*
X146231312Y-94076491D01*
X146282178Y-94080935D01*
X146328884Y-94052992D01*
X146358531Y-94003027D01*
X146376629Y-93930108D01*
X146373666Y-93860200D01*
X146350724Y-93807699D01*
X146308885Y-93787000D01*
X146292238Y-93788803D01*
X146239122Y-93821712D01*
X146202058Y-93885001D01*
X146187122Y-93964219D01*
X146011849Y-93964219D01*
X146011662Y-93963697D01*
X146014514Y-93872600D01*
X146053419Y-93793919D01*
X146120679Y-93733915D01*
X146208594Y-93698848D01*
X146309465Y-93694977D01*
X146415593Y-93728563D01*
X146468268Y-93758298D01*
X146509330Y-93797471D01*
X146527369Y-93852430D01*
X146531105Y-93930108D01*
X146531577Y-93939930D01*
G37*
G36*
X145178709Y-90444790D02*
G01*
X145323233Y-90446703D01*
X145451097Y-90450059D01*
X145554094Y-90454871D01*
X145624017Y-90461155D01*
X145652657Y-90468924D01*
X145653005Y-90469526D01*
X145651184Y-90507556D01*
X145628023Y-90569163D01*
X145590917Y-90638231D01*
X145547259Y-90698647D01*
X145536813Y-90708644D01*
X145513191Y-90721285D01*
X145474977Y-90730283D01*
X145415190Y-90736226D01*
X145326845Y-90739700D01*
X145202960Y-90741293D01*
X145036550Y-90741592D01*
X145029205Y-90741583D01*
X144880890Y-90740467D01*
X144749587Y-90737750D01*
X144643422Y-90733735D01*
X144570518Y-90728725D01*
X144539001Y-90723024D01*
X144538788Y-90722868D01*
X144501368Y-90683982D01*
X144458882Y-90624418D01*
X144420191Y-90559122D01*
X144394155Y-90503036D01*
X144389635Y-90471105D01*
X144390033Y-90470602D01*
X144421356Y-90462813D01*
X144493473Y-90456368D01*
X144598178Y-90451280D01*
X144727261Y-90447565D01*
X144872516Y-90445235D01*
X145025735Y-90444305D01*
X145178709Y-90444790D01*
G37*
G36*
X147286932Y-89205740D02*
G01*
X147412760Y-89213550D01*
X147528114Y-89229489D01*
X147623548Y-89253931D01*
X147730368Y-89295687D01*
X147946802Y-89414081D01*
X148134929Y-89569609D01*
X148185176Y-89620172D01*
X148231231Y-89673090D01*
X148254902Y-89719331D01*
X148263642Y-89775417D01*
X148264900Y-89857875D01*
X148266007Y-89926586D01*
X148271770Y-90054188D01*
X148280804Y-90168943D01*
X148284816Y-90262690D01*
X148273852Y-90316326D01*
X148250454Y-90322751D01*
X148217853Y-90281258D01*
X148179278Y-90191142D01*
X148092444Y-90005227D01*
X147960803Y-89817600D01*
X147798115Y-89650248D01*
X147613894Y-89512867D01*
X147417653Y-89415148D01*
X147408377Y-89411715D01*
X147284228Y-89372300D01*
X147149113Y-89338877D01*
X147022003Y-89315599D01*
X146921868Y-89306619D01*
X146905174Y-89306187D01*
X146850916Y-89298807D01*
X146829032Y-89285321D01*
X146831394Y-89275564D01*
X146867861Y-89248327D01*
X146941097Y-89227353D01*
X147041653Y-89213014D01*
X147160081Y-89205686D01*
X147286932Y-89205740D01*
G37*
G36*
X145967941Y-89209382D02*
G01*
X146081070Y-89219162D01*
X146173834Y-89234480D01*
X146236576Y-89254867D01*
X146259636Y-89279852D01*
X146258417Y-89282161D01*
X146226263Y-89293832D01*
X146159298Y-89306047D01*
X146069440Y-89316509D01*
X146066681Y-89316763D01*
X145957895Y-89331716D01*
X145854508Y-89353991D01*
X145778553Y-89378865D01*
X145756815Y-89388415D01*
X145678228Y-89420479D01*
X145615972Y-89442579D01*
X145587000Y-89453077D01*
X145489733Y-89504639D01*
X145379222Y-89581120D01*
X145268845Y-89672669D01*
X145171981Y-89769438D01*
X145142795Y-89803703D01*
X145073172Y-89895858D01*
X145006951Y-89995821D01*
X144951066Y-90092014D01*
X144912451Y-90172863D01*
X144898038Y-90226791D01*
X144894306Y-90247099D01*
X144867093Y-90292716D01*
X144856355Y-90298088D01*
X144845835Y-90282054D01*
X144838355Y-90234529D01*
X144833077Y-90149508D01*
X144829161Y-90020984D01*
X144829144Y-90020258D01*
X144826596Y-89893354D01*
X144827015Y-89805303D01*
X144832127Y-89745511D01*
X144843657Y-89703385D01*
X144863330Y-89668333D01*
X144892872Y-89629760D01*
X144936541Y-89583361D01*
X145029277Y-89505095D01*
X145143918Y-89422603D01*
X145266519Y-89345098D01*
X145383132Y-89281797D01*
X145479812Y-89241915D01*
X145504962Y-89235046D01*
X145602959Y-89217973D01*
X145719227Y-89208318D01*
X145844108Y-89205611D01*
X145967941Y-89209382D01*
G37*
G36*
X147188241Y-85530411D02*
G01*
X147198165Y-85602208D01*
X147200377Y-85715931D01*
X147200377Y-85938235D01*
X147107541Y-85986082D01*
X147056308Y-86016615D01*
X146935015Y-86121256D01*
X146823894Y-86260259D01*
X146729597Y-86422891D01*
X146658772Y-86598416D01*
X146618072Y-86776102D01*
X146613117Y-86811335D01*
X146601745Y-86881401D01*
X146592776Y-86923306D01*
X146585376Y-86940695D01*
X146562286Y-86954992D01*
X146541186Y-86931499D01*
X146531956Y-86877636D01*
X146531391Y-86862872D01*
X146517980Y-86778026D01*
X146490530Y-86668700D01*
X146454118Y-86551590D01*
X146413822Y-86443386D01*
X146374721Y-86360782D01*
X146311693Y-86260367D01*
X146188879Y-86113404D01*
X146045216Y-85999647D01*
X145911056Y-85913826D01*
X145918241Y-85710190D01*
X145924004Y-85611357D01*
X145937975Y-85535434D01*
X145964364Y-85502271D01*
X146008069Y-85510621D01*
X146073989Y-85559236D01*
X146167021Y-85646871D01*
X146294416Y-85793566D01*
X146400762Y-85957820D01*
X146478210Y-86125781D01*
X146519328Y-86284013D01*
X146526926Y-86330611D01*
X146540749Y-86387430D01*
X146553177Y-86409612D01*
X146562148Y-86399230D01*
X146580493Y-86352521D01*
X146600312Y-86280961D01*
X146672902Y-86061931D01*
X146789416Y-85854433D01*
X146950697Y-85663919D01*
X146972832Y-85641949D01*
X147062901Y-85556309D01*
X147125539Y-85508488D01*
X147165676Y-85499513D01*
X147188241Y-85530411D01*
G37*
G36*
X147022146Y-93760125D02*
G01*
X147021021Y-93777964D01*
X147030400Y-93845183D01*
X147070406Y-93894011D01*
X147076771Y-93899427D01*
X147120659Y-93966744D01*
X147123364Y-94043913D01*
X147118520Y-94053960D01*
X147087256Y-94118800D01*
X147014705Y-94179271D01*
X146994092Y-94188666D01*
X146905986Y-94205510D01*
X146811283Y-94198757D01*
X146735515Y-94169319D01*
X146700625Y-94124624D01*
X146680549Y-94050393D01*
X146681195Y-94033109D01*
X146814249Y-94033109D01*
X146827930Y-94082016D01*
X146866735Y-94125095D01*
X146911670Y-94131534D01*
X146950185Y-94105306D01*
X146971588Y-94053960D01*
X146965192Y-93985051D01*
X146940630Y-93945549D01*
X146897481Y-93941510D01*
X146843274Y-93982991D01*
X146839208Y-93987571D01*
X146814249Y-94033109D01*
X146681195Y-94033109D01*
X146683450Y-93972791D01*
X146711440Y-93914191D01*
X146711804Y-93913822D01*
X146727530Y-93884177D01*
X146699061Y-93858497D01*
X146670791Y-93827127D01*
X146655738Y-93761584D01*
X146658625Y-93737487D01*
X146791898Y-93737487D01*
X146798675Y-93775727D01*
X146822830Y-93805563D01*
X146826766Y-93806602D01*
X146858035Y-93793079D01*
X146874681Y-93750831D01*
X146868802Y-93698294D01*
X146861570Y-93684082D01*
X146832501Y-93668011D01*
X146804458Y-93688269D01*
X146791898Y-93737487D01*
X146658625Y-93737487D01*
X146659281Y-93732011D01*
X146697817Y-93665916D01*
X146770515Y-93620614D01*
X146867064Y-93603803D01*
X146885041Y-93604226D01*
X146968056Y-93624285D01*
X147013173Y-93675663D01*
X147021159Y-93750831D01*
X147022146Y-93760125D01*
G37*
G36*
X143278791Y-93306810D02*
G01*
X143292493Y-93343725D01*
X143306502Y-93398397D01*
X143301050Y-93433808D01*
X143299912Y-93441196D01*
X143271888Y-93494935D01*
X143267415Y-93502302D01*
X143267361Y-93502391D01*
X143217232Y-93564839D01*
X143163739Y-93607096D01*
X143120432Y-93625630D01*
X143036564Y-93634838D01*
X142945878Y-93603184D01*
X142900731Y-93572543D01*
X142877599Y-93541461D01*
X143016556Y-93541461D01*
X143020730Y-93551900D01*
X143053691Y-93564193D01*
X143077913Y-93552079D01*
X143090826Y-93502302D01*
X143086475Y-93470021D01*
X143145718Y-93470021D01*
X143159558Y-93489924D01*
X143182271Y-93480545D01*
X143197395Y-93433808D01*
X143188156Y-93353764D01*
X143184769Y-93339871D01*
X143173470Y-93310174D01*
X143167686Y-93329008D01*
X143163309Y-93366154D01*
X143157418Y-93395172D01*
X143149491Y-93434222D01*
X143145718Y-93470021D01*
X143086475Y-93470021D01*
X143085342Y-93461613D01*
X143068718Y-93440411D01*
X143051207Y-93450210D01*
X143027219Y-93490694D01*
X143016556Y-93541461D01*
X142877599Y-93541461D01*
X142842166Y-93493852D01*
X142819720Y-93399127D01*
X142824018Y-93372331D01*
X142919271Y-93372331D01*
X142919366Y-93389159D01*
X142926790Y-93443326D01*
X142942287Y-93465167D01*
X142961901Y-93445512D01*
X142962042Y-93395172D01*
X142942287Y-93329008D01*
X143041313Y-93329008D01*
X143053691Y-93341386D01*
X143066069Y-93329008D01*
X143053691Y-93316629D01*
X143041313Y-93329008D01*
X142942287Y-93329008D01*
X142930283Y-93306984D01*
X142922351Y-93317267D01*
X142919271Y-93372331D01*
X142824018Y-93372331D01*
X142835315Y-93301900D01*
X142883327Y-93227404D01*
X143023261Y-93227404D01*
X143023645Y-93235854D01*
X143055754Y-93240406D01*
X143080088Y-93236442D01*
X143070711Y-93225449D01*
X143056395Y-93221494D01*
X143023261Y-93227404D01*
X142883327Y-93227404D01*
X142890870Y-93215700D01*
X142955082Y-93167540D01*
X143049147Y-93140754D01*
X143141317Y-93156649D01*
X143221297Y-93212807D01*
X143235753Y-93236442D01*
X143278791Y-93306810D01*
G37*
G36*
X145240382Y-93840657D02*
G01*
X145294667Y-93868282D01*
X145358815Y-93913281D01*
X145402177Y-93946010D01*
X145536279Y-94029212D01*
X145703875Y-94109936D01*
X145912823Y-94192138D01*
X145926592Y-94197126D01*
X146000701Y-94223109D01*
X146063926Y-94241867D01*
X146126331Y-94254562D01*
X146197985Y-94262358D01*
X146288951Y-94266419D01*
X146409298Y-94267908D01*
X146569091Y-94267988D01*
X146708648Y-94267531D01*
X146836287Y-94265720D01*
X146933030Y-94261507D01*
X147008964Y-94253812D01*
X147074173Y-94241553D01*
X147138741Y-94223651D01*
X147212755Y-94199024D01*
X147267513Y-94179205D01*
X147422463Y-94114588D01*
X147572852Y-94040845D01*
X147704285Y-93965382D01*
X147802366Y-93895608D01*
X147843391Y-93864802D01*
X147910951Y-93838657D01*
X147965234Y-93858623D01*
X148011003Y-93925380D01*
X148053381Y-94014248D01*
X147967278Y-94085631D01*
X147949035Y-94100166D01*
X147838283Y-94174371D01*
X147698987Y-94251404D01*
X147547064Y-94323005D01*
X147398428Y-94380913D01*
X147314298Y-94410202D01*
X147236399Y-94438497D01*
X147187999Y-94457468D01*
X147166152Y-94465505D01*
X147097343Y-94484816D01*
X147014705Y-94503219D01*
X146991767Y-94506741D01*
X146906126Y-94513885D01*
X146788527Y-94518625D01*
X146651407Y-94520565D01*
X146507200Y-94519313D01*
X146495724Y-94519072D01*
X146346345Y-94515114D01*
X146232668Y-94509289D01*
X146141739Y-94499788D01*
X146060605Y-94484802D01*
X145976314Y-94462522D01*
X145875913Y-94431138D01*
X145799110Y-94405727D01*
X145705220Y-94373047D01*
X145636343Y-94347100D01*
X145603594Y-94331935D01*
X145574645Y-94315897D01*
X145518558Y-94294414D01*
X145478233Y-94275385D01*
X145408350Y-94234932D01*
X145323552Y-94181920D01*
X145236911Y-94124762D01*
X145161499Y-94071874D01*
X145110389Y-94031670D01*
X145103804Y-94008463D01*
X145117740Y-93958489D01*
X145148525Y-93901949D01*
X145186523Y-93855678D01*
X145222096Y-93836513D01*
X145240382Y-93840657D01*
G37*
G36*
X145266838Y-85755604D02*
G01*
X145339428Y-85788549D01*
X145350455Y-85794411D01*
X145435984Y-85849290D01*
X145542876Y-85929275D01*
X145660131Y-86025098D01*
X145776750Y-86127490D01*
X145881731Y-86227182D01*
X145964076Y-86314904D01*
X146031626Y-86397038D01*
X146144596Y-86547903D01*
X146252407Y-86707267D01*
X146349573Y-86865974D01*
X146430609Y-87014870D01*
X146490029Y-87144799D01*
X146522347Y-87246606D01*
X146523465Y-87251984D01*
X146539652Y-87304151D01*
X146556444Y-87325596D01*
X146566020Y-87317618D01*
X146590266Y-87275037D01*
X146618492Y-87208004D01*
X146651949Y-87123277D01*
X146797090Y-86829373D01*
X146983309Y-86541308D01*
X147204439Y-86268966D01*
X147220449Y-86251479D01*
X147335567Y-86135188D01*
X147457724Y-86025777D01*
X147580076Y-85928095D01*
X147695781Y-85846991D01*
X147797995Y-85787314D01*
X147879875Y-85753913D01*
X147934577Y-85751635D01*
X147938226Y-85753815D01*
X147954695Y-85791441D01*
X147963971Y-85862083D01*
X147966506Y-85952214D01*
X147962755Y-86048307D01*
X147953169Y-86136834D01*
X147938204Y-86204268D01*
X147918311Y-86237082D01*
X147890217Y-86250204D01*
X147825503Y-86279153D01*
X147745820Y-86313973D01*
X147557815Y-86413105D01*
X147356481Y-86554247D01*
X147161855Y-86723920D01*
X146984899Y-86912522D01*
X146836575Y-87110450D01*
X146834798Y-87113173D01*
X146767143Y-87222724D01*
X146705103Y-87333553D01*
X146654057Y-87434986D01*
X146619385Y-87516350D01*
X146606467Y-87566971D01*
X146596150Y-87597328D01*
X146569120Y-87592475D01*
X146533516Y-87555520D01*
X146497486Y-87492063D01*
X146446623Y-87389434D01*
X146363695Y-87244234D01*
X146268704Y-87094629D01*
X146172281Y-86957212D01*
X146085059Y-86848571D01*
X145927863Y-86690947D01*
X145683796Y-86498897D01*
X145410281Y-86335355D01*
X145182736Y-86218159D01*
X145175612Y-85991635D01*
X145174139Y-85932319D01*
X145176298Y-85831163D01*
X145189590Y-85771559D01*
X145218331Y-85748157D01*
X145266838Y-85755604D01*
G37*
G36*
X148995211Y-87115167D02*
G01*
X148990206Y-87384241D01*
X148987984Y-87475101D01*
X148984314Y-87569578D01*
X148980110Y-87635586D01*
X148975910Y-87662604D01*
X148967921Y-87663432D01*
X148921415Y-87657642D01*
X148843594Y-87643540D01*
X148745730Y-87623063D01*
X148619356Y-87600289D01*
X148413710Y-87579560D01*
X148201178Y-87574378D01*
X147999648Y-87584970D01*
X147827011Y-87611557D01*
X147673760Y-87655907D01*
X147433901Y-87759770D01*
X147191866Y-87903691D01*
X146954841Y-88083202D01*
X146730007Y-88293836D01*
X146713421Y-88310910D01*
X146648688Y-88374556D01*
X146598126Y-88419689D01*
X146571519Y-88437445D01*
X146569754Y-88437174D01*
X146539798Y-88416927D01*
X146483190Y-88369264D01*
X146407316Y-88300635D01*
X146319562Y-88217487D01*
X146212483Y-88117498D01*
X145999675Y-87943088D01*
X145788712Y-87805906D01*
X145569332Y-87699731D01*
X145331274Y-87618342D01*
X145224632Y-87594455D01*
X145030099Y-87572624D01*
X144815716Y-87569739D01*
X144597266Y-87585759D01*
X144390533Y-87620646D01*
X144339369Y-87632134D01*
X144247272Y-87652248D01*
X144179634Y-87666255D01*
X144148348Y-87671649D01*
X144141838Y-87653031D01*
X144136895Y-87594071D01*
X144134793Y-87504338D01*
X144135970Y-87393676D01*
X144142970Y-87115167D01*
X144390533Y-87117744D01*
X144493560Y-87122638D01*
X144715477Y-87152529D01*
X144955414Y-87205999D01*
X145199110Y-87279052D01*
X145432302Y-87367694D01*
X145640728Y-87467930D01*
X145812977Y-87573505D01*
X146044580Y-87749167D01*
X146260466Y-87950499D01*
X146445541Y-88164437D01*
X146494900Y-88224883D01*
X146540677Y-88272304D01*
X146567989Y-88290098D01*
X146570401Y-88289547D01*
X146600302Y-88265183D01*
X146648245Y-88212010D01*
X146705054Y-88140073D01*
X146872879Y-87941762D01*
X147113909Y-87721532D01*
X147387419Y-87530900D01*
X147686679Y-87374439D01*
X148004958Y-87256724D01*
X148015688Y-87253541D01*
X148267780Y-87184293D01*
X148481279Y-87137520D01*
X148661033Y-87112326D01*
X148811892Y-87107816D01*
X148995211Y-87115167D01*
G37*
G36*
X145088333Y-87853425D02*
G01*
X145412180Y-87935702D01*
X145739753Y-88067350D01*
X145905618Y-88151733D01*
X146191789Y-88330558D01*
X146434710Y-88531296D01*
X146481301Y-88573336D01*
X146546211Y-88617760D01*
X146589437Y-88623570D01*
X146611212Y-88612558D01*
X146630981Y-88589843D01*
X146640700Y-88573042D01*
X146684075Y-88530429D01*
X146754559Y-88471653D01*
X146843724Y-88403128D01*
X146943141Y-88331269D01*
X147044383Y-88262489D01*
X147139020Y-88203204D01*
X147219874Y-88157720D01*
X147405842Y-88065801D01*
X147606239Y-87980462D01*
X147802870Y-87909166D01*
X147977540Y-87859372D01*
X147998620Y-87854668D01*
X148243929Y-87822961D01*
X148512147Y-87826201D01*
X148792864Y-87863676D01*
X149075670Y-87934671D01*
X149279909Y-87998422D01*
X149279909Y-88268539D01*
X149279394Y-88334013D01*
X149275005Y-88445092D01*
X149266446Y-88514613D01*
X149254091Y-88538657D01*
X149225859Y-88526808D01*
X149169585Y-88492034D01*
X149099364Y-88442360D01*
X149087685Y-88433710D01*
X148841587Y-88283046D01*
X148573296Y-88176551D01*
X148547679Y-88169471D01*
X148418183Y-88146203D01*
X148261949Y-88132614D01*
X148094034Y-88128724D01*
X147929492Y-88134550D01*
X147783378Y-88150112D01*
X147670748Y-88175429D01*
X147361980Y-88287992D01*
X147096321Y-88406860D01*
X146877785Y-88530893D01*
X146705250Y-88660653D01*
X146653391Y-88704193D01*
X146598341Y-88744459D01*
X146566198Y-88760408D01*
X146557561Y-88758008D01*
X146514233Y-88732911D01*
X146447606Y-88686260D01*
X146368147Y-88625201D01*
X146271482Y-88553294D01*
X146060785Y-88423707D01*
X145829262Y-88310686D01*
X145590054Y-88219590D01*
X145356299Y-88155780D01*
X145141137Y-88124616D01*
X144934306Y-88123172D01*
X144682049Y-88152976D01*
X144443399Y-88215209D01*
X144228202Y-88307158D01*
X144046303Y-88426113D01*
X144019539Y-88447950D01*
X143947414Y-88505963D01*
X143900700Y-88535345D01*
X143873912Y-88531927D01*
X143861567Y-88491542D01*
X143858182Y-88410020D01*
X143858272Y-88283195D01*
X143858272Y-88000054D01*
X144000621Y-87948212D01*
X144139143Y-87902828D01*
X144451815Y-87836989D01*
X144768212Y-87820521D01*
X145088333Y-87853425D01*
G37*
G36*
X148077818Y-94220713D02*
G01*
X148123594Y-94261071D01*
X148182181Y-94319367D01*
X148230356Y-94365923D01*
X148327376Y-94447703D01*
X148422112Y-94516011D01*
X148479474Y-94554334D01*
X148530515Y-94598282D01*
X148557498Y-94643859D01*
X148571899Y-94705593D01*
X148574813Y-94727103D01*
X148576220Y-94795275D01*
X148564238Y-94834406D01*
X148545944Y-94839868D01*
X148490939Y-94827677D01*
X148413528Y-94794408D01*
X148324230Y-94745476D01*
X148233568Y-94686296D01*
X148152064Y-94622283D01*
X148044466Y-94527571D01*
X147946523Y-94589399D01*
X147916514Y-94607394D01*
X147779127Y-94675356D01*
X147607355Y-94743580D01*
X147412858Y-94808104D01*
X147207296Y-94864968D01*
X147002326Y-94910209D01*
X146967306Y-94913190D01*
X146888195Y-94915551D01*
X146776863Y-94916615D01*
X146642632Y-94916302D01*
X146494822Y-94914534D01*
X146354520Y-94911664D01*
X146215892Y-94906740D01*
X146108736Y-94899400D01*
X146023034Y-94888647D01*
X145948767Y-94873483D01*
X145875913Y-94852911D01*
X145835449Y-94840208D01*
X145647590Y-94779526D01*
X145499097Y-94727961D01*
X145382766Y-94682747D01*
X145291388Y-94641117D01*
X145217758Y-94600307D01*
X145096360Y-94525610D01*
X145025295Y-94595730D01*
X144984095Y-94631619D01*
X144898442Y-94693728D01*
X144799821Y-94755924D01*
X144705289Y-94807682D01*
X144631907Y-94838475D01*
X144607492Y-94844274D01*
X144586399Y-94837563D01*
X144577826Y-94803059D01*
X144576206Y-94729912D01*
X144577378Y-94667914D01*
X144588049Y-94618560D01*
X144619087Y-94585846D01*
X144681359Y-94551320D01*
X144688046Y-94547774D01*
X144760046Y-94499775D01*
X144845844Y-94430179D01*
X144928305Y-94352766D01*
X144949840Y-94330913D01*
X145013615Y-94268152D01*
X145061124Y-94224332D01*
X145083373Y-94207858D01*
X145083664Y-94207876D01*
X145110573Y-94221638D01*
X145166141Y-94256071D01*
X145238718Y-94303967D01*
X145289551Y-94337787D01*
X145404962Y-94408404D01*
X145517811Y-94465989D01*
X145645021Y-94518648D01*
X145803518Y-94574487D01*
X145806641Y-94575529D01*
X146113395Y-94654857D01*
X146429185Y-94693888D01*
X146746639Y-94693538D01*
X147058382Y-94654718D01*
X147357041Y-94578343D01*
X147635243Y-94465326D01*
X147885613Y-94316580D01*
X147899133Y-94307021D01*
X147972915Y-94256705D01*
X148029288Y-94221263D01*
X148056961Y-94207858D01*
X148077818Y-94220713D01*
G37*
G36*
X145847472Y-88854905D02*
G01*
X146058126Y-88902011D01*
X146155542Y-88942447D01*
X146277495Y-89006608D01*
X146393604Y-89079332D01*
X146483255Y-89148660D01*
X146545957Y-89206037D01*
X146668927Y-89117160D01*
X146682808Y-89107219D01*
X146895228Y-88977484D01*
X147104253Y-88891208D01*
X147304872Y-88850492D01*
X147468805Y-88846865D01*
X147690675Y-88867794D01*
X147918346Y-88913947D01*
X148133537Y-88982415D01*
X148273420Y-89046782D01*
X148435955Y-89139859D01*
X148598056Y-89248329D01*
X148744231Y-89361785D01*
X148858986Y-89469816D01*
X148958077Y-89577317D01*
X148958077Y-89862568D01*
X148957018Y-89955022D01*
X148952297Y-90057716D01*
X148944312Y-90124189D01*
X148933631Y-90147819D01*
X148924660Y-90144248D01*
X148891012Y-90111280D01*
X148850204Y-90054982D01*
X148818641Y-90008060D01*
X148709573Y-89869516D01*
X148574633Y-89722381D01*
X148424459Y-89576631D01*
X148269691Y-89442241D01*
X148120970Y-89329188D01*
X147988935Y-89247448D01*
X147849076Y-89181199D01*
X147602016Y-89098615D01*
X147363049Y-89063650D01*
X147133531Y-89076309D01*
X146914818Y-89136594D01*
X146708264Y-89244509D01*
X146644241Y-89285019D01*
X146586216Y-89318146D01*
X146555793Y-89330859D01*
X146536555Y-89323821D01*
X146485233Y-89295286D01*
X146418033Y-89252298D01*
X146370598Y-89221388D01*
X146194066Y-89128676D01*
X146019610Y-89076074D01*
X145833754Y-89059127D01*
X145821936Y-89059134D01*
X145722483Y-89062373D01*
X145638178Y-89070233D01*
X145586191Y-89081185D01*
X145582966Y-89082446D01*
X145527985Y-89101759D01*
X145444033Y-89129170D01*
X145347921Y-89159176D01*
X145245842Y-89196178D01*
X145123065Y-89251739D01*
X145019870Y-89309304D01*
X144952870Y-89358204D01*
X144854559Y-89440655D01*
X144742600Y-89542439D01*
X144625595Y-89655037D01*
X144512145Y-89769926D01*
X144410850Y-89878587D01*
X144330311Y-89972498D01*
X144279130Y-90043140D01*
X144238262Y-90106285D01*
X144203743Y-90142694D01*
X144179944Y-90139602D01*
X144165112Y-90094543D01*
X144157497Y-90005047D01*
X144155348Y-89868646D01*
X144155348Y-89589473D01*
X144322453Y-89426421D01*
X144351283Y-89398754D01*
X144442794Y-89315690D01*
X144531263Y-89241337D01*
X144600962Y-89189098D01*
X144637212Y-89165488D01*
X144873607Y-89035794D01*
X145120807Y-88938318D01*
X145370836Y-88874630D01*
X145615716Y-88846302D01*
X145847472Y-88854905D01*
G37*
G36*
X148636245Y-86601825D02*
G01*
X148635745Y-86702754D01*
X148630626Y-86789298D01*
X148615167Y-86841765D01*
X148583644Y-86868682D01*
X148530333Y-86878579D01*
X148449506Y-86879982D01*
X148406826Y-86882212D01*
X148301178Y-86896302D01*
X148171959Y-86920557D01*
X148034334Y-86951698D01*
X147903469Y-86986448D01*
X147794529Y-87021529D01*
X147689897Y-87064012D01*
X147560354Y-87125274D01*
X147429567Y-87194771D01*
X147305253Y-87267713D01*
X147195130Y-87339305D01*
X147106916Y-87404757D01*
X147048327Y-87459276D01*
X147027083Y-87498069D01*
X147023760Y-87510944D01*
X146992677Y-87538404D01*
X146978094Y-87547972D01*
X146933028Y-87593001D01*
X146871986Y-87665101D01*
X146802403Y-87754869D01*
X146731716Y-87852900D01*
X146667363Y-87949790D01*
X146635304Y-87997223D01*
X146594502Y-88047502D01*
X146568152Y-88067382D01*
X146565744Y-88066952D01*
X146537307Y-88042515D01*
X146492544Y-87987958D01*
X146440013Y-87913559D01*
X146369043Y-87811492D01*
X146225420Y-87629641D01*
X146076202Y-87468901D01*
X145932664Y-87341978D01*
X145792837Y-87245534D01*
X145556162Y-87119199D01*
X145293016Y-87015007D01*
X145015851Y-86937647D01*
X144737122Y-86891808D01*
X144642819Y-86881499D01*
X144561072Y-86866166D01*
X144511928Y-86839281D01*
X144487094Y-86791353D01*
X144478276Y-86712893D01*
X144477180Y-86594413D01*
X144477782Y-86495027D01*
X144481019Y-86422235D01*
X144488786Y-86381599D01*
X144502974Y-86363945D01*
X144525474Y-86360099D01*
X144559501Y-86362398D01*
X144641526Y-86374571D01*
X144737170Y-86393447D01*
X144825520Y-86414728D01*
X144885660Y-86434116D01*
X144895440Y-86438182D01*
X144958265Y-86460996D01*
X145034198Y-86485374D01*
X145112299Y-86512812D01*
X145267607Y-86583374D01*
X145440601Y-86677673D01*
X145620222Y-86788712D01*
X145795411Y-86909495D01*
X145955111Y-87033024D01*
X146088263Y-87152302D01*
X146092972Y-87156969D01*
X146245727Y-87326484D01*
X146375622Y-87512069D01*
X146494401Y-87730442D01*
X146565023Y-87875347D01*
X146633128Y-87725316D01*
X146651502Y-87686230D01*
X146792873Y-87447536D01*
X146979428Y-87220556D01*
X147212077Y-87004430D01*
X147491727Y-86798297D01*
X147819286Y-86601298D01*
X147858312Y-86580868D01*
X148012950Y-86512260D01*
X148186642Y-86449803D01*
X148359094Y-86400278D01*
X148510013Y-86370466D01*
X148636245Y-86353721D01*
X148636245Y-86601825D01*
G37*
G36*
X148004958Y-88376660D02*
G01*
X148116520Y-88390969D01*
X148319238Y-88432608D01*
X148529955Y-88492271D01*
X148734296Y-88565156D01*
X148917886Y-88646459D01*
X149066353Y-88731375D01*
X149124723Y-88773462D01*
X149223380Y-88852488D01*
X149310855Y-88930668D01*
X149428447Y-89044300D01*
X149428447Y-89385631D01*
X149428302Y-89426094D01*
X149426071Y-89544336D01*
X149421562Y-89639844D01*
X149415312Y-89703694D01*
X149407860Y-89726961D01*
X149388900Y-89712048D01*
X149351223Y-89665002D01*
X149305223Y-89596990D01*
X149218686Y-89476896D01*
X149089042Y-89328012D01*
X148937954Y-89177281D01*
X148777258Y-89035715D01*
X148618791Y-88914325D01*
X148474391Y-88824120D01*
X148338732Y-88759192D01*
X148133110Y-88689546D01*
X147912060Y-88650113D01*
X147661585Y-88637682D01*
X147426452Y-88647959D01*
X147223899Y-88681634D01*
X147043442Y-88742688D01*
X146873331Y-88835102D01*
X146701815Y-88962857D01*
X146667692Y-88990986D01*
X146605599Y-89037063D01*
X146563692Y-89053508D01*
X146530240Y-89042839D01*
X146493508Y-89007576D01*
X146472084Y-88986453D01*
X146390551Y-88923765D01*
X146281680Y-88854938D01*
X146159268Y-88787748D01*
X146037112Y-88729974D01*
X145929007Y-88689391D01*
X145851821Y-88668576D01*
X145747616Y-88650217D01*
X145625953Y-88640517D01*
X145470936Y-88637682D01*
X145442909Y-88637809D01*
X145193554Y-88652791D01*
X144971976Y-88695718D01*
X144766118Y-88770877D01*
X144563923Y-88882554D01*
X144353335Y-89035036D01*
X144343172Y-89043159D01*
X144134738Y-89224720D01*
X143963579Y-89407032D01*
X143819139Y-89601284D01*
X143783968Y-89653116D01*
X143745221Y-89701598D01*
X143718094Y-89717134D01*
X143700546Y-89696415D01*
X143690537Y-89636132D01*
X143686027Y-89532975D01*
X143684978Y-89383635D01*
X143684978Y-89036182D01*
X143864461Y-88884455D01*
X143972444Y-88801158D01*
X144194695Y-88664640D01*
X144448998Y-88545519D01*
X144724744Y-88449166D01*
X144808247Y-88425624D01*
X144909075Y-88402320D01*
X145005520Y-88388775D01*
X145115518Y-88382721D01*
X145257005Y-88381891D01*
X145352169Y-88383138D01*
X145469524Y-88388393D01*
X145563639Y-88399603D01*
X145650469Y-88418943D01*
X145745969Y-88448589D01*
X145831098Y-88478547D01*
X146064718Y-88576753D01*
X146256881Y-88685387D01*
X146413373Y-88807562D01*
X146556947Y-88940308D01*
X146655068Y-88851661D01*
X146770420Y-88756737D01*
X146996269Y-88611739D01*
X147242849Y-88497642D01*
X147499958Y-88418037D01*
X147757395Y-88376513D01*
X148004958Y-88376660D01*
G37*
G36*
X146019465Y-89594497D02*
G01*
X146043256Y-89614167D01*
X146092724Y-89665380D01*
X146156124Y-89736912D01*
X146225615Y-89819240D01*
X146293359Y-89902842D01*
X146351514Y-89978196D01*
X146392242Y-90035778D01*
X146407703Y-90066067D01*
X146403417Y-90075336D01*
X146361745Y-90092993D01*
X146282284Y-90103201D01*
X146156394Y-90110684D01*
X146269906Y-90279727D01*
X146286510Y-90304698D01*
X146335917Y-90382314D01*
X146370435Y-90441689D01*
X146383418Y-90471588D01*
X146380897Y-90476700D01*
X146346409Y-90489345D01*
X146284393Y-90494407D01*
X146262228Y-90494923D01*
X146207340Y-90501993D01*
X146185367Y-90514707D01*
X146199593Y-90537132D01*
X146242084Y-90582995D01*
X146302960Y-90640622D01*
X146420553Y-90746238D01*
X146433889Y-91517740D01*
X146447226Y-92289242D01*
X146334864Y-92462119D01*
X146325588Y-92476301D01*
X146261852Y-92569895D01*
X146199865Y-92655406D01*
X146151857Y-92715871D01*
X146144793Y-92723873D01*
X146094417Y-92770876D01*
X146040977Y-92791908D01*
X145961457Y-92796746D01*
X145921611Y-92795524D01*
X145858776Y-92787526D01*
X145827972Y-92774533D01*
X145826326Y-92767645D01*
X145838014Y-92732892D01*
X145874713Y-92671129D01*
X145938719Y-92578737D01*
X146032326Y-92452095D01*
X146089714Y-92375889D01*
X146004475Y-92375889D01*
X145924719Y-92371604D01*
X145840613Y-92360164D01*
X145820446Y-92355893D01*
X145781306Y-92340231D01*
X145767580Y-92307870D01*
X145769439Y-92242571D01*
X145776888Y-92140704D01*
X145968749Y-92133473D01*
X146160611Y-92126243D01*
X146159917Y-91502187D01*
X146159223Y-90878130D01*
X145973711Y-90684768D01*
X145912481Y-90618733D01*
X145851598Y-90547259D01*
X145812799Y-90494328D01*
X145802572Y-90468150D01*
X145810557Y-90461860D01*
X145856936Y-90449717D01*
X145926548Y-90444895D01*
X146036152Y-90444895D01*
X145912709Y-90266264D01*
X145888589Y-90231011D01*
X145837749Y-90154055D01*
X145802472Y-90096784D01*
X145789266Y-90069569D01*
X145794261Y-90063882D01*
X145833930Y-90052072D01*
X145900238Y-90043961D01*
X146011211Y-90036415D01*
X145925874Y-89928828D01*
X145840537Y-89821240D01*
X145718168Y-89948869D01*
X145648240Y-90031405D01*
X145569652Y-90141406D01*
X145505510Y-90248318D01*
X145494767Y-90268445D01*
X145450101Y-90345599D01*
X145413132Y-90399724D01*
X145390977Y-90420138D01*
X145384687Y-90412774D01*
X145376478Y-90364506D01*
X145372702Y-90276505D01*
X145373760Y-90154977D01*
X145380787Y-89889816D01*
X145504568Y-89796293D01*
X145508547Y-89793315D01*
X145593723Y-89738521D01*
X145694357Y-89686330D01*
X145798848Y-89641285D01*
X145895596Y-89607934D01*
X145973002Y-89590823D01*
X146019465Y-89594497D01*
G37*
G36*
X147187601Y-89580949D02*
G01*
X147258241Y-89602133D01*
X147352081Y-89639882D01*
X147455821Y-89688180D01*
X147556161Y-89741014D01*
X147639802Y-89792368D01*
X147769773Y-89881528D01*
X147769773Y-90138455D01*
X147768719Y-90218897D01*
X147764401Y-90310087D01*
X147757519Y-90372344D01*
X147748909Y-90395382D01*
X147737726Y-90388072D01*
X147707381Y-90347853D01*
X147670882Y-90284239D01*
X147649659Y-90246414D01*
X147596550Y-90165279D01*
X147531964Y-90077496D01*
X147463727Y-89992607D01*
X147399667Y-89920156D01*
X147347608Y-89869686D01*
X147315380Y-89850743D01*
X147298682Y-89857207D01*
X147254839Y-89893035D01*
X147203354Y-89949768D01*
X147123775Y-90048793D01*
X147236345Y-90048793D01*
X147265605Y-90049576D01*
X147326201Y-90058913D01*
X147348915Y-90076584D01*
X147345289Y-90086451D01*
X147315851Y-90129047D01*
X147263240Y-90192936D01*
X147195204Y-90268445D01*
X147041494Y-90432516D01*
X147145692Y-90440129D01*
X147205196Y-90448793D01*
X147241592Y-90470483D01*
X147243289Y-90510143D01*
X147210202Y-90573469D01*
X147142243Y-90666161D01*
X147130711Y-90680878D01*
X147082470Y-90742830D01*
X147045469Y-90795274D01*
X147018388Y-90845586D01*
X146999911Y-90901143D01*
X146988718Y-90969322D01*
X146983492Y-91057501D01*
X146982915Y-91173056D01*
X146985668Y-91323365D01*
X146990434Y-91515805D01*
X147005252Y-92115947D01*
X147195651Y-92128325D01*
X147386050Y-92140704D01*
X147393952Y-92237209D01*
X147394406Y-92243088D01*
X147391501Y-92313814D01*
X147364846Y-92353801D01*
X147306606Y-92368370D01*
X147208945Y-92362842D01*
X147160746Y-92358874D01*
X147098385Y-92359682D01*
X147068647Y-92368722D01*
X147068434Y-92374620D01*
X147087300Y-92412609D01*
X147129623Y-92474316D01*
X147188732Y-92549690D01*
X147208791Y-92574399D01*
X147266529Y-92651576D01*
X147307138Y-92715189D01*
X147322841Y-92753423D01*
X147321456Y-92767958D01*
X147304376Y-92786056D01*
X147259339Y-92794600D01*
X147175621Y-92796746D01*
X147108038Y-92794704D01*
X147049356Y-92787976D01*
X147026584Y-92778179D01*
X147016575Y-92758106D01*
X146982660Y-92704862D01*
X146930453Y-92628121D01*
X146865894Y-92536805D01*
X146705702Y-92313998D01*
X146705476Y-91545717D01*
X146705250Y-90777435D01*
X146792624Y-90642110D01*
X146879998Y-90506785D01*
X146780246Y-90499173D01*
X146757493Y-90496744D01*
X146702495Y-90483403D01*
X146680494Y-90465352D01*
X146684375Y-90455078D01*
X146713569Y-90411727D01*
X146765125Y-90346373D01*
X146831582Y-90268725D01*
X146982669Y-90098306D01*
X146870177Y-90098306D01*
X146837239Y-90097345D01*
X146774833Y-90089265D01*
X146743680Y-90075646D01*
X146742859Y-90073447D01*
X146753485Y-90040228D01*
X146786136Y-89986574D01*
X146831109Y-89926869D01*
X146878699Y-89875499D01*
X146880122Y-89874081D01*
X146905573Y-89845502D01*
X146952539Y-89790941D01*
X147012075Y-89720772D01*
X147021207Y-89710060D01*
X147082987Y-89643336D01*
X147134980Y-89596253D01*
X147166742Y-89578423D01*
X147187601Y-89580949D01*
G37*
G36*
X145511054Y-91769299D02*
G01*
X145511376Y-91819720D01*
X145512362Y-92031421D01*
X145512697Y-92226831D01*
X145512409Y-92400414D01*
X145511530Y-92546633D01*
X145510089Y-92659952D01*
X145508116Y-92734834D01*
X145505642Y-92765742D01*
X145500938Y-92772470D01*
X145457459Y-92790141D01*
X145381563Y-92796746D01*
X145269383Y-92796746D01*
X145269383Y-91917030D01*
X145269383Y-91037315D01*
X145015631Y-91044370D01*
X144761878Y-91051425D01*
X144749500Y-91917897D01*
X144737122Y-92784368D01*
X144638096Y-92784368D01*
X144539071Y-92784368D01*
X144532380Y-92270674D01*
X144525688Y-91756980D01*
X144427165Y-91756980D01*
X144328642Y-91756980D01*
X144328642Y-92278358D01*
X144328642Y-92799735D01*
X144235806Y-92792052D01*
X144142970Y-92784368D01*
X144136278Y-92270674D01*
X144129587Y-91756980D01*
X144031566Y-91756980D01*
X143933545Y-91756980D01*
X143926854Y-92270674D01*
X143920163Y-92784368D01*
X143833516Y-92784368D01*
X143746868Y-92784368D01*
X143740177Y-92270674D01*
X143733486Y-91756980D01*
X143623087Y-91756980D01*
X143512688Y-91756980D01*
X143505996Y-92270674D01*
X143499305Y-92784368D01*
X143429728Y-92792346D01*
X143387982Y-92795512D01*
X143352645Y-92790405D01*
X143326880Y-92770669D01*
X143309179Y-92730490D01*
X143298036Y-92664054D01*
X143291942Y-92565549D01*
X143289392Y-92429161D01*
X143288876Y-92249076D01*
X143288876Y-91756980D01*
X143202731Y-91756980D01*
X143116586Y-91756980D01*
X143109895Y-92270674D01*
X143103204Y-92784368D01*
X143004178Y-92784368D01*
X142905153Y-92784368D01*
X142898556Y-92136312D01*
X142897108Y-91989639D01*
X142895876Y-91826353D01*
X142895881Y-91702687D01*
X142897512Y-91612910D01*
X142901158Y-91551294D01*
X142907207Y-91512109D01*
X142916049Y-91489625D01*
X142928072Y-91478114D01*
X142943667Y-91471845D01*
X142971239Y-91465390D01*
X143040617Y-91467212D01*
X143094137Y-91491284D01*
X143115582Y-91531937D01*
X143116469Y-91542943D01*
X143139429Y-91573111D01*
X143201055Y-91588248D01*
X143228982Y-91591239D01*
X143269562Y-91588414D01*
X143286828Y-91561617D01*
X143293891Y-91498120D01*
X143297099Y-91460253D01*
X143308822Y-91416258D01*
X143340340Y-91397700D01*
X143406469Y-91390401D01*
X143511683Y-91382788D01*
X143511683Y-91480637D01*
X143511955Y-91512922D01*
X143519492Y-91559267D01*
X143548129Y-91579267D01*
X143611995Y-91588052D01*
X143634351Y-91589885D01*
X143694062Y-91591355D01*
X143723398Y-91586526D01*
X143728646Y-91562501D01*
X143732870Y-91501601D01*
X143734490Y-91418644D01*
X143734527Y-91387048D01*
X143736587Y-91315240D01*
X143745473Y-91278009D01*
X143766206Y-91264000D01*
X143803808Y-91261854D01*
X143850407Y-91266178D01*
X143899572Y-91293577D01*
X143925183Y-91353059D01*
X143932541Y-91452477D01*
X143932541Y-91583686D01*
X144030700Y-91583686D01*
X144128859Y-91583686D01*
X144135915Y-91329934D01*
X144142970Y-91076181D01*
X144229617Y-91076181D01*
X144316264Y-91076181D01*
X144323319Y-91329934D01*
X144330374Y-91583686D01*
X144427905Y-91583686D01*
X144525436Y-91583686D01*
X144532253Y-91193774D01*
X144539071Y-90803861D01*
X145021820Y-90803861D01*
X145504568Y-90803861D01*
X145511054Y-91769299D01*
G37*
G36*
X148630684Y-91193774D02*
G01*
X148637502Y-91583686D01*
X148723520Y-91583686D01*
X148809539Y-91583686D01*
X148809539Y-91336594D01*
X148809581Y-91278859D01*
X148810818Y-91186244D01*
X148815597Y-91129005D01*
X148826326Y-91097489D01*
X148845412Y-91082041D01*
X148875261Y-91073007D01*
X148888749Y-91069831D01*
X148944606Y-91064991D01*
X148982740Y-91083589D01*
X149006777Y-91132119D01*
X149020340Y-91217071D01*
X149027053Y-91344939D01*
X149034139Y-91583686D01*
X149131086Y-91583686D01*
X149228034Y-91583686D01*
X149235404Y-91428959D01*
X149242775Y-91274232D01*
X149329422Y-91274232D01*
X149416069Y-91274232D01*
X149423440Y-91428959D01*
X149430810Y-91583686D01*
X149527160Y-91583686D01*
X149551105Y-91583544D01*
X149601542Y-91577144D01*
X149623014Y-91550908D01*
X149631193Y-91490850D01*
X149632288Y-91478200D01*
X149642617Y-91423308D01*
X149670421Y-91399356D01*
X149731712Y-91390330D01*
X149761454Y-91388045D01*
X149805807Y-91391080D01*
X149822188Y-91416969D01*
X149824549Y-91479040D01*
X149824753Y-91497239D01*
X149828726Y-91557098D01*
X149836170Y-91587055D01*
X149846675Y-91592741D01*
X149892702Y-91595027D01*
X149951116Y-91584661D01*
X150001291Y-91566328D01*
X150022599Y-91544714D01*
X150025987Y-91528600D01*
X150061520Y-91491723D01*
X150120960Y-91469609D01*
X150185821Y-91470649D01*
X150245406Y-91485604D01*
X150245406Y-92124671D01*
X150244921Y-92278833D01*
X150243308Y-92437640D01*
X150240730Y-92573934D01*
X150237357Y-92680966D01*
X150233357Y-92751985D01*
X150228902Y-92780242D01*
X150188595Y-92796171D01*
X150127573Y-92796407D01*
X150069637Y-92782644D01*
X150037626Y-92757587D01*
X150037229Y-92756386D01*
X150032604Y-92716636D01*
X150028588Y-92636399D01*
X150025421Y-92524020D01*
X150023345Y-92387842D01*
X150022599Y-92236210D01*
X150022599Y-91753992D01*
X149929763Y-91761675D01*
X149836927Y-91769359D01*
X149846293Y-92228786D01*
X149848309Y-92369486D01*
X149848509Y-92505657D01*
X149846839Y-92619178D01*
X149843436Y-92701101D01*
X149838436Y-92742480D01*
X149826317Y-92768570D01*
X149791551Y-92790944D01*
X149723855Y-92796746D01*
X149626498Y-92796746D01*
X149626498Y-92275369D01*
X149626498Y-91753992D01*
X149533662Y-91761675D01*
X149440826Y-91769359D01*
X149434134Y-92283052D01*
X149427443Y-92796746D01*
X149329422Y-92796746D01*
X149231401Y-92796746D01*
X149224710Y-92283052D01*
X149218018Y-91769359D01*
X149125182Y-91761675D01*
X149032346Y-91753992D01*
X149031967Y-92244424D01*
X149031932Y-92265320D01*
X149030547Y-92416059D01*
X149027413Y-92549785D01*
X149022859Y-92658373D01*
X149017213Y-92733698D01*
X149010804Y-92767638D01*
X148974485Y-92788772D01*
X148905968Y-92792394D01*
X148821917Y-92784368D01*
X148815226Y-92270674D01*
X148808534Y-91756980D01*
X148722892Y-91756980D01*
X148637249Y-91756980D01*
X148630558Y-92270674D01*
X148623866Y-92784368D01*
X148512463Y-92784368D01*
X148401059Y-92784368D01*
X148394554Y-91911707D01*
X148388048Y-91039047D01*
X148141118Y-91039047D01*
X147894188Y-91039047D01*
X147887682Y-91911707D01*
X147881176Y-92784368D01*
X147769773Y-92784368D01*
X147658369Y-92784368D01*
X147658369Y-91794115D01*
X147658369Y-90803861D01*
X148141118Y-90803861D01*
X148623866Y-90803861D01*
X148630684Y-91193774D01*
G37*
G36*
X146018296Y-93211727D02*
G01*
X146227265Y-93280796D01*
X146455809Y-93309198D01*
X146711241Y-93299367D01*
X146942806Y-93260543D01*
X147177777Y-93182331D01*
X147318650Y-93102462D01*
X147918311Y-93102462D01*
X147928846Y-93126816D01*
X147961157Y-93184716D01*
X148009516Y-93266180D01*
X148068088Y-93361885D01*
X148131033Y-93462508D01*
X148192516Y-93558728D01*
X148246699Y-93641222D01*
X148287745Y-93700666D01*
X148309817Y-93727738D01*
X148350638Y-93747072D01*
X148424828Y-93772092D01*
X148514854Y-93796540D01*
X148517746Y-93797238D01*
X148601087Y-93816674D01*
X148662652Y-93829826D01*
X148689299Y-93833879D01*
X148712848Y-93825119D01*
X148762759Y-93805559D01*
X148827382Y-93779873D01*
X148678333Y-93517306D01*
X148618676Y-93413756D01*
X148563479Y-93320846D01*
X148520161Y-93250974D01*
X148494840Y-93214243D01*
X148460297Y-93192300D01*
X148377865Y-93166889D01*
X148257433Y-93145074D01*
X148234828Y-93141874D01*
X148131501Y-93127100D01*
X148042985Y-93114225D01*
X147986391Y-93105731D01*
X147939420Y-93100425D01*
X147918311Y-93102462D01*
X147318650Y-93102462D01*
X147379427Y-93068004D01*
X147548321Y-92917303D01*
X147636323Y-92819924D01*
X147870153Y-92845090D01*
X147923983Y-92851155D01*
X148069581Y-92869231D01*
X148226882Y-92890518D01*
X148370118Y-92911587D01*
X148636253Y-92952919D01*
X148729085Y-93114268D01*
X148798826Y-93235224D01*
X148878750Y-93372490D01*
X148939899Y-93474896D01*
X148985524Y-93547279D01*
X149018874Y-93594478D01*
X149043199Y-93621330D01*
X149061750Y-93632672D01*
X149077775Y-93633343D01*
X149078286Y-93633241D01*
X149120607Y-93603967D01*
X149168842Y-93540443D01*
X149215647Y-93455909D01*
X149253675Y-93363605D01*
X149275582Y-93276773D01*
X149276179Y-93272643D01*
X149288548Y-93206474D01*
X149304874Y-93165683D01*
X149328127Y-93152773D01*
X149361277Y-93170244D01*
X149407293Y-93220597D01*
X149469146Y-93306332D01*
X149549806Y-93429951D01*
X149652241Y-93593954D01*
X149679273Y-93637699D01*
X149762523Y-93772292D01*
X149837475Y-93893287D01*
X149899701Y-93993548D01*
X149937138Y-94053676D01*
X149944776Y-94065943D01*
X149968274Y-94103336D01*
X149985216Y-94134862D01*
X149984589Y-94164482D01*
X149958332Y-94201324D01*
X149900826Y-94258301D01*
X149802446Y-94339179D01*
X149618077Y-94444428D01*
X149409319Y-94515951D01*
X149384962Y-94521573D01*
X149169337Y-94549035D01*
X148951359Y-94540299D01*
X148741865Y-94497473D01*
X148551691Y-94422664D01*
X148391676Y-94317982D01*
X148383434Y-94310901D01*
X148343293Y-94271722D01*
X148300213Y-94220564D01*
X148250736Y-94152176D01*
X148191405Y-94061308D01*
X148178815Y-94040754D01*
X148484892Y-94040754D01*
X148540632Y-94100087D01*
X148572768Y-94128274D01*
X148645317Y-94177876D01*
X148728671Y-94224147D01*
X148879695Y-94275695D01*
X149055904Y-94298038D01*
X149238236Y-94290189D01*
X149411056Y-94252853D01*
X149558729Y-94186734D01*
X149585783Y-94168730D01*
X149638900Y-94113318D01*
X149645182Y-94053676D01*
X149606402Y-93982200D01*
X149584839Y-93951582D01*
X149539066Y-93879944D01*
X149491376Y-93799378D01*
X149460877Y-93746001D01*
X149428884Y-93691177D01*
X149413360Y-93666195D01*
X149395831Y-93675792D01*
X149353315Y-93713007D01*
X149295820Y-93769666D01*
X149284660Y-93779873D01*
X149195299Y-93861601D01*
X149052975Y-93951571D01*
X148893071Y-94005741D01*
X148702917Y-94029666D01*
X148484892Y-94040754D01*
X148178815Y-94040754D01*
X148118761Y-93942711D01*
X148029347Y-93791134D01*
X147919707Y-93601327D01*
X147849609Y-93479985D01*
X147782978Y-93366262D01*
X147727817Y-93273811D01*
X147688458Y-93209889D01*
X147669234Y-93181756D01*
X147663279Y-93178038D01*
X147624568Y-93188262D01*
X147565581Y-93234895D01*
X147544379Y-93253611D01*
X147449298Y-93320575D01*
X147329633Y-93388051D01*
X147203238Y-93446620D01*
X147087969Y-93486861D01*
X147039980Y-93496927D01*
X146946257Y-93511366D01*
X146829618Y-93525811D01*
X146704871Y-93538275D01*
X146610354Y-93545884D01*
X146496062Y-93551379D01*
X146401132Y-93548906D01*
X146307660Y-93537715D01*
X146197746Y-93517058D01*
X145983553Y-93460358D01*
X145767010Y-93368362D01*
X145591982Y-93249651D01*
X145548303Y-93215614D01*
X145497111Y-93185856D01*
X145469195Y-93183336D01*
X145467628Y-93185380D01*
X145446398Y-93219152D01*
X145406494Y-93285921D01*
X145352766Y-93377311D01*
X145290064Y-93484942D01*
X145223240Y-93600437D01*
X145157143Y-93715417D01*
X145096626Y-93821504D01*
X145046537Y-93910319D01*
X145011729Y-93973486D01*
X144993005Y-94005927D01*
X144949197Y-94070670D01*
X144930843Y-94097795D01*
X144855973Y-94194129D01*
X144781035Y-94279237D01*
X144718665Y-94337423D01*
X144694140Y-94355442D01*
X144509695Y-94457439D01*
X144304008Y-94521244D01*
X144085626Y-94547198D01*
X143863100Y-94535641D01*
X143644976Y-94486911D01*
X143439805Y-94401349D01*
X143256133Y-94279295D01*
X143235734Y-94261653D01*
X143179515Y-94192285D01*
X143169385Y-94124774D01*
X143182678Y-94096351D01*
X143487096Y-94096351D01*
X143499799Y-94122721D01*
X143550041Y-94164472D01*
X143627528Y-94207810D01*
X143720462Y-94246389D01*
X143817044Y-94273860D01*
X143943651Y-94294575D01*
X144143808Y-94298068D01*
X144324098Y-94259790D01*
X144489922Y-94178978D01*
X144526673Y-94155243D01*
X144597957Y-94104465D01*
X144625912Y-94070670D01*
X144608995Y-94049701D01*
X144545658Y-94037404D01*
X144434355Y-94029623D01*
X144299767Y-94016064D01*
X144130433Y-93971216D01*
X143983053Y-93891914D01*
X143862645Y-93787724D01*
X144344220Y-93787724D01*
X144386944Y-93809579D01*
X144468349Y-93818743D01*
X144568974Y-93811000D01*
X144674773Y-93788570D01*
X144771694Y-93753672D01*
X144845690Y-93708524D01*
X144857138Y-93695795D01*
X144893338Y-93645944D01*
X144944104Y-93569995D01*
X145003460Y-93477579D01*
X145065428Y-93378327D01*
X145124030Y-93281872D01*
X145173290Y-93197845D01*
X145207229Y-93135877D01*
X145219870Y-93105600D01*
X145219758Y-93104826D01*
X145206887Y-93100586D01*
X145168561Y-93102046D01*
X145098938Y-93109847D01*
X144992179Y-93124631D01*
X144842442Y-93147038D01*
X144817982Y-93150742D01*
X144756453Y-93161295D01*
X144708864Y-93175842D01*
X144668722Y-93200840D01*
X144629533Y-93242743D01*
X144584803Y-93308006D01*
X144528041Y-93403086D01*
X144452752Y-93534436D01*
X144421973Y-93589559D01*
X144372019Y-93687931D01*
X144345357Y-93755723D01*
X144344220Y-93787724D01*
X143862645Y-93787724D01*
X143845464Y-93772857D01*
X143738867Y-93663177D01*
X143612897Y-93867334D01*
X143580339Y-93920957D01*
X143532319Y-94003784D01*
X143499321Y-94065738D01*
X143487096Y-94096351D01*
X143182678Y-94096351D01*
X143203608Y-94051598D01*
X143223924Y-94021343D01*
X143267617Y-93953411D01*
X143324436Y-93863285D01*
X143387226Y-93762244D01*
X143424258Y-93702220D01*
X143504551Y-93572082D01*
X143584461Y-93442562D01*
X143651182Y-93334420D01*
X143669210Y-93305595D01*
X143734448Y-93211194D01*
X143783563Y-93161257D01*
X143819298Y-93154942D01*
X143844396Y-93191406D01*
X143861602Y-93269807D01*
X143869865Y-93313964D01*
X143901079Y-93413512D01*
X143944678Y-93505038D01*
X143994437Y-93578572D01*
X144044134Y-93624143D01*
X144087543Y-93631779D01*
X144097368Y-93623772D01*
X144132092Y-93579165D01*
X144182761Y-93502977D01*
X144244231Y-93403123D01*
X144311356Y-93287515D01*
X144497613Y-92957663D01*
X144778284Y-92914351D01*
X144857808Y-92902351D01*
X145008980Y-92880631D01*
X145157298Y-92860472D01*
X145279752Y-92845055D01*
X145500549Y-92819071D01*
X145626340Y-92938554D01*
X145629831Y-92941862D01*
X145821589Y-93099560D01*
X145832181Y-93105600D01*
X146018296Y-93211727D01*
G37*
%TD*%
M02*
